%TF.GenerationSoftware,KiCad,Pcbnew,(5.1.8)-1*%
%TF.CreationDate,2021-09-25T16:30:51+01:00*%
%TF.ProjectId,dashboard mech press,64617368-626f-4617-9264-206d65636820,rev?*%
%TF.SameCoordinates,Original*%
%TF.FileFunction,Soldermask,Bot*%
%TF.FilePolarity,Negative*%
%FSLAX46Y46*%
G04 Gerber Fmt 4.6, Leading zero omitted, Abs format (unit mm)*
G04 Created by KiCad (PCBNEW (5.1.8)-1) date 2021-09-25 16:30:51*
%MOMM*%
%LPD*%
G01*
G04 APERTURE LIST*
%ADD10O,1.700000X1.950000*%
%ADD11C,5.000000*%
%ADD12O,1.950000X1.700000*%
%ADD13C,1.500000*%
%ADD14O,1.600000X1.600000*%
%ADD15R,1.600000X1.600000*%
%ADD16C,2.000000*%
%ADD17C,2.600000*%
%ADD18R,2.600000X2.600000*%
%ADD19O,1.350000X1.350000*%
%ADD20R,1.350000X1.350000*%
G04 APERTURE END LIST*
D10*
%TO.C,J4*%
X123197000Y-71501000D03*
X120697000Y-71501000D03*
X118197000Y-71501000D03*
G36*
G01*
X114847000Y-72226000D02*
X114847000Y-70776000D01*
G75*
G02*
X115097000Y-70526000I250000J0D01*
G01*
X116297000Y-70526000D01*
G75*
G02*
X116547000Y-70776000I0J-250000D01*
G01*
X116547000Y-72226000D01*
G75*
G02*
X116297000Y-72476000I-250000J0D01*
G01*
X115097000Y-72476000D01*
G75*
G02*
X114847000Y-72226000I0J250000D01*
G01*
G37*
%TD*%
D11*
%TO.C,H4*%
X107569000Y-123190000D03*
%TD*%
%TO.C,H3*%
X107315000Y-72072500D03*
%TD*%
%TO.C,H2*%
X178816000Y-123380500D03*
%TD*%
%TO.C,H1*%
X178498500Y-72009000D03*
%TD*%
D10*
%TO.C,J14*%
X134603500Y-71564500D03*
X132103500Y-71564500D03*
G36*
G01*
X128753500Y-72289500D02*
X128753500Y-70839500D01*
G75*
G02*
X129003500Y-70589500I250000J0D01*
G01*
X130203500Y-70589500D01*
G75*
G02*
X130453500Y-70839500I0J-250000D01*
G01*
X130453500Y-72289500D01*
G75*
G02*
X130203500Y-72539500I-250000J0D01*
G01*
X129003500Y-72539500D01*
G75*
G02*
X128753500Y-72289500I0J250000D01*
G01*
G37*
%TD*%
%TO.C,J13*%
X114022500Y-124396500D03*
X116522500Y-124396500D03*
G36*
G01*
X119872500Y-123671500D02*
X119872500Y-125121500D01*
G75*
G02*
X119622500Y-125371500I-250000J0D01*
G01*
X118422500Y-125371500D01*
G75*
G02*
X118172500Y-125121500I0J250000D01*
G01*
X118172500Y-123671500D01*
G75*
G02*
X118422500Y-123421500I250000J0D01*
G01*
X119622500Y-123421500D01*
G75*
G02*
X119872500Y-123671500I0J-250000D01*
G01*
G37*
%TD*%
%TO.C,J12*%
X146287500Y-71564500D03*
X143787500Y-71564500D03*
G36*
G01*
X140437500Y-72289500D02*
X140437500Y-70839500D01*
G75*
G02*
X140687500Y-70589500I250000J0D01*
G01*
X141887500Y-70589500D01*
G75*
G02*
X142137500Y-70839500I0J-250000D01*
G01*
X142137500Y-72289500D01*
G75*
G02*
X141887500Y-72539500I-250000J0D01*
G01*
X140687500Y-72539500D01*
G75*
G02*
X140437500Y-72289500I0J250000D01*
G01*
G37*
%TD*%
D12*
%TO.C,J11*%
X108267500Y-104156500D03*
X108267500Y-106656500D03*
G36*
G01*
X108992500Y-110006500D02*
X107542500Y-110006500D01*
G75*
G02*
X107292500Y-109756500I0J250000D01*
G01*
X107292500Y-108556500D01*
G75*
G02*
X107542500Y-108306500I250000J0D01*
G01*
X108992500Y-108306500D01*
G75*
G02*
X109242500Y-108556500I0J-250000D01*
G01*
X109242500Y-109756500D01*
G75*
G02*
X108992500Y-110006500I-250000J0D01*
G01*
G37*
%TD*%
D10*
%TO.C,J10*%
X157717500Y-71564500D03*
X155217500Y-71564500D03*
G36*
G01*
X151867500Y-72289500D02*
X151867500Y-70839500D01*
G75*
G02*
X152117500Y-70589500I250000J0D01*
G01*
X153317500Y-70589500D01*
G75*
G02*
X153567500Y-70839500I0J-250000D01*
G01*
X153567500Y-72289500D01*
G75*
G02*
X153317500Y-72539500I-250000J0D01*
G01*
X152117500Y-72539500D01*
G75*
G02*
X151867500Y-72289500I0J250000D01*
G01*
G37*
%TD*%
D12*
%TO.C,J9*%
X108331000Y-92536000D03*
X108331000Y-95036000D03*
G36*
G01*
X109056000Y-98386000D02*
X107606000Y-98386000D01*
G75*
G02*
X107356000Y-98136000I0J250000D01*
G01*
X107356000Y-96936000D01*
G75*
G02*
X107606000Y-96686000I250000J0D01*
G01*
X109056000Y-96686000D01*
G75*
G02*
X109306000Y-96936000I0J-250000D01*
G01*
X109306000Y-98136000D01*
G75*
G02*
X109056000Y-98386000I-250000J0D01*
G01*
G37*
%TD*%
D10*
%TO.C,J8*%
X169084000Y-71564500D03*
X166584000Y-71564500D03*
G36*
G01*
X163234000Y-72289500D02*
X163234000Y-70839500D01*
G75*
G02*
X163484000Y-70589500I250000J0D01*
G01*
X164684000Y-70589500D01*
G75*
G02*
X164934000Y-70839500I0J-250000D01*
G01*
X164934000Y-72289500D01*
G75*
G02*
X164684000Y-72539500I-250000J0D01*
G01*
X163484000Y-72539500D01*
G75*
G02*
X163234000Y-72289500I0J250000D01*
G01*
G37*
%TD*%
D12*
%TO.C,J5*%
X180530500Y-89899500D03*
X180530500Y-87399500D03*
G36*
G01*
X179805500Y-84049500D02*
X181255500Y-84049500D01*
G75*
G02*
X181505500Y-84299500I0J-250000D01*
G01*
X181505500Y-85499500D01*
G75*
G02*
X181255500Y-85749500I-250000J0D01*
G01*
X179805500Y-85749500D01*
G75*
G02*
X179555500Y-85499500I0J250000D01*
G01*
X179555500Y-84299500D01*
G75*
G02*
X179805500Y-84049500I250000J0D01*
G01*
G37*
%TD*%
D13*
%TO.C,Y1*%
X132143500Y-101590500D03*
X132143500Y-96710500D03*
%TD*%
D14*
%TO.C,U5*%
X136652000Y-124841000D03*
X144272000Y-122301000D03*
X136652000Y-122301000D03*
D15*
X144272000Y-124841000D03*
%TD*%
D14*
%TO.C,U4*%
X114871500Y-109982000D03*
X117411500Y-117602000D03*
X117411500Y-109982000D03*
D15*
X114871500Y-117602000D03*
%TD*%
D14*
%TO.C,U3*%
X166370000Y-83820000D03*
X168910000Y-91440000D03*
X168910000Y-83820000D03*
D15*
X166370000Y-91440000D03*
%TD*%
D14*
%TO.C,U2*%
X142240000Y-85026500D03*
X149860000Y-82486500D03*
X142240000Y-82486500D03*
D15*
X149860000Y-85026500D03*
%TD*%
D16*
%TO.C,SW1*%
X159916000Y-94234000D03*
X159916000Y-98734000D03*
X153416000Y-94234000D03*
X153416000Y-98734000D03*
%TD*%
D12*
%TO.C,J6*%
X175704500Y-105099500D03*
X175704500Y-102599500D03*
X175704500Y-100099500D03*
G36*
G01*
X174979500Y-96749500D02*
X176429500Y-96749500D01*
G75*
G02*
X176679500Y-96999500I0J-250000D01*
G01*
X176679500Y-98199500D01*
G75*
G02*
X176429500Y-98449500I-250000J0D01*
G01*
X174979500Y-98449500D01*
G75*
G02*
X174729500Y-98199500I0J250000D01*
G01*
X174729500Y-96999500D01*
G75*
G02*
X174979500Y-96749500I250000J0D01*
G01*
G37*
%TD*%
D17*
%TO.C,J3*%
X111315500Y-85788500D03*
D18*
X111315500Y-80708500D03*
%TD*%
D17*
%TO.C,J2*%
X153797000Y-121539000D03*
D18*
X148717000Y-121539000D03*
%TD*%
D19*
%TO.C,J1*%
X155670000Y-106997000D03*
X153670000Y-106997000D03*
X155670000Y-104997000D03*
X153670000Y-104997000D03*
X155670000Y-102997000D03*
D20*
X153670000Y-102997000D03*
%TD*%
M02*
