%TF.GenerationSoftware,KiCad,Pcbnew,(5.1.8)-1*%
%TF.CreationDate,2021-09-25T16:30:51+01:00*%
%TF.ProjectId,dashboard mech press,64617368-626f-4617-9264-206d65636820,rev?*%
%TF.SameCoordinates,Original*%
%TF.FileFunction,Soldermask,Top*%
%TF.FilePolarity,Negative*%
%FSLAX46Y46*%
G04 Gerber Fmt 4.6, Leading zero omitted, Abs format (unit mm)*
G04 Created by KiCad (PCBNEW (5.1.8)-1) date 2021-09-25 16:30:51*
%MOMM*%
%LPD*%
G01*
G04 APERTURE LIST*
%ADD10O,1.700000X1.950000*%
%ADD11C,5.000000*%
%ADD12O,1.950000X1.700000*%
%ADD13C,1.500000*%
%ADD14R,2.000000X1.500000*%
%ADD15R,2.000000X3.800000*%
%ADD16R,1.200000X0.400000*%
%ADD17O,1.600000X1.600000*%
%ADD18R,1.600000X1.600000*%
%ADD19R,0.550000X1.600000*%
%ADD20R,1.600000X0.550000*%
%ADD21C,2.000000*%
%ADD22C,0.100000*%
%ADD23R,1.300000X0.900000*%
%ADD24R,10.800000X9.400000*%
%ADD25R,1.100000X4.600000*%
%ADD26R,9.400000X10.800000*%
%ADD27R,4.600000X1.100000*%
%ADD28C,2.600000*%
%ADD29R,2.600000X2.600000*%
%ADD30O,1.350000X1.350000*%
%ADD31R,1.350000X1.350000*%
%ADD32R,0.350000X0.350000*%
G04 APERTURE END LIST*
D10*
%TO.C,J4*%
X123197000Y-71501000D03*
X120697000Y-71501000D03*
X118197000Y-71501000D03*
G36*
G01*
X114847000Y-72226000D02*
X114847000Y-70776000D01*
G75*
G02*
X115097000Y-70526000I250000J0D01*
G01*
X116297000Y-70526000D01*
G75*
G02*
X116547000Y-70776000I0J-250000D01*
G01*
X116547000Y-72226000D01*
G75*
G02*
X116297000Y-72476000I-250000J0D01*
G01*
X115097000Y-72476000D01*
G75*
G02*
X114847000Y-72226000I0J250000D01*
G01*
G37*
%TD*%
D11*
%TO.C,H4*%
X107569000Y-123190000D03*
%TD*%
%TO.C,H3*%
X107315000Y-72072500D03*
%TD*%
%TO.C,H2*%
X178816000Y-123380500D03*
%TD*%
%TO.C,H1*%
X178498500Y-72009000D03*
%TD*%
D10*
%TO.C,J14*%
X134603500Y-71564500D03*
X132103500Y-71564500D03*
G36*
G01*
X128753500Y-72289500D02*
X128753500Y-70839500D01*
G75*
G02*
X129003500Y-70589500I250000J0D01*
G01*
X130203500Y-70589500D01*
G75*
G02*
X130453500Y-70839500I0J-250000D01*
G01*
X130453500Y-72289500D01*
G75*
G02*
X130203500Y-72539500I-250000J0D01*
G01*
X129003500Y-72539500D01*
G75*
G02*
X128753500Y-72289500I0J250000D01*
G01*
G37*
%TD*%
%TO.C,J13*%
X114022500Y-124396500D03*
X116522500Y-124396500D03*
G36*
G01*
X119872500Y-123671500D02*
X119872500Y-125121500D01*
G75*
G02*
X119622500Y-125371500I-250000J0D01*
G01*
X118422500Y-125371500D01*
G75*
G02*
X118172500Y-125121500I0J250000D01*
G01*
X118172500Y-123671500D01*
G75*
G02*
X118422500Y-123421500I250000J0D01*
G01*
X119622500Y-123421500D01*
G75*
G02*
X119872500Y-123671500I0J-250000D01*
G01*
G37*
%TD*%
%TO.C,J12*%
X146287500Y-71564500D03*
X143787500Y-71564500D03*
G36*
G01*
X140437500Y-72289500D02*
X140437500Y-70839500D01*
G75*
G02*
X140687500Y-70589500I250000J0D01*
G01*
X141887500Y-70589500D01*
G75*
G02*
X142137500Y-70839500I0J-250000D01*
G01*
X142137500Y-72289500D01*
G75*
G02*
X141887500Y-72539500I-250000J0D01*
G01*
X140687500Y-72539500D01*
G75*
G02*
X140437500Y-72289500I0J250000D01*
G01*
G37*
%TD*%
D12*
%TO.C,J11*%
X108267500Y-104156500D03*
X108267500Y-106656500D03*
G36*
G01*
X108992500Y-110006500D02*
X107542500Y-110006500D01*
G75*
G02*
X107292500Y-109756500I0J250000D01*
G01*
X107292500Y-108556500D01*
G75*
G02*
X107542500Y-108306500I250000J0D01*
G01*
X108992500Y-108306500D01*
G75*
G02*
X109242500Y-108556500I0J-250000D01*
G01*
X109242500Y-109756500D01*
G75*
G02*
X108992500Y-110006500I-250000J0D01*
G01*
G37*
%TD*%
D10*
%TO.C,J10*%
X157717500Y-71564500D03*
X155217500Y-71564500D03*
G36*
G01*
X151867500Y-72289500D02*
X151867500Y-70839500D01*
G75*
G02*
X152117500Y-70589500I250000J0D01*
G01*
X153317500Y-70589500D01*
G75*
G02*
X153567500Y-70839500I0J-250000D01*
G01*
X153567500Y-72289500D01*
G75*
G02*
X153317500Y-72539500I-250000J0D01*
G01*
X152117500Y-72539500D01*
G75*
G02*
X151867500Y-72289500I0J250000D01*
G01*
G37*
%TD*%
D12*
%TO.C,J9*%
X108331000Y-92536000D03*
X108331000Y-95036000D03*
G36*
G01*
X109056000Y-98386000D02*
X107606000Y-98386000D01*
G75*
G02*
X107356000Y-98136000I0J250000D01*
G01*
X107356000Y-96936000D01*
G75*
G02*
X107606000Y-96686000I250000J0D01*
G01*
X109056000Y-96686000D01*
G75*
G02*
X109306000Y-96936000I0J-250000D01*
G01*
X109306000Y-98136000D01*
G75*
G02*
X109056000Y-98386000I-250000J0D01*
G01*
G37*
%TD*%
D10*
%TO.C,J8*%
X169084000Y-71564500D03*
X166584000Y-71564500D03*
G36*
G01*
X163234000Y-72289500D02*
X163234000Y-70839500D01*
G75*
G02*
X163484000Y-70589500I250000J0D01*
G01*
X164684000Y-70589500D01*
G75*
G02*
X164934000Y-70839500I0J-250000D01*
G01*
X164934000Y-72289500D01*
G75*
G02*
X164684000Y-72539500I-250000J0D01*
G01*
X163484000Y-72539500D01*
G75*
G02*
X163234000Y-72289500I0J250000D01*
G01*
G37*
%TD*%
D12*
%TO.C,J5*%
X180530500Y-89899500D03*
X180530500Y-87399500D03*
G36*
G01*
X179805500Y-84049500D02*
X181255500Y-84049500D01*
G75*
G02*
X181505500Y-84299500I0J-250000D01*
G01*
X181505500Y-85499500D01*
G75*
G02*
X181255500Y-85749500I-250000J0D01*
G01*
X179805500Y-85749500D01*
G75*
G02*
X179555500Y-85499500I0J250000D01*
G01*
X179555500Y-84299500D01*
G75*
G02*
X179805500Y-84049500I250000J0D01*
G01*
G37*
%TD*%
D13*
%TO.C,Y1*%
X132143500Y-101590500D03*
X132143500Y-96710500D03*
%TD*%
D14*
%TO.C,U7*%
X162292500Y-120255000D03*
X162292500Y-124855000D03*
X162292500Y-122555000D03*
D15*
X168592500Y-122555000D03*
%TD*%
D16*
%TO.C,U6*%
X161230000Y-107632500D03*
X161230000Y-106997500D03*
X161230000Y-106362500D03*
X161230000Y-105727500D03*
X161230000Y-105092500D03*
X161230000Y-104457500D03*
X161230000Y-103822500D03*
X161230000Y-103187500D03*
X166430000Y-103187500D03*
X166430000Y-103822500D03*
X166430000Y-104457500D03*
X166430000Y-105092500D03*
X166430000Y-105727500D03*
X166430000Y-106362500D03*
X166430000Y-106997500D03*
X166430000Y-107632500D03*
%TD*%
D17*
%TO.C,U5*%
X136652000Y-124841000D03*
X144272000Y-122301000D03*
X136652000Y-122301000D03*
D18*
X144272000Y-124841000D03*
%TD*%
D17*
%TO.C,U4*%
X114871500Y-109982000D03*
X117411500Y-117602000D03*
X117411500Y-109982000D03*
D18*
X114871500Y-117602000D03*
%TD*%
D17*
%TO.C,U3*%
X166370000Y-83820000D03*
X168910000Y-91440000D03*
X168910000Y-83820000D03*
D18*
X166370000Y-91440000D03*
%TD*%
D17*
%TO.C,U2*%
X142240000Y-85026500D03*
X149860000Y-82486500D03*
X142240000Y-82486500D03*
D18*
X149860000Y-85026500D03*
%TD*%
D19*
%TO.C,U1*%
X141808500Y-95195500D03*
X142608500Y-95195500D03*
X143408500Y-95195500D03*
X144208500Y-95195500D03*
X145008500Y-95195500D03*
X145808500Y-95195500D03*
X146608500Y-95195500D03*
X147408500Y-95195500D03*
D20*
X148858500Y-96645500D03*
X148858500Y-97445500D03*
X148858500Y-98245500D03*
X148858500Y-99045500D03*
X148858500Y-99845500D03*
X148858500Y-100645500D03*
X148858500Y-101445500D03*
X148858500Y-102245500D03*
D19*
X147408500Y-103695500D03*
X146608500Y-103695500D03*
X145808500Y-103695500D03*
X145008500Y-103695500D03*
X144208500Y-103695500D03*
X143408500Y-103695500D03*
X142608500Y-103695500D03*
X141808500Y-103695500D03*
D20*
X140358500Y-102245500D03*
X140358500Y-101445500D03*
X140358500Y-100645500D03*
X140358500Y-99845500D03*
X140358500Y-99045500D03*
X140358500Y-98245500D03*
X140358500Y-97445500D03*
X140358500Y-96645500D03*
%TD*%
D21*
%TO.C,SW1*%
X159916000Y-94234000D03*
X159916000Y-98734000D03*
X153416000Y-94234000D03*
X153416000Y-98734000D03*
%TD*%
%TO.C,R11*%
G36*
G01*
X159565501Y-120194500D02*
X158315499Y-120194500D01*
G75*
G02*
X158065500Y-119944501I0J249999D01*
G01*
X158065500Y-119319499D01*
G75*
G02*
X158315499Y-119069500I249999J0D01*
G01*
X159565501Y-119069500D01*
G75*
G02*
X159815500Y-119319499I0J-249999D01*
G01*
X159815500Y-119944501D01*
G75*
G02*
X159565501Y-120194500I-249999J0D01*
G01*
G37*
G36*
G01*
X159565501Y-123119500D02*
X158315499Y-123119500D01*
G75*
G02*
X158065500Y-122869501I0J249999D01*
G01*
X158065500Y-122244499D01*
G75*
G02*
X158315499Y-121994500I249999J0D01*
G01*
X159565501Y-121994500D01*
G75*
G02*
X159815500Y-122244499I0J-249999D01*
G01*
X159815500Y-122869501D01*
G75*
G02*
X159565501Y-123119500I-249999J0D01*
G01*
G37*
%TD*%
%TO.C,R10*%
G36*
G01*
X161301000Y-116449001D02*
X161301000Y-115198999D01*
G75*
G02*
X161550999Y-114949000I249999J0D01*
G01*
X162176001Y-114949000D01*
G75*
G02*
X162426000Y-115198999I0J-249999D01*
G01*
X162426000Y-116449001D01*
G75*
G02*
X162176001Y-116699000I-249999J0D01*
G01*
X161550999Y-116699000D01*
G75*
G02*
X161301000Y-116449001I0J249999D01*
G01*
G37*
G36*
G01*
X158376000Y-116449001D02*
X158376000Y-115198999D01*
G75*
G02*
X158625999Y-114949000I249999J0D01*
G01*
X159251001Y-114949000D01*
G75*
G02*
X159501000Y-115198999I0J-249999D01*
G01*
X159501000Y-116449001D01*
G75*
G02*
X159251001Y-116699000I-249999J0D01*
G01*
X158625999Y-116699000D01*
G75*
G02*
X158376000Y-116449001I0J249999D01*
G01*
G37*
%TD*%
%TO.C,R9*%
G36*
G01*
X161596500Y-109801499D02*
X161596500Y-111051501D01*
G75*
G02*
X161346501Y-111301500I-249999J0D01*
G01*
X160721499Y-111301500D01*
G75*
G02*
X160471500Y-111051501I0J249999D01*
G01*
X160471500Y-109801499D01*
G75*
G02*
X160721499Y-109551500I249999J0D01*
G01*
X161346501Y-109551500D01*
G75*
G02*
X161596500Y-109801499I0J-249999D01*
G01*
G37*
G36*
G01*
X164521500Y-109801499D02*
X164521500Y-111051501D01*
G75*
G02*
X164271501Y-111301500I-249999J0D01*
G01*
X163646499Y-111301500D01*
G75*
G02*
X163396500Y-111051501I0J249999D01*
G01*
X163396500Y-109801499D01*
G75*
G02*
X163646499Y-109551500I249999J0D01*
G01*
X164271501Y-109551500D01*
G75*
G02*
X164521500Y-109801499I0J-249999D01*
G01*
G37*
%TD*%
%TO.C,R7*%
G36*
G01*
X166992000Y-112150999D02*
X166992000Y-113401001D01*
G75*
G02*
X166742001Y-113651000I-249999J0D01*
G01*
X166116999Y-113651000D01*
G75*
G02*
X165867000Y-113401001I0J249999D01*
G01*
X165867000Y-112150999D01*
G75*
G02*
X166116999Y-111901000I249999J0D01*
G01*
X166742001Y-111901000D01*
G75*
G02*
X166992000Y-112150999I0J-249999D01*
G01*
G37*
G36*
G01*
X169917000Y-112150999D02*
X169917000Y-113401001D01*
G75*
G02*
X169667001Y-113651000I-249999J0D01*
G01*
X169041999Y-113651000D01*
G75*
G02*
X168792000Y-113401001I0J249999D01*
G01*
X168792000Y-112150999D01*
G75*
G02*
X169041999Y-111901000I249999J0D01*
G01*
X169667001Y-111901000D01*
G75*
G02*
X169917000Y-112150999I0J-249999D01*
G01*
G37*
%TD*%
%TO.C,R6*%
G36*
G01*
X157491000Y-111242001D02*
X157491000Y-109991999D01*
G75*
G02*
X157740999Y-109742000I249999J0D01*
G01*
X158366001Y-109742000D01*
G75*
G02*
X158616000Y-109991999I0J-249999D01*
G01*
X158616000Y-111242001D01*
G75*
G02*
X158366001Y-111492000I-249999J0D01*
G01*
X157740999Y-111492000D01*
G75*
G02*
X157491000Y-111242001I0J249999D01*
G01*
G37*
G36*
G01*
X154566000Y-111242001D02*
X154566000Y-109991999D01*
G75*
G02*
X154815999Y-109742000I249999J0D01*
G01*
X155441001Y-109742000D01*
G75*
G02*
X155691000Y-109991999I0J-249999D01*
G01*
X155691000Y-111242001D01*
G75*
G02*
X155441001Y-111492000I-249999J0D01*
G01*
X154815999Y-111492000D01*
G75*
G02*
X154566000Y-111242001I0J249999D01*
G01*
G37*
%TD*%
%TO.C,R5*%
G36*
G01*
X143500001Y-114860500D02*
X142249999Y-114860500D01*
G75*
G02*
X142000000Y-114610501I0J249999D01*
G01*
X142000000Y-113985499D01*
G75*
G02*
X142249999Y-113735500I249999J0D01*
G01*
X143500001Y-113735500D01*
G75*
G02*
X143750000Y-113985499I0J-249999D01*
G01*
X143750000Y-114610501D01*
G75*
G02*
X143500001Y-114860500I-249999J0D01*
G01*
G37*
G36*
G01*
X143500001Y-117785500D02*
X142249999Y-117785500D01*
G75*
G02*
X142000000Y-117535501I0J249999D01*
G01*
X142000000Y-116910499D01*
G75*
G02*
X142249999Y-116660500I249999J0D01*
G01*
X143500001Y-116660500D01*
G75*
G02*
X143750000Y-116910499I0J-249999D01*
G01*
X143750000Y-117535501D01*
G75*
G02*
X143500001Y-117785500I-249999J0D01*
G01*
G37*
%TD*%
%TO.C,R4*%
G36*
G01*
X139182001Y-109717000D02*
X137931999Y-109717000D01*
G75*
G02*
X137682000Y-109467001I0J249999D01*
G01*
X137682000Y-108841999D01*
G75*
G02*
X137931999Y-108592000I249999J0D01*
G01*
X139182001Y-108592000D01*
G75*
G02*
X139432000Y-108841999I0J-249999D01*
G01*
X139432000Y-109467001D01*
G75*
G02*
X139182001Y-109717000I-249999J0D01*
G01*
G37*
G36*
G01*
X139182001Y-112642000D02*
X137931999Y-112642000D01*
G75*
G02*
X137682000Y-112392001I0J249999D01*
G01*
X137682000Y-111766999D01*
G75*
G02*
X137931999Y-111517000I249999J0D01*
G01*
X139182001Y-111517000D01*
G75*
G02*
X139432000Y-111766999I0J-249999D01*
G01*
X139432000Y-112392001D01*
G75*
G02*
X139182001Y-112642000I-249999J0D01*
G01*
G37*
%TD*%
%TO.C,R3*%
G36*
G01*
X146569000Y-89779001D02*
X146569000Y-88528999D01*
G75*
G02*
X146818999Y-88279000I249999J0D01*
G01*
X147444001Y-88279000D01*
G75*
G02*
X147694000Y-88528999I0J-249999D01*
G01*
X147694000Y-89779001D01*
G75*
G02*
X147444001Y-90029000I-249999J0D01*
G01*
X146818999Y-90029000D01*
G75*
G02*
X146569000Y-89779001I0J249999D01*
G01*
G37*
G36*
G01*
X143644000Y-89779001D02*
X143644000Y-88528999D01*
G75*
G02*
X143893999Y-88279000I249999J0D01*
G01*
X144519001Y-88279000D01*
G75*
G02*
X144769000Y-88528999I0J-249999D01*
G01*
X144769000Y-89779001D01*
G75*
G02*
X144519001Y-90029000I-249999J0D01*
G01*
X143893999Y-90029000D01*
G75*
G02*
X143644000Y-89779001I0J249999D01*
G01*
G37*
%TD*%
%TO.C,R2*%
G36*
G01*
X136134001Y-109780500D02*
X134883999Y-109780500D01*
G75*
G02*
X134634000Y-109530501I0J249999D01*
G01*
X134634000Y-108905499D01*
G75*
G02*
X134883999Y-108655500I249999J0D01*
G01*
X136134001Y-108655500D01*
G75*
G02*
X136384000Y-108905499I0J-249999D01*
G01*
X136384000Y-109530501D01*
G75*
G02*
X136134001Y-109780500I-249999J0D01*
G01*
G37*
G36*
G01*
X136134001Y-112705500D02*
X134883999Y-112705500D01*
G75*
G02*
X134634000Y-112455501I0J249999D01*
G01*
X134634000Y-111830499D01*
G75*
G02*
X134883999Y-111580500I249999J0D01*
G01*
X136134001Y-111580500D01*
G75*
G02*
X136384000Y-111830499I0J-249999D01*
G01*
X136384000Y-112455501D01*
G75*
G02*
X136134001Y-112705500I-249999J0D01*
G01*
G37*
%TD*%
%TO.C,R1*%
G36*
G01*
X139436001Y-114860500D02*
X138185999Y-114860500D01*
G75*
G02*
X137936000Y-114610501I0J249999D01*
G01*
X137936000Y-113985499D01*
G75*
G02*
X138185999Y-113735500I249999J0D01*
G01*
X139436001Y-113735500D01*
G75*
G02*
X139686000Y-113985499I0J-249999D01*
G01*
X139686000Y-114610501D01*
G75*
G02*
X139436001Y-114860500I-249999J0D01*
G01*
G37*
G36*
G01*
X139436001Y-117785500D02*
X138185999Y-117785500D01*
G75*
G02*
X137936000Y-117535501I0J249999D01*
G01*
X137936000Y-116910499D01*
G75*
G02*
X138185999Y-116660500I249999J0D01*
G01*
X139436001Y-116660500D01*
G75*
G02*
X139686000Y-116910499I0J-249999D01*
G01*
X139686000Y-117535501D01*
G75*
G02*
X139436001Y-117785500I-249999J0D01*
G01*
G37*
%TD*%
D22*
%TO.C,Q5*%
G36*
X118286500Y-79397500D02*
G01*
X121411500Y-79397500D01*
X121411500Y-79814000D01*
X122886500Y-79814000D01*
X122886500Y-80714000D01*
X121411500Y-80714000D01*
X121411500Y-81130500D01*
X118286500Y-81130500D01*
X118286500Y-79397500D01*
G37*
D23*
X122236500Y-78764000D03*
X122236500Y-81764000D03*
%TD*%
D24*
%TO.C,Q4*%
X127825500Y-121548500D03*
D25*
X125285500Y-112398500D03*
X130365500Y-112398500D03*
%TD*%
D24*
%TO.C,Q3*%
X118510000Y-95071500D03*
D25*
X121050000Y-104221500D03*
X115970000Y-104221500D03*
%TD*%
D24*
%TO.C,Q2*%
X157626000Y-87364000D03*
D25*
X155086000Y-78214000D03*
X160166000Y-78214000D03*
%TD*%
D26*
%TO.C,Q1*%
X128702500Y-83521500D03*
D27*
X137852500Y-80981500D03*
X137852500Y-86061500D03*
%TD*%
D12*
%TO.C,J6*%
X175704500Y-105099500D03*
X175704500Y-102599500D03*
X175704500Y-100099500D03*
G36*
G01*
X174979500Y-96749500D02*
X176429500Y-96749500D01*
G75*
G02*
X176679500Y-96999500I0J-250000D01*
G01*
X176679500Y-98199500D01*
G75*
G02*
X176429500Y-98449500I-250000J0D01*
G01*
X174979500Y-98449500D01*
G75*
G02*
X174729500Y-98199500I0J250000D01*
G01*
X174729500Y-96999500D01*
G75*
G02*
X174979500Y-96749500I250000J0D01*
G01*
G37*
%TD*%
D28*
%TO.C,J3*%
X111315500Y-85788500D03*
D29*
X111315500Y-80708500D03*
%TD*%
D28*
%TO.C,J2*%
X153797000Y-121539000D03*
D29*
X148717000Y-121539000D03*
%TD*%
D30*
%TO.C,J1*%
X155670000Y-106997000D03*
X153670000Y-106997000D03*
X155670000Y-104997000D03*
X153670000Y-104997000D03*
X155670000Y-102997000D03*
D31*
X153670000Y-102997000D03*
%TD*%
D32*
%TO.C,D7*%
X122237500Y-83793500D03*
X122237500Y-85243500D03*
%TD*%
%TO.C,D6*%
G36*
G01*
X128544500Y-108660250D02*
X128544500Y-107747750D01*
G75*
G02*
X128788250Y-107504000I243750J0D01*
G01*
X129275750Y-107504000D01*
G75*
G02*
X129519500Y-107747750I0J-243750D01*
G01*
X129519500Y-108660250D01*
G75*
G02*
X129275750Y-108904000I-243750J0D01*
G01*
X128788250Y-108904000D01*
G75*
G02*
X128544500Y-108660250I0J243750D01*
G01*
G37*
G36*
G01*
X126669500Y-108660250D02*
X126669500Y-107747750D01*
G75*
G02*
X126913250Y-107504000I243750J0D01*
G01*
X127400750Y-107504000D01*
G75*
G02*
X127644500Y-107747750I0J-243750D01*
G01*
X127644500Y-108660250D01*
G75*
G02*
X127400750Y-108904000I-243750J0D01*
G01*
X126913250Y-108904000D01*
G75*
G02*
X126669500Y-108660250I0J243750D01*
G01*
G37*
%TD*%
%TO.C,D5*%
G36*
G01*
X126480250Y-104145500D02*
X127392750Y-104145500D01*
G75*
G02*
X127636500Y-104389250I0J-243750D01*
G01*
X127636500Y-104876750D01*
G75*
G02*
X127392750Y-105120500I-243750J0D01*
G01*
X126480250Y-105120500D01*
G75*
G02*
X126236500Y-104876750I0J243750D01*
G01*
X126236500Y-104389250D01*
G75*
G02*
X126480250Y-104145500I243750J0D01*
G01*
G37*
G36*
G01*
X126480250Y-102270500D02*
X127392750Y-102270500D01*
G75*
G02*
X127636500Y-102514250I0J-243750D01*
G01*
X127636500Y-103001750D01*
G75*
G02*
X127392750Y-103245500I-243750J0D01*
G01*
X126480250Y-103245500D01*
G75*
G02*
X126236500Y-103001750I0J243750D01*
G01*
X126236500Y-102514250D01*
G75*
G02*
X126480250Y-102270500I243750J0D01*
G01*
G37*
%TD*%
%TO.C,D4*%
G36*
G01*
X171159500Y-110516500D02*
X171359500Y-110516500D01*
G75*
G02*
X171459500Y-110616500I0J-100000D01*
G01*
X171459500Y-110876500D01*
G75*
G02*
X171359500Y-110976500I-100000J0D01*
G01*
X171159500Y-110976500D01*
G75*
G02*
X171059500Y-110876500I0J100000D01*
G01*
X171059500Y-110616500D01*
G75*
G02*
X171159500Y-110516500I100000J0D01*
G01*
G37*
G36*
G01*
X171159500Y-109876500D02*
X171359500Y-109876500D01*
G75*
G02*
X171459500Y-109976500I0J-100000D01*
G01*
X171459500Y-110236500D01*
G75*
G02*
X171359500Y-110336500I-100000J0D01*
G01*
X171159500Y-110336500D01*
G75*
G02*
X171059500Y-110236500I0J100000D01*
G01*
X171059500Y-109976500D01*
G75*
G02*
X171159500Y-109876500I100000J0D01*
G01*
G37*
%TD*%
%TO.C,D3*%
G36*
G01*
X152426500Y-110780500D02*
X152426500Y-110580500D01*
G75*
G02*
X152526500Y-110480500I100000J0D01*
G01*
X152786500Y-110480500D01*
G75*
G02*
X152886500Y-110580500I0J-100000D01*
G01*
X152886500Y-110780500D01*
G75*
G02*
X152786500Y-110880500I-100000J0D01*
G01*
X152526500Y-110880500D01*
G75*
G02*
X152426500Y-110780500I0J100000D01*
G01*
G37*
G36*
G01*
X151786500Y-110780500D02*
X151786500Y-110580500D01*
G75*
G02*
X151886500Y-110480500I100000J0D01*
G01*
X152146500Y-110480500D01*
G75*
G02*
X152246500Y-110580500I0J-100000D01*
G01*
X152246500Y-110780500D01*
G75*
G02*
X152146500Y-110880500I-100000J0D01*
G01*
X151886500Y-110880500D01*
G75*
G02*
X151786500Y-110780500I0J100000D01*
G01*
G37*
%TD*%
%TO.C,D2*%
G36*
G01*
X144520500Y-78283750D02*
X144520500Y-79196250D01*
G75*
G02*
X144276750Y-79440000I-243750J0D01*
G01*
X143789250Y-79440000D01*
G75*
G02*
X143545500Y-79196250I0J243750D01*
G01*
X143545500Y-78283750D01*
G75*
G02*
X143789250Y-78040000I243750J0D01*
G01*
X144276750Y-78040000D01*
G75*
G02*
X144520500Y-78283750I0J-243750D01*
G01*
G37*
G36*
G01*
X146395500Y-78283750D02*
X146395500Y-79196250D01*
G75*
G02*
X146151750Y-79440000I-243750J0D01*
G01*
X145664250Y-79440000D01*
G75*
G02*
X145420500Y-79196250I0J243750D01*
G01*
X145420500Y-78283750D01*
G75*
G02*
X145664250Y-78040000I243750J0D01*
G01*
X146151750Y-78040000D01*
G75*
G02*
X146395500Y-78283750I0J-243750D01*
G01*
G37*
%TD*%
%TO.C,D1*%
G36*
G01*
X167074000Y-80085250D02*
X167074000Y-79172750D01*
G75*
G02*
X167317750Y-78929000I243750J0D01*
G01*
X167805250Y-78929000D01*
G75*
G02*
X168049000Y-79172750I0J-243750D01*
G01*
X168049000Y-80085250D01*
G75*
G02*
X167805250Y-80329000I-243750J0D01*
G01*
X167317750Y-80329000D01*
G75*
G02*
X167074000Y-80085250I0J243750D01*
G01*
G37*
G36*
G01*
X165199000Y-80085250D02*
X165199000Y-79172750D01*
G75*
G02*
X165442750Y-78929000I243750J0D01*
G01*
X165930250Y-78929000D01*
G75*
G02*
X166174000Y-79172750I0J-243750D01*
G01*
X166174000Y-80085250D01*
G75*
G02*
X165930250Y-80329000I-243750J0D01*
G01*
X165442750Y-80329000D01*
G75*
G02*
X165199000Y-80085250I0J243750D01*
G01*
G37*
%TD*%
%TO.C,C10*%
G36*
G01*
X180953500Y-112339500D02*
X179853500Y-112339500D01*
G75*
G02*
X179603500Y-112089500I0J250000D01*
G01*
X179603500Y-109989500D01*
G75*
G02*
X179853500Y-109739500I250000J0D01*
G01*
X180953500Y-109739500D01*
G75*
G02*
X181203500Y-109989500I0J-250000D01*
G01*
X181203500Y-112089500D01*
G75*
G02*
X180953500Y-112339500I-250000J0D01*
G01*
G37*
G36*
G01*
X180953500Y-115939500D02*
X179853500Y-115939500D01*
G75*
G02*
X179603500Y-115689500I0J250000D01*
G01*
X179603500Y-113589500D01*
G75*
G02*
X179853500Y-113339500I250000J0D01*
G01*
X180953500Y-113339500D01*
G75*
G02*
X181203500Y-113589500I0J-250000D01*
G01*
X181203500Y-115689500D01*
G75*
G02*
X180953500Y-115939500I-250000J0D01*
G01*
G37*
%TD*%
%TO.C,C9*%
G36*
G01*
X118801000Y-87824500D02*
X118801000Y-88324500D01*
G75*
G02*
X118576000Y-88549500I-225000J0D01*
G01*
X118126000Y-88549500D01*
G75*
G02*
X117901000Y-88324500I0J225000D01*
G01*
X117901000Y-87824500D01*
G75*
G02*
X118126000Y-87599500I225000J0D01*
G01*
X118576000Y-87599500D01*
G75*
G02*
X118801000Y-87824500I0J-225000D01*
G01*
G37*
G36*
G01*
X120351000Y-87824500D02*
X120351000Y-88324500D01*
G75*
G02*
X120126000Y-88549500I-225000J0D01*
G01*
X119676000Y-88549500D01*
G75*
G02*
X119451000Y-88324500I0J225000D01*
G01*
X119451000Y-87824500D01*
G75*
G02*
X119676000Y-87599500I225000J0D01*
G01*
X120126000Y-87599500D01*
G75*
G02*
X120351000Y-87824500I0J-225000D01*
G01*
G37*
%TD*%
%TO.C,C8*%
G36*
G01*
X163060500Y-112907000D02*
X163060500Y-113407000D01*
G75*
G02*
X162835500Y-113632000I-225000J0D01*
G01*
X162385500Y-113632000D01*
G75*
G02*
X162160500Y-113407000I0J225000D01*
G01*
X162160500Y-112907000D01*
G75*
G02*
X162385500Y-112682000I225000J0D01*
G01*
X162835500Y-112682000D01*
G75*
G02*
X163060500Y-112907000I0J-225000D01*
G01*
G37*
G36*
G01*
X164610500Y-112907000D02*
X164610500Y-113407000D01*
G75*
G02*
X164385500Y-113632000I-225000J0D01*
G01*
X163935500Y-113632000D01*
G75*
G02*
X163710500Y-113407000I0J225000D01*
G01*
X163710500Y-112907000D01*
G75*
G02*
X163935500Y-112682000I225000J0D01*
G01*
X164385500Y-112682000D01*
G75*
G02*
X164610500Y-112907000I0J-225000D01*
G01*
G37*
%TD*%
%TO.C,C7*%
G36*
G01*
X173440000Y-118483000D02*
X174540000Y-118483000D01*
G75*
G02*
X174790000Y-118733000I0J-250000D01*
G01*
X174790000Y-120833000D01*
G75*
G02*
X174540000Y-121083000I-250000J0D01*
G01*
X173440000Y-121083000D01*
G75*
G02*
X173190000Y-120833000I0J250000D01*
G01*
X173190000Y-118733000D01*
G75*
G02*
X173440000Y-118483000I250000J0D01*
G01*
G37*
G36*
G01*
X173440000Y-114883000D02*
X174540000Y-114883000D01*
G75*
G02*
X174790000Y-115133000I0J-250000D01*
G01*
X174790000Y-117233000D01*
G75*
G02*
X174540000Y-117483000I-250000J0D01*
G01*
X173440000Y-117483000D01*
G75*
G02*
X173190000Y-117233000I0J250000D01*
G01*
X173190000Y-115133000D01*
G75*
G02*
X173440000Y-114883000I250000J0D01*
G01*
G37*
%TD*%
%TO.C,C6*%
G36*
G01*
X168787000Y-116974500D02*
X169287000Y-116974500D01*
G75*
G02*
X169512000Y-117199500I0J-225000D01*
G01*
X169512000Y-117649500D01*
G75*
G02*
X169287000Y-117874500I-225000J0D01*
G01*
X168787000Y-117874500D01*
G75*
G02*
X168562000Y-117649500I0J225000D01*
G01*
X168562000Y-117199500D01*
G75*
G02*
X168787000Y-116974500I225000J0D01*
G01*
G37*
G36*
G01*
X168787000Y-115424500D02*
X169287000Y-115424500D01*
G75*
G02*
X169512000Y-115649500I0J-225000D01*
G01*
X169512000Y-116099500D01*
G75*
G02*
X169287000Y-116324500I-225000J0D01*
G01*
X168787000Y-116324500D01*
G75*
G02*
X168562000Y-116099500I0J225000D01*
G01*
X168562000Y-115649500D01*
G75*
G02*
X168787000Y-115424500I225000J0D01*
G01*
G37*
%TD*%
%TO.C,C5*%
G36*
G01*
X165156000Y-99064000D02*
X165156000Y-99564000D01*
G75*
G02*
X164931000Y-99789000I-225000J0D01*
G01*
X164481000Y-99789000D01*
G75*
G02*
X164256000Y-99564000I0J225000D01*
G01*
X164256000Y-99064000D01*
G75*
G02*
X164481000Y-98839000I225000J0D01*
G01*
X164931000Y-98839000D01*
G75*
G02*
X165156000Y-99064000I0J-225000D01*
G01*
G37*
G36*
G01*
X166706000Y-99064000D02*
X166706000Y-99564000D01*
G75*
G02*
X166481000Y-99789000I-225000J0D01*
G01*
X166031000Y-99789000D01*
G75*
G02*
X165806000Y-99564000I0J225000D01*
G01*
X165806000Y-99064000D01*
G75*
G02*
X166031000Y-98839000I225000J0D01*
G01*
X166481000Y-98839000D01*
G75*
G02*
X166706000Y-99064000I0J-225000D01*
G01*
G37*
%TD*%
%TO.C,C4*%
G36*
G01*
X170747500Y-98735000D02*
X170247500Y-98735000D01*
G75*
G02*
X170022500Y-98510000I0J225000D01*
G01*
X170022500Y-98060000D01*
G75*
G02*
X170247500Y-97835000I225000J0D01*
G01*
X170747500Y-97835000D01*
G75*
G02*
X170972500Y-98060000I0J-225000D01*
G01*
X170972500Y-98510000D01*
G75*
G02*
X170747500Y-98735000I-225000J0D01*
G01*
G37*
G36*
G01*
X170747500Y-100285000D02*
X170247500Y-100285000D01*
G75*
G02*
X170022500Y-100060000I0J225000D01*
G01*
X170022500Y-99610000D01*
G75*
G02*
X170247500Y-99385000I225000J0D01*
G01*
X170747500Y-99385000D01*
G75*
G02*
X170972500Y-99610000I0J-225000D01*
G01*
X170972500Y-100060000D01*
G75*
G02*
X170747500Y-100285000I-225000J0D01*
G01*
G37*
%TD*%
%TO.C,C3*%
G36*
G01*
X137260000Y-104367500D02*
X137060000Y-104367500D01*
G75*
G02*
X136960000Y-104267500I0J100000D01*
G01*
X136960000Y-104007500D01*
G75*
G02*
X137060000Y-103907500I100000J0D01*
G01*
X137260000Y-103907500D01*
G75*
G02*
X137360000Y-104007500I0J-100000D01*
G01*
X137360000Y-104267500D01*
G75*
G02*
X137260000Y-104367500I-100000J0D01*
G01*
G37*
G36*
G01*
X137260000Y-105007500D02*
X137060000Y-105007500D01*
G75*
G02*
X136960000Y-104907500I0J100000D01*
G01*
X136960000Y-104647500D01*
G75*
G02*
X137060000Y-104547500I100000J0D01*
G01*
X137260000Y-104547500D01*
G75*
G02*
X137360000Y-104647500I0J-100000D01*
G01*
X137360000Y-104907500D01*
G75*
G02*
X137260000Y-105007500I-100000J0D01*
G01*
G37*
%TD*%
%TO.C,C2*%
G36*
G01*
X136996500Y-102071000D02*
X137196500Y-102071000D01*
G75*
G02*
X137296500Y-102171000I0J-100000D01*
G01*
X137296500Y-102431000D01*
G75*
G02*
X137196500Y-102531000I-100000J0D01*
G01*
X136996500Y-102531000D01*
G75*
G02*
X136896500Y-102431000I0J100000D01*
G01*
X136896500Y-102171000D01*
G75*
G02*
X136996500Y-102071000I100000J0D01*
G01*
G37*
G36*
G01*
X136996500Y-101431000D02*
X137196500Y-101431000D01*
G75*
G02*
X137296500Y-101531000I0J-100000D01*
G01*
X137296500Y-101791000D01*
G75*
G02*
X137196500Y-101891000I-100000J0D01*
G01*
X136996500Y-101891000D01*
G75*
G02*
X136896500Y-101791000I0J100000D01*
G01*
X136896500Y-101531000D01*
G75*
G02*
X136996500Y-101431000I100000J0D01*
G01*
G37*
%TD*%
%TO.C,C1*%
G36*
G01*
X165985000Y-116375000D02*
X165485000Y-116375000D01*
G75*
G02*
X165260000Y-116150000I0J225000D01*
G01*
X165260000Y-115700000D01*
G75*
G02*
X165485000Y-115475000I225000J0D01*
G01*
X165985000Y-115475000D01*
G75*
G02*
X166210000Y-115700000I0J-225000D01*
G01*
X166210000Y-116150000D01*
G75*
G02*
X165985000Y-116375000I-225000J0D01*
G01*
G37*
G36*
G01*
X165985000Y-117925000D02*
X165485000Y-117925000D01*
G75*
G02*
X165260000Y-117700000I0J225000D01*
G01*
X165260000Y-117250000D01*
G75*
G02*
X165485000Y-117025000I225000J0D01*
G01*
X165985000Y-117025000D01*
G75*
G02*
X166210000Y-117250000I0J-225000D01*
G01*
X166210000Y-117700000D01*
G75*
G02*
X165985000Y-117925000I-225000J0D01*
G01*
G37*
%TD*%
M02*
