%TF.GenerationSoftware,KiCad,Pcbnew,(5.1.8)-1*%
%TF.CreationDate,2021-09-25T16:30:51+01:00*%
%TF.ProjectId,dashboard mech press,64617368-626f-4617-9264-206d65636820,rev?*%
%TF.SameCoordinates,Original*%
%TF.FileFunction,Paste,Top*%
%TF.FilePolarity,Positive*%
%FSLAX46Y46*%
G04 Gerber Fmt 4.6, Leading zero omitted, Abs format (unit mm)*
G04 Created by KiCad (PCBNEW (5.1.8)-1) date 2021-09-25 16:30:51*
%MOMM*%
%LPD*%
G01*
G04 APERTURE LIST*
%ADD10R,2.000000X1.500000*%
%ADD11R,2.000000X3.800000*%
%ADD12R,1.200000X0.400000*%
%ADD13R,0.550000X1.600000*%
%ADD14R,1.600000X0.550000*%
%ADD15C,0.100000*%
%ADD16R,1.300000X0.900000*%
%ADD17R,5.250000X4.550000*%
%ADD18R,1.100000X4.600000*%
%ADD19R,4.550000X5.250000*%
%ADD20R,4.600000X1.100000*%
%ADD21R,0.350000X0.350000*%
G04 APERTURE END LIST*
D10*
%TO.C,U7*%
X162292500Y-120255000D03*
X162292500Y-124855000D03*
X162292500Y-122555000D03*
D11*
X168592500Y-122555000D03*
%TD*%
D12*
%TO.C,U6*%
X161230000Y-107632500D03*
X161230000Y-106997500D03*
X161230000Y-106362500D03*
X161230000Y-105727500D03*
X161230000Y-105092500D03*
X161230000Y-104457500D03*
X161230000Y-103822500D03*
X161230000Y-103187500D03*
X166430000Y-103187500D03*
X166430000Y-103822500D03*
X166430000Y-104457500D03*
X166430000Y-105092500D03*
X166430000Y-105727500D03*
X166430000Y-106362500D03*
X166430000Y-106997500D03*
X166430000Y-107632500D03*
%TD*%
D13*
%TO.C,U1*%
X141808500Y-95195500D03*
X142608500Y-95195500D03*
X143408500Y-95195500D03*
X144208500Y-95195500D03*
X145008500Y-95195500D03*
X145808500Y-95195500D03*
X146608500Y-95195500D03*
X147408500Y-95195500D03*
D14*
X148858500Y-96645500D03*
X148858500Y-97445500D03*
X148858500Y-98245500D03*
X148858500Y-99045500D03*
X148858500Y-99845500D03*
X148858500Y-100645500D03*
X148858500Y-101445500D03*
X148858500Y-102245500D03*
D13*
X147408500Y-103695500D03*
X146608500Y-103695500D03*
X145808500Y-103695500D03*
X145008500Y-103695500D03*
X144208500Y-103695500D03*
X143408500Y-103695500D03*
X142608500Y-103695500D03*
X141808500Y-103695500D03*
D14*
X140358500Y-102245500D03*
X140358500Y-101445500D03*
X140358500Y-100645500D03*
X140358500Y-99845500D03*
X140358500Y-99045500D03*
X140358500Y-98245500D03*
X140358500Y-97445500D03*
X140358500Y-96645500D03*
%TD*%
%TO.C,R11*%
G36*
G01*
X159565501Y-120194500D02*
X158315499Y-120194500D01*
G75*
G02*
X158065500Y-119944501I0J249999D01*
G01*
X158065500Y-119319499D01*
G75*
G02*
X158315499Y-119069500I249999J0D01*
G01*
X159565501Y-119069500D01*
G75*
G02*
X159815500Y-119319499I0J-249999D01*
G01*
X159815500Y-119944501D01*
G75*
G02*
X159565501Y-120194500I-249999J0D01*
G01*
G37*
G36*
G01*
X159565501Y-123119500D02*
X158315499Y-123119500D01*
G75*
G02*
X158065500Y-122869501I0J249999D01*
G01*
X158065500Y-122244499D01*
G75*
G02*
X158315499Y-121994500I249999J0D01*
G01*
X159565501Y-121994500D01*
G75*
G02*
X159815500Y-122244499I0J-249999D01*
G01*
X159815500Y-122869501D01*
G75*
G02*
X159565501Y-123119500I-249999J0D01*
G01*
G37*
%TD*%
%TO.C,R10*%
G36*
G01*
X161301000Y-116449001D02*
X161301000Y-115198999D01*
G75*
G02*
X161550999Y-114949000I249999J0D01*
G01*
X162176001Y-114949000D01*
G75*
G02*
X162426000Y-115198999I0J-249999D01*
G01*
X162426000Y-116449001D01*
G75*
G02*
X162176001Y-116699000I-249999J0D01*
G01*
X161550999Y-116699000D01*
G75*
G02*
X161301000Y-116449001I0J249999D01*
G01*
G37*
G36*
G01*
X158376000Y-116449001D02*
X158376000Y-115198999D01*
G75*
G02*
X158625999Y-114949000I249999J0D01*
G01*
X159251001Y-114949000D01*
G75*
G02*
X159501000Y-115198999I0J-249999D01*
G01*
X159501000Y-116449001D01*
G75*
G02*
X159251001Y-116699000I-249999J0D01*
G01*
X158625999Y-116699000D01*
G75*
G02*
X158376000Y-116449001I0J249999D01*
G01*
G37*
%TD*%
%TO.C,R9*%
G36*
G01*
X161596500Y-109801499D02*
X161596500Y-111051501D01*
G75*
G02*
X161346501Y-111301500I-249999J0D01*
G01*
X160721499Y-111301500D01*
G75*
G02*
X160471500Y-111051501I0J249999D01*
G01*
X160471500Y-109801499D01*
G75*
G02*
X160721499Y-109551500I249999J0D01*
G01*
X161346501Y-109551500D01*
G75*
G02*
X161596500Y-109801499I0J-249999D01*
G01*
G37*
G36*
G01*
X164521500Y-109801499D02*
X164521500Y-111051501D01*
G75*
G02*
X164271501Y-111301500I-249999J0D01*
G01*
X163646499Y-111301500D01*
G75*
G02*
X163396500Y-111051501I0J249999D01*
G01*
X163396500Y-109801499D01*
G75*
G02*
X163646499Y-109551500I249999J0D01*
G01*
X164271501Y-109551500D01*
G75*
G02*
X164521500Y-109801499I0J-249999D01*
G01*
G37*
%TD*%
%TO.C,R7*%
G36*
G01*
X166992000Y-112150999D02*
X166992000Y-113401001D01*
G75*
G02*
X166742001Y-113651000I-249999J0D01*
G01*
X166116999Y-113651000D01*
G75*
G02*
X165867000Y-113401001I0J249999D01*
G01*
X165867000Y-112150999D01*
G75*
G02*
X166116999Y-111901000I249999J0D01*
G01*
X166742001Y-111901000D01*
G75*
G02*
X166992000Y-112150999I0J-249999D01*
G01*
G37*
G36*
G01*
X169917000Y-112150999D02*
X169917000Y-113401001D01*
G75*
G02*
X169667001Y-113651000I-249999J0D01*
G01*
X169041999Y-113651000D01*
G75*
G02*
X168792000Y-113401001I0J249999D01*
G01*
X168792000Y-112150999D01*
G75*
G02*
X169041999Y-111901000I249999J0D01*
G01*
X169667001Y-111901000D01*
G75*
G02*
X169917000Y-112150999I0J-249999D01*
G01*
G37*
%TD*%
%TO.C,R6*%
G36*
G01*
X157491000Y-111242001D02*
X157491000Y-109991999D01*
G75*
G02*
X157740999Y-109742000I249999J0D01*
G01*
X158366001Y-109742000D01*
G75*
G02*
X158616000Y-109991999I0J-249999D01*
G01*
X158616000Y-111242001D01*
G75*
G02*
X158366001Y-111492000I-249999J0D01*
G01*
X157740999Y-111492000D01*
G75*
G02*
X157491000Y-111242001I0J249999D01*
G01*
G37*
G36*
G01*
X154566000Y-111242001D02*
X154566000Y-109991999D01*
G75*
G02*
X154815999Y-109742000I249999J0D01*
G01*
X155441001Y-109742000D01*
G75*
G02*
X155691000Y-109991999I0J-249999D01*
G01*
X155691000Y-111242001D01*
G75*
G02*
X155441001Y-111492000I-249999J0D01*
G01*
X154815999Y-111492000D01*
G75*
G02*
X154566000Y-111242001I0J249999D01*
G01*
G37*
%TD*%
%TO.C,R5*%
G36*
G01*
X143500001Y-114860500D02*
X142249999Y-114860500D01*
G75*
G02*
X142000000Y-114610501I0J249999D01*
G01*
X142000000Y-113985499D01*
G75*
G02*
X142249999Y-113735500I249999J0D01*
G01*
X143500001Y-113735500D01*
G75*
G02*
X143750000Y-113985499I0J-249999D01*
G01*
X143750000Y-114610501D01*
G75*
G02*
X143500001Y-114860500I-249999J0D01*
G01*
G37*
G36*
G01*
X143500001Y-117785500D02*
X142249999Y-117785500D01*
G75*
G02*
X142000000Y-117535501I0J249999D01*
G01*
X142000000Y-116910499D01*
G75*
G02*
X142249999Y-116660500I249999J0D01*
G01*
X143500001Y-116660500D01*
G75*
G02*
X143750000Y-116910499I0J-249999D01*
G01*
X143750000Y-117535501D01*
G75*
G02*
X143500001Y-117785500I-249999J0D01*
G01*
G37*
%TD*%
%TO.C,R4*%
G36*
G01*
X139182001Y-109717000D02*
X137931999Y-109717000D01*
G75*
G02*
X137682000Y-109467001I0J249999D01*
G01*
X137682000Y-108841999D01*
G75*
G02*
X137931999Y-108592000I249999J0D01*
G01*
X139182001Y-108592000D01*
G75*
G02*
X139432000Y-108841999I0J-249999D01*
G01*
X139432000Y-109467001D01*
G75*
G02*
X139182001Y-109717000I-249999J0D01*
G01*
G37*
G36*
G01*
X139182001Y-112642000D02*
X137931999Y-112642000D01*
G75*
G02*
X137682000Y-112392001I0J249999D01*
G01*
X137682000Y-111766999D01*
G75*
G02*
X137931999Y-111517000I249999J0D01*
G01*
X139182001Y-111517000D01*
G75*
G02*
X139432000Y-111766999I0J-249999D01*
G01*
X139432000Y-112392001D01*
G75*
G02*
X139182001Y-112642000I-249999J0D01*
G01*
G37*
%TD*%
%TO.C,R3*%
G36*
G01*
X146569000Y-89779001D02*
X146569000Y-88528999D01*
G75*
G02*
X146818999Y-88279000I249999J0D01*
G01*
X147444001Y-88279000D01*
G75*
G02*
X147694000Y-88528999I0J-249999D01*
G01*
X147694000Y-89779001D01*
G75*
G02*
X147444001Y-90029000I-249999J0D01*
G01*
X146818999Y-90029000D01*
G75*
G02*
X146569000Y-89779001I0J249999D01*
G01*
G37*
G36*
G01*
X143644000Y-89779001D02*
X143644000Y-88528999D01*
G75*
G02*
X143893999Y-88279000I249999J0D01*
G01*
X144519001Y-88279000D01*
G75*
G02*
X144769000Y-88528999I0J-249999D01*
G01*
X144769000Y-89779001D01*
G75*
G02*
X144519001Y-90029000I-249999J0D01*
G01*
X143893999Y-90029000D01*
G75*
G02*
X143644000Y-89779001I0J249999D01*
G01*
G37*
%TD*%
%TO.C,R2*%
G36*
G01*
X136134001Y-109780500D02*
X134883999Y-109780500D01*
G75*
G02*
X134634000Y-109530501I0J249999D01*
G01*
X134634000Y-108905499D01*
G75*
G02*
X134883999Y-108655500I249999J0D01*
G01*
X136134001Y-108655500D01*
G75*
G02*
X136384000Y-108905499I0J-249999D01*
G01*
X136384000Y-109530501D01*
G75*
G02*
X136134001Y-109780500I-249999J0D01*
G01*
G37*
G36*
G01*
X136134001Y-112705500D02*
X134883999Y-112705500D01*
G75*
G02*
X134634000Y-112455501I0J249999D01*
G01*
X134634000Y-111830499D01*
G75*
G02*
X134883999Y-111580500I249999J0D01*
G01*
X136134001Y-111580500D01*
G75*
G02*
X136384000Y-111830499I0J-249999D01*
G01*
X136384000Y-112455501D01*
G75*
G02*
X136134001Y-112705500I-249999J0D01*
G01*
G37*
%TD*%
%TO.C,R1*%
G36*
G01*
X139436001Y-114860500D02*
X138185999Y-114860500D01*
G75*
G02*
X137936000Y-114610501I0J249999D01*
G01*
X137936000Y-113985499D01*
G75*
G02*
X138185999Y-113735500I249999J0D01*
G01*
X139436001Y-113735500D01*
G75*
G02*
X139686000Y-113985499I0J-249999D01*
G01*
X139686000Y-114610501D01*
G75*
G02*
X139436001Y-114860500I-249999J0D01*
G01*
G37*
G36*
G01*
X139436001Y-117785500D02*
X138185999Y-117785500D01*
G75*
G02*
X137936000Y-117535501I0J249999D01*
G01*
X137936000Y-116910499D01*
G75*
G02*
X138185999Y-116660500I249999J0D01*
G01*
X139436001Y-116660500D01*
G75*
G02*
X139686000Y-116910499I0J-249999D01*
G01*
X139686000Y-117535501D01*
G75*
G02*
X139436001Y-117785500I-249999J0D01*
G01*
G37*
%TD*%
D15*
%TO.C,Q5*%
G36*
X118286500Y-79397500D02*
G01*
X121411500Y-79397500D01*
X121411500Y-79814000D01*
X122886500Y-79814000D01*
X122886500Y-80714000D01*
X121411500Y-80714000D01*
X121411500Y-81130500D01*
X118286500Y-81130500D01*
X118286500Y-79397500D01*
G37*
D16*
X122236500Y-78764000D03*
X122236500Y-81764000D03*
%TD*%
D17*
%TO.C,Q4*%
X125050500Y-119123500D03*
X130600500Y-123973500D03*
X130600500Y-119123500D03*
X125050500Y-123973500D03*
D18*
X125285500Y-112398500D03*
X130365500Y-112398500D03*
%TD*%
D17*
%TO.C,Q3*%
X121285000Y-97496500D03*
X115735000Y-92646500D03*
X115735000Y-97496500D03*
X121285000Y-92646500D03*
D18*
X121050000Y-104221500D03*
X115970000Y-104221500D03*
%TD*%
D17*
%TO.C,Q2*%
X154851000Y-84939000D03*
X160401000Y-89789000D03*
X160401000Y-84939000D03*
X154851000Y-89789000D03*
D18*
X155086000Y-78214000D03*
X160166000Y-78214000D03*
%TD*%
D19*
%TO.C,Q1*%
X131127500Y-80746500D03*
X126277500Y-86296500D03*
X131127500Y-86296500D03*
X126277500Y-80746500D03*
D20*
X137852500Y-80981500D03*
X137852500Y-86061500D03*
%TD*%
D21*
%TO.C,D7*%
X122237500Y-83793500D03*
X122237500Y-85243500D03*
%TD*%
%TO.C,D6*%
G36*
G01*
X128544500Y-108660250D02*
X128544500Y-107747750D01*
G75*
G02*
X128788250Y-107504000I243750J0D01*
G01*
X129275750Y-107504000D01*
G75*
G02*
X129519500Y-107747750I0J-243750D01*
G01*
X129519500Y-108660250D01*
G75*
G02*
X129275750Y-108904000I-243750J0D01*
G01*
X128788250Y-108904000D01*
G75*
G02*
X128544500Y-108660250I0J243750D01*
G01*
G37*
G36*
G01*
X126669500Y-108660250D02*
X126669500Y-107747750D01*
G75*
G02*
X126913250Y-107504000I243750J0D01*
G01*
X127400750Y-107504000D01*
G75*
G02*
X127644500Y-107747750I0J-243750D01*
G01*
X127644500Y-108660250D01*
G75*
G02*
X127400750Y-108904000I-243750J0D01*
G01*
X126913250Y-108904000D01*
G75*
G02*
X126669500Y-108660250I0J243750D01*
G01*
G37*
%TD*%
%TO.C,D5*%
G36*
G01*
X126480250Y-104145500D02*
X127392750Y-104145500D01*
G75*
G02*
X127636500Y-104389250I0J-243750D01*
G01*
X127636500Y-104876750D01*
G75*
G02*
X127392750Y-105120500I-243750J0D01*
G01*
X126480250Y-105120500D01*
G75*
G02*
X126236500Y-104876750I0J243750D01*
G01*
X126236500Y-104389250D01*
G75*
G02*
X126480250Y-104145500I243750J0D01*
G01*
G37*
G36*
G01*
X126480250Y-102270500D02*
X127392750Y-102270500D01*
G75*
G02*
X127636500Y-102514250I0J-243750D01*
G01*
X127636500Y-103001750D01*
G75*
G02*
X127392750Y-103245500I-243750J0D01*
G01*
X126480250Y-103245500D01*
G75*
G02*
X126236500Y-103001750I0J243750D01*
G01*
X126236500Y-102514250D01*
G75*
G02*
X126480250Y-102270500I243750J0D01*
G01*
G37*
%TD*%
%TO.C,D4*%
G36*
G01*
X171159000Y-110612500D02*
X171360000Y-110612500D01*
G75*
G02*
X171439500Y-110692000I0J-79500D01*
G01*
X171439500Y-110851000D01*
G75*
G02*
X171360000Y-110930500I-79500J0D01*
G01*
X171159000Y-110930500D01*
G75*
G02*
X171079500Y-110851000I0J79500D01*
G01*
X171079500Y-110692000D01*
G75*
G02*
X171159000Y-110612500I79500J0D01*
G01*
G37*
G36*
G01*
X171159000Y-109922500D02*
X171360000Y-109922500D01*
G75*
G02*
X171439500Y-110002000I0J-79500D01*
G01*
X171439500Y-110161000D01*
G75*
G02*
X171360000Y-110240500I-79500J0D01*
G01*
X171159000Y-110240500D01*
G75*
G02*
X171079500Y-110161000I0J79500D01*
G01*
X171079500Y-110002000D01*
G75*
G02*
X171159000Y-109922500I79500J0D01*
G01*
G37*
%TD*%
%TO.C,D3*%
G36*
G01*
X152522500Y-110781000D02*
X152522500Y-110580000D01*
G75*
G02*
X152602000Y-110500500I79500J0D01*
G01*
X152761000Y-110500500D01*
G75*
G02*
X152840500Y-110580000I0J-79500D01*
G01*
X152840500Y-110781000D01*
G75*
G02*
X152761000Y-110860500I-79500J0D01*
G01*
X152602000Y-110860500D01*
G75*
G02*
X152522500Y-110781000I0J79500D01*
G01*
G37*
G36*
G01*
X151832500Y-110781000D02*
X151832500Y-110580000D01*
G75*
G02*
X151912000Y-110500500I79500J0D01*
G01*
X152071000Y-110500500D01*
G75*
G02*
X152150500Y-110580000I0J-79500D01*
G01*
X152150500Y-110781000D01*
G75*
G02*
X152071000Y-110860500I-79500J0D01*
G01*
X151912000Y-110860500D01*
G75*
G02*
X151832500Y-110781000I0J79500D01*
G01*
G37*
%TD*%
%TO.C,D2*%
G36*
G01*
X144520500Y-78283750D02*
X144520500Y-79196250D01*
G75*
G02*
X144276750Y-79440000I-243750J0D01*
G01*
X143789250Y-79440000D01*
G75*
G02*
X143545500Y-79196250I0J243750D01*
G01*
X143545500Y-78283750D01*
G75*
G02*
X143789250Y-78040000I243750J0D01*
G01*
X144276750Y-78040000D01*
G75*
G02*
X144520500Y-78283750I0J-243750D01*
G01*
G37*
G36*
G01*
X146395500Y-78283750D02*
X146395500Y-79196250D01*
G75*
G02*
X146151750Y-79440000I-243750J0D01*
G01*
X145664250Y-79440000D01*
G75*
G02*
X145420500Y-79196250I0J243750D01*
G01*
X145420500Y-78283750D01*
G75*
G02*
X145664250Y-78040000I243750J0D01*
G01*
X146151750Y-78040000D01*
G75*
G02*
X146395500Y-78283750I0J-243750D01*
G01*
G37*
%TD*%
%TO.C,D1*%
G36*
G01*
X167074000Y-80085250D02*
X167074000Y-79172750D01*
G75*
G02*
X167317750Y-78929000I243750J0D01*
G01*
X167805250Y-78929000D01*
G75*
G02*
X168049000Y-79172750I0J-243750D01*
G01*
X168049000Y-80085250D01*
G75*
G02*
X167805250Y-80329000I-243750J0D01*
G01*
X167317750Y-80329000D01*
G75*
G02*
X167074000Y-80085250I0J243750D01*
G01*
G37*
G36*
G01*
X165199000Y-80085250D02*
X165199000Y-79172750D01*
G75*
G02*
X165442750Y-78929000I243750J0D01*
G01*
X165930250Y-78929000D01*
G75*
G02*
X166174000Y-79172750I0J-243750D01*
G01*
X166174000Y-80085250D01*
G75*
G02*
X165930250Y-80329000I-243750J0D01*
G01*
X165442750Y-80329000D01*
G75*
G02*
X165199000Y-80085250I0J243750D01*
G01*
G37*
%TD*%
%TO.C,C10*%
G36*
G01*
X180953500Y-112339500D02*
X179853500Y-112339500D01*
G75*
G02*
X179603500Y-112089500I0J250000D01*
G01*
X179603500Y-109989500D01*
G75*
G02*
X179853500Y-109739500I250000J0D01*
G01*
X180953500Y-109739500D01*
G75*
G02*
X181203500Y-109989500I0J-250000D01*
G01*
X181203500Y-112089500D01*
G75*
G02*
X180953500Y-112339500I-250000J0D01*
G01*
G37*
G36*
G01*
X180953500Y-115939500D02*
X179853500Y-115939500D01*
G75*
G02*
X179603500Y-115689500I0J250000D01*
G01*
X179603500Y-113589500D01*
G75*
G02*
X179853500Y-113339500I250000J0D01*
G01*
X180953500Y-113339500D01*
G75*
G02*
X181203500Y-113589500I0J-250000D01*
G01*
X181203500Y-115689500D01*
G75*
G02*
X180953500Y-115939500I-250000J0D01*
G01*
G37*
%TD*%
%TO.C,C9*%
G36*
G01*
X118801000Y-87824500D02*
X118801000Y-88324500D01*
G75*
G02*
X118576000Y-88549500I-225000J0D01*
G01*
X118126000Y-88549500D01*
G75*
G02*
X117901000Y-88324500I0J225000D01*
G01*
X117901000Y-87824500D01*
G75*
G02*
X118126000Y-87599500I225000J0D01*
G01*
X118576000Y-87599500D01*
G75*
G02*
X118801000Y-87824500I0J-225000D01*
G01*
G37*
G36*
G01*
X120351000Y-87824500D02*
X120351000Y-88324500D01*
G75*
G02*
X120126000Y-88549500I-225000J0D01*
G01*
X119676000Y-88549500D01*
G75*
G02*
X119451000Y-88324500I0J225000D01*
G01*
X119451000Y-87824500D01*
G75*
G02*
X119676000Y-87599500I225000J0D01*
G01*
X120126000Y-87599500D01*
G75*
G02*
X120351000Y-87824500I0J-225000D01*
G01*
G37*
%TD*%
%TO.C,C8*%
G36*
G01*
X163060500Y-112907000D02*
X163060500Y-113407000D01*
G75*
G02*
X162835500Y-113632000I-225000J0D01*
G01*
X162385500Y-113632000D01*
G75*
G02*
X162160500Y-113407000I0J225000D01*
G01*
X162160500Y-112907000D01*
G75*
G02*
X162385500Y-112682000I225000J0D01*
G01*
X162835500Y-112682000D01*
G75*
G02*
X163060500Y-112907000I0J-225000D01*
G01*
G37*
G36*
G01*
X164610500Y-112907000D02*
X164610500Y-113407000D01*
G75*
G02*
X164385500Y-113632000I-225000J0D01*
G01*
X163935500Y-113632000D01*
G75*
G02*
X163710500Y-113407000I0J225000D01*
G01*
X163710500Y-112907000D01*
G75*
G02*
X163935500Y-112682000I225000J0D01*
G01*
X164385500Y-112682000D01*
G75*
G02*
X164610500Y-112907000I0J-225000D01*
G01*
G37*
%TD*%
%TO.C,C7*%
G36*
G01*
X173440000Y-118483000D02*
X174540000Y-118483000D01*
G75*
G02*
X174790000Y-118733000I0J-250000D01*
G01*
X174790000Y-120833000D01*
G75*
G02*
X174540000Y-121083000I-250000J0D01*
G01*
X173440000Y-121083000D01*
G75*
G02*
X173190000Y-120833000I0J250000D01*
G01*
X173190000Y-118733000D01*
G75*
G02*
X173440000Y-118483000I250000J0D01*
G01*
G37*
G36*
G01*
X173440000Y-114883000D02*
X174540000Y-114883000D01*
G75*
G02*
X174790000Y-115133000I0J-250000D01*
G01*
X174790000Y-117233000D01*
G75*
G02*
X174540000Y-117483000I-250000J0D01*
G01*
X173440000Y-117483000D01*
G75*
G02*
X173190000Y-117233000I0J250000D01*
G01*
X173190000Y-115133000D01*
G75*
G02*
X173440000Y-114883000I250000J0D01*
G01*
G37*
%TD*%
%TO.C,C6*%
G36*
G01*
X168787000Y-116974500D02*
X169287000Y-116974500D01*
G75*
G02*
X169512000Y-117199500I0J-225000D01*
G01*
X169512000Y-117649500D01*
G75*
G02*
X169287000Y-117874500I-225000J0D01*
G01*
X168787000Y-117874500D01*
G75*
G02*
X168562000Y-117649500I0J225000D01*
G01*
X168562000Y-117199500D01*
G75*
G02*
X168787000Y-116974500I225000J0D01*
G01*
G37*
G36*
G01*
X168787000Y-115424500D02*
X169287000Y-115424500D01*
G75*
G02*
X169512000Y-115649500I0J-225000D01*
G01*
X169512000Y-116099500D01*
G75*
G02*
X169287000Y-116324500I-225000J0D01*
G01*
X168787000Y-116324500D01*
G75*
G02*
X168562000Y-116099500I0J225000D01*
G01*
X168562000Y-115649500D01*
G75*
G02*
X168787000Y-115424500I225000J0D01*
G01*
G37*
%TD*%
%TO.C,C5*%
G36*
G01*
X165156000Y-99064000D02*
X165156000Y-99564000D01*
G75*
G02*
X164931000Y-99789000I-225000J0D01*
G01*
X164481000Y-99789000D01*
G75*
G02*
X164256000Y-99564000I0J225000D01*
G01*
X164256000Y-99064000D01*
G75*
G02*
X164481000Y-98839000I225000J0D01*
G01*
X164931000Y-98839000D01*
G75*
G02*
X165156000Y-99064000I0J-225000D01*
G01*
G37*
G36*
G01*
X166706000Y-99064000D02*
X166706000Y-99564000D01*
G75*
G02*
X166481000Y-99789000I-225000J0D01*
G01*
X166031000Y-99789000D01*
G75*
G02*
X165806000Y-99564000I0J225000D01*
G01*
X165806000Y-99064000D01*
G75*
G02*
X166031000Y-98839000I225000J0D01*
G01*
X166481000Y-98839000D01*
G75*
G02*
X166706000Y-99064000I0J-225000D01*
G01*
G37*
%TD*%
%TO.C,C4*%
G36*
G01*
X170747500Y-98735000D02*
X170247500Y-98735000D01*
G75*
G02*
X170022500Y-98510000I0J225000D01*
G01*
X170022500Y-98060000D01*
G75*
G02*
X170247500Y-97835000I225000J0D01*
G01*
X170747500Y-97835000D01*
G75*
G02*
X170972500Y-98060000I0J-225000D01*
G01*
X170972500Y-98510000D01*
G75*
G02*
X170747500Y-98735000I-225000J0D01*
G01*
G37*
G36*
G01*
X170747500Y-100285000D02*
X170247500Y-100285000D01*
G75*
G02*
X170022500Y-100060000I0J225000D01*
G01*
X170022500Y-99610000D01*
G75*
G02*
X170247500Y-99385000I225000J0D01*
G01*
X170747500Y-99385000D01*
G75*
G02*
X170972500Y-99610000I0J-225000D01*
G01*
X170972500Y-100060000D01*
G75*
G02*
X170747500Y-100285000I-225000J0D01*
G01*
G37*
%TD*%
%TO.C,C3*%
G36*
G01*
X137260500Y-104271500D02*
X137059500Y-104271500D01*
G75*
G02*
X136980000Y-104192000I0J79500D01*
G01*
X136980000Y-104033000D01*
G75*
G02*
X137059500Y-103953500I79500J0D01*
G01*
X137260500Y-103953500D01*
G75*
G02*
X137340000Y-104033000I0J-79500D01*
G01*
X137340000Y-104192000D01*
G75*
G02*
X137260500Y-104271500I-79500J0D01*
G01*
G37*
G36*
G01*
X137260500Y-104961500D02*
X137059500Y-104961500D01*
G75*
G02*
X136980000Y-104882000I0J79500D01*
G01*
X136980000Y-104723000D01*
G75*
G02*
X137059500Y-104643500I79500J0D01*
G01*
X137260500Y-104643500D01*
G75*
G02*
X137340000Y-104723000I0J-79500D01*
G01*
X137340000Y-104882000D01*
G75*
G02*
X137260500Y-104961500I-79500J0D01*
G01*
G37*
%TD*%
%TO.C,C2*%
G36*
G01*
X136996000Y-102167000D02*
X137197000Y-102167000D01*
G75*
G02*
X137276500Y-102246500I0J-79500D01*
G01*
X137276500Y-102405500D01*
G75*
G02*
X137197000Y-102485000I-79500J0D01*
G01*
X136996000Y-102485000D01*
G75*
G02*
X136916500Y-102405500I0J79500D01*
G01*
X136916500Y-102246500D01*
G75*
G02*
X136996000Y-102167000I79500J0D01*
G01*
G37*
G36*
G01*
X136996000Y-101477000D02*
X137197000Y-101477000D01*
G75*
G02*
X137276500Y-101556500I0J-79500D01*
G01*
X137276500Y-101715500D01*
G75*
G02*
X137197000Y-101795000I-79500J0D01*
G01*
X136996000Y-101795000D01*
G75*
G02*
X136916500Y-101715500I0J79500D01*
G01*
X136916500Y-101556500D01*
G75*
G02*
X136996000Y-101477000I79500J0D01*
G01*
G37*
%TD*%
%TO.C,C1*%
G36*
G01*
X165985000Y-116375000D02*
X165485000Y-116375000D01*
G75*
G02*
X165260000Y-116150000I0J225000D01*
G01*
X165260000Y-115700000D01*
G75*
G02*
X165485000Y-115475000I225000J0D01*
G01*
X165985000Y-115475000D01*
G75*
G02*
X166210000Y-115700000I0J-225000D01*
G01*
X166210000Y-116150000D01*
G75*
G02*
X165985000Y-116375000I-225000J0D01*
G01*
G37*
G36*
G01*
X165985000Y-117925000D02*
X165485000Y-117925000D01*
G75*
G02*
X165260000Y-117700000I0J225000D01*
G01*
X165260000Y-117250000D01*
G75*
G02*
X165485000Y-117025000I225000J0D01*
G01*
X165985000Y-117025000D01*
G75*
G02*
X166210000Y-117250000I0J-225000D01*
G01*
X166210000Y-117700000D01*
G75*
G02*
X165985000Y-117925000I-225000J0D01*
G01*
G37*
%TD*%
M02*
