M48
; DRILL file {KiCad (5.1.8)-1} date 09/25/21 16:30:57
; FORMAT={-:-/ absolute / inch / decimal}
; #@! TF.CreationDate,2021-09-25T16:30:57+01:00
; #@! TF.GenerationSoftware,Kicad,Pcbnew,(5.1.8)-1
; #@! TF.FileFunction,Plated,1,2,PTH
FMAT,2
INCH
T1C0.0157
T2C0.0315
T3C0.0374
T4C0.0433
T5C0.0512
T6C0.0984
%
G90
G05
T1
X4.3325Y-4.495
X5.345Y-4.1425
X5.3525Y-4.5525
X5.3971Y-3.7479
X5.3975Y-3.5725
X5.3975Y-3.615
X5.4001Y-3.8049
X5.405Y-3.9125
X5.4975Y-4.21
X5.5575Y-4.41
X5.6924Y-3.9149
X5.695Y-4.2575
X5.709Y-3.671
X5.7405Y-3.6155
X5.7675Y-4.475
X5.77Y-3.925
X5.795Y-3.67
X5.8525Y-3.5875
X5.9125Y-4.1375
X5.95Y-4.4675
X6.0425Y-4.325
X6.1625Y-4.2925
X6.1975Y-4.4575
X6.2425Y-4.9425
X6.245Y-4.1125
X6.485Y-3.4025
X6.5231Y-3.0056
X6.63Y-4.085
X6.8125Y-4.315
T2
X4.5225Y-4.33
X4.5225Y-4.63
X4.6225Y-4.33
X4.6225Y-4.63
X5.2025Y-3.8075
X5.2025Y-3.9996
X6.55Y-3.3
X6.55Y-3.6
X6.65Y-3.3
X6.65Y-3.6
X6.05Y-4.055
X6.05Y-4.1337
X6.05Y-4.2125
X6.1287Y-4.055
X6.1287Y-4.1337
X6.1287Y-4.2125
X5.6Y-3.2475
X5.6Y-3.3475
X5.9Y-3.2475
X5.9Y-3.3475
X5.38Y-4.815
X5.38Y-4.915
X5.68Y-4.815
X5.68Y-4.915
T3
X6.46Y-2.8175
X6.5584Y-2.8175
X6.6569Y-2.8175
X4.2625Y-4.1006
X4.2625Y-4.1991
X4.2625Y-4.2975
X6.0125Y-2.8175
X6.1109Y-2.8175
X6.2094Y-2.8175
X4.555Y-2.815
X4.6534Y-2.815
X4.7519Y-2.815
X4.8503Y-2.815
X7.1075Y-3.3425
X7.1075Y-3.4409
X7.1075Y-3.5394
X4.265Y-3.6431
X4.265Y-3.7416
X4.265Y-3.84
X4.4891Y-4.8975
X4.5875Y-4.8975
X4.6859Y-4.8975
X6.9175Y-3.8425
X6.9175Y-3.9409
X6.9175Y-4.0394
X6.9175Y-4.1378
X5.1025Y-2.8175
X5.2009Y-2.8175
X5.2994Y-2.8175
X5.5625Y-2.8175
X5.6609Y-2.8175
X5.7594Y-2.8175
T4
X6.04Y-3.71
X6.04Y-3.8872
X6.2959Y-3.71
X6.2959Y-3.8872
T5
X5.855Y-4.785
X6.055Y-4.785
X4.3825Y-3.1775
X4.3825Y-3.3775
T6
X7.0275Y-2.835
X7.04Y-4.8575
X4.235Y-4.85
X4.225Y-2.8375
T0
M30
