%TF.GenerationSoftware,KiCad,Pcbnew,(5.1.8)-1*%
%TF.CreationDate,2021-09-25T16:30:51+01:00*%
%TF.ProjectId,dashboard mech press,64617368-626f-4617-9264-206d65636820,rev?*%
%TF.SameCoordinates,Original*%
%TF.FileFunction,Legend,Bot*%
%TF.FilePolarity,Positive*%
%FSLAX46Y46*%
G04 Gerber Fmt 4.6, Leading zero omitted, Abs format (unit mm)*
G04 Created by KiCad (PCBNEW (5.1.8)-1) date 2021-09-25 16:30:51*
%MOMM*%
%LPD*%
G01*
G04 APERTURE LIST*
%ADD10C,0.150000*%
G04 APERTURE END LIST*
D10*
X175569595Y-90557452D02*
X175569595Y-88057452D01*
X174498166Y-90557452D02*
X174498166Y-89247928D01*
X174617214Y-89009833D01*
X174855309Y-88890785D01*
X175212452Y-88890785D01*
X175450547Y-89009833D01*
X175569595Y-89128880D01*
X173664833Y-88890785D02*
X172712452Y-88890785D01*
X173307690Y-88057452D02*
X173307690Y-90200309D01*
X173188642Y-90438404D01*
X172950547Y-90557452D01*
X172712452Y-90557452D01*
X172236261Y-88890785D02*
X171283880Y-88890785D01*
X171879119Y-88057452D02*
X171879119Y-90200309D01*
X171760071Y-90438404D01*
X171521976Y-90557452D01*
X171283880Y-90557452D01*
X170450547Y-88890785D02*
X170450547Y-91390785D01*
X170450547Y-89009833D02*
X170212452Y-88890785D01*
X169736261Y-88890785D01*
X169498166Y-89009833D01*
X169379119Y-89128880D01*
X169260071Y-89366976D01*
X169260071Y-90081261D01*
X169379119Y-90319357D01*
X169498166Y-90438404D01*
X169736261Y-90557452D01*
X170212452Y-90557452D01*
X170450547Y-90438404D01*
X168307690Y-90438404D02*
X168069595Y-90557452D01*
X167593404Y-90557452D01*
X167355309Y-90438404D01*
X167236261Y-90200309D01*
X167236261Y-90081261D01*
X167355309Y-89843166D01*
X167593404Y-89724119D01*
X167950547Y-89724119D01*
X168188642Y-89605071D01*
X168307690Y-89366976D01*
X168307690Y-89247928D01*
X168188642Y-89009833D01*
X167950547Y-88890785D01*
X167593404Y-88890785D01*
X167355309Y-89009833D01*
X166164833Y-90319357D02*
X166045785Y-90438404D01*
X166164833Y-90557452D01*
X166283880Y-90438404D01*
X166164833Y-90319357D01*
X166164833Y-90557452D01*
X166164833Y-89009833D02*
X166045785Y-89128880D01*
X166164833Y-89247928D01*
X166283880Y-89128880D01*
X166164833Y-89009833D01*
X166164833Y-89247928D01*
X163188642Y-87938404D02*
X165331500Y-91152690D01*
X160569595Y-87938404D02*
X162712452Y-91152690D01*
X158664833Y-88890785D02*
X158664833Y-90914595D01*
X158783880Y-91152690D01*
X158902928Y-91271738D01*
X159141023Y-91390785D01*
X159498166Y-91390785D01*
X159736261Y-91271738D01*
X158664833Y-90438404D02*
X158902928Y-90557452D01*
X159379119Y-90557452D01*
X159617214Y-90438404D01*
X159736261Y-90319357D01*
X159855309Y-90081261D01*
X159855309Y-89366976D01*
X159736261Y-89128880D01*
X159617214Y-89009833D01*
X159379119Y-88890785D01*
X158902928Y-88890785D01*
X158664833Y-89009833D01*
X157474357Y-90557452D02*
X157474357Y-88890785D01*
X157474357Y-88057452D02*
X157593404Y-88176500D01*
X157474357Y-88295547D01*
X157355309Y-88176500D01*
X157474357Y-88057452D01*
X157474357Y-88295547D01*
X156641023Y-88890785D02*
X155688642Y-88890785D01*
X156283880Y-88057452D02*
X156283880Y-90200309D01*
X156164833Y-90438404D01*
X155926738Y-90557452D01*
X155688642Y-90557452D01*
X154855309Y-90557452D02*
X154855309Y-88057452D01*
X153783880Y-90557452D02*
X153783880Y-89247928D01*
X153902928Y-89009833D01*
X154141023Y-88890785D01*
X154498166Y-88890785D01*
X154736261Y-89009833D01*
X154855309Y-89128880D01*
X151521976Y-88890785D02*
X151521976Y-90557452D01*
X152593404Y-88890785D02*
X152593404Y-90200309D01*
X152474357Y-90438404D01*
X152236261Y-90557452D01*
X151879119Y-90557452D01*
X151641023Y-90438404D01*
X151521976Y-90319357D01*
X150331500Y-90557452D02*
X150331500Y-88057452D01*
X150331500Y-89009833D02*
X150093404Y-88890785D01*
X149617214Y-88890785D01*
X149379119Y-89009833D01*
X149260071Y-89128880D01*
X149141023Y-89366976D01*
X149141023Y-90081261D01*
X149260071Y-90319357D01*
X149379119Y-90438404D01*
X149617214Y-90557452D01*
X150093404Y-90557452D01*
X150331500Y-90438404D01*
X148069595Y-90319357D02*
X147950547Y-90438404D01*
X148069595Y-90557452D01*
X148188642Y-90438404D01*
X148069595Y-90319357D01*
X148069595Y-90557452D01*
X145807690Y-90438404D02*
X146045785Y-90557452D01*
X146521976Y-90557452D01*
X146760071Y-90438404D01*
X146879119Y-90319357D01*
X146998166Y-90081261D01*
X146998166Y-89366976D01*
X146879119Y-89128880D01*
X146760071Y-89009833D01*
X146521976Y-88890785D01*
X146045785Y-88890785D01*
X145807690Y-89009833D01*
X144379119Y-90557452D02*
X144617214Y-90438404D01*
X144736261Y-90319357D01*
X144855309Y-90081261D01*
X144855309Y-89366976D01*
X144736261Y-89128880D01*
X144617214Y-89009833D01*
X144379119Y-88890785D01*
X144021976Y-88890785D01*
X143783880Y-89009833D01*
X143664833Y-89128880D01*
X143545785Y-89366976D01*
X143545785Y-90081261D01*
X143664833Y-90319357D01*
X143783880Y-90438404D01*
X144021976Y-90557452D01*
X144379119Y-90557452D01*
X142474357Y-90557452D02*
X142474357Y-88890785D01*
X142474357Y-89128880D02*
X142355309Y-89009833D01*
X142117214Y-88890785D01*
X141760071Y-88890785D01*
X141521976Y-89009833D01*
X141402928Y-89247928D01*
X141402928Y-90557452D01*
X141402928Y-89247928D02*
X141283880Y-89009833D01*
X141045785Y-88890785D01*
X140688642Y-88890785D01*
X140450547Y-89009833D01*
X140331500Y-89247928D01*
X140331500Y-90557452D01*
X137355309Y-87938404D02*
X139498166Y-91152690D01*
X135093404Y-90557452D02*
X135926738Y-89366976D01*
X136521976Y-90557452D02*
X136521976Y-88057452D01*
X135569595Y-88057452D01*
X135331500Y-88176500D01*
X135212452Y-88295547D01*
X135093404Y-88533642D01*
X135093404Y-88890785D01*
X135212452Y-89128880D01*
X135331500Y-89247928D01*
X135569595Y-89366976D01*
X136521976Y-89366976D01*
X134021976Y-90557452D02*
X134021976Y-88890785D01*
X134021976Y-88057452D02*
X134141023Y-88176500D01*
X134021976Y-88295547D01*
X133902928Y-88176500D01*
X134021976Y-88057452D01*
X134021976Y-88295547D01*
X131760071Y-90557452D02*
X131760071Y-88057452D01*
X131760071Y-90438404D02*
X131998166Y-90557452D01*
X132474357Y-90557452D01*
X132712452Y-90438404D01*
X132831500Y-90319357D01*
X132950547Y-90081261D01*
X132950547Y-89366976D01*
X132831500Y-89128880D01*
X132712452Y-89009833D01*
X132474357Y-88890785D01*
X131998166Y-88890785D01*
X131760071Y-89009833D01*
X130569595Y-90557452D02*
X130569595Y-88057452D01*
X129498166Y-90557452D02*
X129498166Y-89247928D01*
X129617214Y-89009833D01*
X129855309Y-88890785D01*
X130212452Y-88890785D01*
X130450547Y-89009833D01*
X130569595Y-89128880D01*
X127236261Y-90557452D02*
X127236261Y-89247928D01*
X127355309Y-89009833D01*
X127593404Y-88890785D01*
X128069595Y-88890785D01*
X128307690Y-89009833D01*
X127236261Y-90438404D02*
X127474357Y-90557452D01*
X128069595Y-90557452D01*
X128307690Y-90438404D01*
X128426738Y-90200309D01*
X128426738Y-89962214D01*
X128307690Y-89724119D01*
X128069595Y-89605071D01*
X127474357Y-89605071D01*
X127236261Y-89486023D01*
X125212452Y-89247928D02*
X124855309Y-89366976D01*
X124736261Y-89486023D01*
X124617214Y-89724119D01*
X124617214Y-90081261D01*
X124736261Y-90319357D01*
X124855309Y-90438404D01*
X125093404Y-90557452D01*
X126045785Y-90557452D01*
X126045785Y-88057452D01*
X125212452Y-88057452D01*
X124974357Y-88176500D01*
X124855309Y-88295547D01*
X124736261Y-88533642D01*
X124736261Y-88771738D01*
X124855309Y-89009833D01*
X124974357Y-89128880D01*
X125212452Y-89247928D01*
X126045785Y-89247928D01*
X123188642Y-90557452D02*
X123426738Y-90438404D01*
X123545785Y-90319357D01*
X123664833Y-90081261D01*
X123664833Y-89366976D01*
X123545785Y-89128880D01*
X123426738Y-89009833D01*
X123188642Y-88890785D01*
X122831500Y-88890785D01*
X122593404Y-89009833D01*
X122474357Y-89128880D01*
X122355309Y-89366976D01*
X122355309Y-90081261D01*
X122474357Y-90319357D01*
X122593404Y-90438404D01*
X122831500Y-90557452D01*
X123188642Y-90557452D01*
X120212452Y-88890785D02*
X120212452Y-90557452D01*
X121283880Y-88890785D02*
X121283880Y-90200309D01*
X121164833Y-90438404D01*
X120926738Y-90557452D01*
X120569595Y-90557452D01*
X120331500Y-90438404D01*
X120212452Y-90319357D01*
X119260071Y-88890785D02*
X118664833Y-90557452D01*
X118069595Y-88890785D02*
X118664833Y-90557452D01*
X118902928Y-91152690D01*
X119021976Y-91271738D01*
X119260071Y-91390785D01*
X116045785Y-90557452D02*
X116045785Y-89247928D01*
X116164833Y-89009833D01*
X116402928Y-88890785D01*
X116879119Y-88890785D01*
X117117214Y-89009833D01*
X116045785Y-90438404D02*
X116283880Y-90557452D01*
X116879119Y-90557452D01*
X117117214Y-90438404D01*
X117236261Y-90200309D01*
X117236261Y-89962214D01*
X117117214Y-89724119D01*
X116879119Y-89605071D01*
X116283880Y-89605071D01*
X116045785Y-89486023D01*
X114855309Y-90557452D02*
X114855309Y-88057452D01*
X113783880Y-90557452D02*
X113783880Y-89247928D01*
X113902928Y-89009833D01*
X114141023Y-88890785D01*
X114498166Y-88890785D01*
X114736261Y-89009833D01*
X114855309Y-89128880D01*
X112593404Y-90557452D02*
X112593404Y-88890785D01*
X112593404Y-88057452D02*
X112712452Y-88176500D01*
X112593404Y-88295547D01*
X112474357Y-88176500D01*
X112593404Y-88057452D01*
X112593404Y-88295547D01*
X176045785Y-94457452D02*
X176045785Y-91957452D01*
X175212452Y-93743166D01*
X174379119Y-91957452D01*
X174379119Y-94457452D01*
X172117214Y-94457452D02*
X172117214Y-93147928D01*
X172236261Y-92909833D01*
X172474357Y-92790785D01*
X172950547Y-92790785D01*
X173188642Y-92909833D01*
X172117214Y-94338404D02*
X172355309Y-94457452D01*
X172950547Y-94457452D01*
X173188642Y-94338404D01*
X173307690Y-94100309D01*
X173307690Y-93862214D01*
X173188642Y-93624119D01*
X172950547Y-93505071D01*
X172355309Y-93505071D01*
X172117214Y-93386023D01*
X169855309Y-94457452D02*
X169855309Y-91957452D01*
X169855309Y-94338404D02*
X170093404Y-94457452D01*
X170569595Y-94457452D01*
X170807690Y-94338404D01*
X170926738Y-94219357D01*
X171045785Y-93981261D01*
X171045785Y-93266976D01*
X170926738Y-93028880D01*
X170807690Y-92909833D01*
X170569595Y-92790785D01*
X170093404Y-92790785D01*
X169855309Y-92909833D01*
X167712452Y-94338404D02*
X167950547Y-94457452D01*
X168426738Y-94457452D01*
X168664833Y-94338404D01*
X168783880Y-94100309D01*
X168783880Y-93147928D01*
X168664833Y-92909833D01*
X168426738Y-92790785D01*
X167950547Y-92790785D01*
X167712452Y-92909833D01*
X167593404Y-93147928D01*
X167593404Y-93386023D01*
X168783880Y-93624119D01*
X164617214Y-94457452D02*
X164617214Y-92790785D01*
X164617214Y-91957452D02*
X164736261Y-92076500D01*
X164617214Y-92195547D01*
X164498166Y-92076500D01*
X164617214Y-91957452D01*
X164617214Y-92195547D01*
X163426738Y-92790785D02*
X163426738Y-94457452D01*
X163426738Y-93028880D02*
X163307690Y-92909833D01*
X163069595Y-92790785D01*
X162712452Y-92790785D01*
X162474357Y-92909833D01*
X162355309Y-93147928D01*
X162355309Y-94457452D01*
X159617214Y-91957452D02*
X158188642Y-91957452D01*
X158902928Y-94457452D02*
X158902928Y-91957452D01*
X156283880Y-92790785D02*
X156283880Y-94457452D01*
X157355309Y-92790785D02*
X157355309Y-94100309D01*
X157236261Y-94338404D01*
X156998166Y-94457452D01*
X156641023Y-94457452D01*
X156402928Y-94338404D01*
X156283880Y-94219357D01*
X155093404Y-92790785D02*
X155093404Y-94457452D01*
X155093404Y-93028880D02*
X154974357Y-92909833D01*
X154736261Y-92790785D01*
X154379119Y-92790785D01*
X154141023Y-92909833D01*
X154021976Y-93147928D01*
X154021976Y-94457452D01*
X152831500Y-94457452D02*
X152831500Y-92790785D01*
X152831500Y-91957452D02*
X152950547Y-92076500D01*
X152831500Y-92195547D01*
X152712452Y-92076500D01*
X152831500Y-91957452D01*
X152831500Y-92195547D01*
X151760071Y-94338404D02*
X151521976Y-94457452D01*
X151045785Y-94457452D01*
X150807690Y-94338404D01*
X150688642Y-94100309D01*
X150688642Y-93981261D01*
X150807690Y-93743166D01*
X151045785Y-93624119D01*
X151402928Y-93624119D01*
X151641023Y-93505071D01*
X151760071Y-93266976D01*
X151760071Y-93147928D01*
X151641023Y-92909833D01*
X151402928Y-92790785D01*
X151045785Y-92790785D01*
X150807690Y-92909833D01*
X149617214Y-94457452D02*
X149617214Y-92790785D01*
X149617214Y-91957452D02*
X149736261Y-92076500D01*
X149617214Y-92195547D01*
X149498166Y-92076500D01*
X149617214Y-91957452D01*
X149617214Y-92195547D01*
X147355309Y-94457452D02*
X147355309Y-93147928D01*
X147474357Y-92909833D01*
X147712452Y-92790785D01*
X148188642Y-92790785D01*
X148426738Y-92909833D01*
X147355309Y-94338404D02*
X147593404Y-94457452D01*
X148188642Y-94457452D01*
X148426738Y-94338404D01*
X148545785Y-94100309D01*
X148545785Y-93862214D01*
X148426738Y-93624119D01*
X148188642Y-93505071D01*
X147593404Y-93505071D01*
X147355309Y-93386023D01*
X143426738Y-93147928D02*
X143069595Y-93266976D01*
X142950547Y-93386023D01*
X142831500Y-93624119D01*
X142831500Y-93981261D01*
X142950547Y-94219357D01*
X143069595Y-94338404D01*
X143307690Y-94457452D01*
X144260071Y-94457452D01*
X144260071Y-91957452D01*
X143426738Y-91957452D01*
X143188642Y-92076500D01*
X143069595Y-92195547D01*
X142950547Y-92433642D01*
X142950547Y-92671738D01*
X143069595Y-92909833D01*
X143188642Y-93028880D01*
X143426738Y-93147928D01*
X144260071Y-93147928D01*
X141998166Y-92790785D02*
X141402928Y-94457452D01*
X140807690Y-92790785D02*
X141402928Y-94457452D01*
X141641023Y-95052690D01*
X141760071Y-95171738D01*
X141998166Y-95290785D01*
X137117214Y-93147928D02*
X136760071Y-93266976D01*
X136641023Y-93386023D01*
X136521976Y-93624119D01*
X136521976Y-93981261D01*
X136641023Y-94219357D01*
X136760071Y-94338404D01*
X136998166Y-94457452D01*
X137950547Y-94457452D01*
X137950547Y-91957452D01*
X137117214Y-91957452D01*
X136879119Y-92076500D01*
X136760071Y-92195547D01*
X136641023Y-92433642D01*
X136641023Y-92671738D01*
X136760071Y-92909833D01*
X136879119Y-93028880D01*
X137117214Y-93147928D01*
X137950547Y-93147928D01*
X135093404Y-94457452D02*
X135331500Y-94338404D01*
X135450547Y-94219357D01*
X135569595Y-93981261D01*
X135569595Y-93266976D01*
X135450547Y-93028880D01*
X135331500Y-92909833D01*
X135093404Y-92790785D01*
X134736261Y-92790785D01*
X134498166Y-92909833D01*
X134379119Y-93028880D01*
X134260071Y-93266976D01*
X134260071Y-93981261D01*
X134379119Y-94219357D01*
X134498166Y-94338404D01*
X134736261Y-94457452D01*
X135093404Y-94457452D01*
X132117214Y-92790785D02*
X132117214Y-94457452D01*
X133188642Y-92790785D02*
X133188642Y-94100309D01*
X133069595Y-94338404D01*
X132831500Y-94457452D01*
X132474357Y-94457452D01*
X132236261Y-94338404D01*
X132117214Y-94219357D01*
X131164833Y-92790785D02*
X130569595Y-94457452D01*
X129974357Y-92790785D02*
X130569595Y-94457452D01*
X130807690Y-95052690D01*
X130926738Y-95171738D01*
X131164833Y-95290785D01*
X127950547Y-94457452D02*
X127950547Y-93147928D01*
X128069595Y-92909833D01*
X128307690Y-92790785D01*
X128783880Y-92790785D01*
X129021976Y-92909833D01*
X127950547Y-94338404D02*
X128188642Y-94457452D01*
X128783880Y-94457452D01*
X129021976Y-94338404D01*
X129141023Y-94100309D01*
X129141023Y-93862214D01*
X129021976Y-93624119D01*
X128783880Y-93505071D01*
X128188642Y-93505071D01*
X127950547Y-93386023D01*
X126760071Y-94457452D02*
X126760071Y-91957452D01*
X125688642Y-94457452D02*
X125688642Y-93147928D01*
X125807690Y-92909833D01*
X126045785Y-92790785D01*
X126402928Y-92790785D01*
X126641023Y-92909833D01*
X126760071Y-93028880D01*
X124498166Y-94457452D02*
X124498166Y-92790785D01*
X124498166Y-91957452D02*
X124617214Y-92076500D01*
X124498166Y-92195547D01*
X124379119Y-92076500D01*
X124498166Y-91957452D01*
X124498166Y-92195547D01*
X119974357Y-94457452D02*
X120807690Y-93266976D01*
X121402928Y-94457452D02*
X121402928Y-91957452D01*
X120450547Y-91957452D01*
X120212452Y-92076500D01*
X120093404Y-92195547D01*
X119974357Y-92433642D01*
X119974357Y-92790785D01*
X120093404Y-93028880D01*
X120212452Y-93147928D01*
X120450547Y-93266976D01*
X121402928Y-93266976D01*
X118902928Y-94457452D02*
X118902928Y-92790785D01*
X118902928Y-91957452D02*
X119021976Y-92076500D01*
X118902928Y-92195547D01*
X118783880Y-92076500D01*
X118902928Y-91957452D01*
X118902928Y-92195547D01*
X116641023Y-94457452D02*
X116641023Y-91957452D01*
X116641023Y-94338404D02*
X116879119Y-94457452D01*
X117355309Y-94457452D01*
X117593404Y-94338404D01*
X117712452Y-94219357D01*
X117831500Y-93981261D01*
X117831500Y-93266976D01*
X117712452Y-93028880D01*
X117593404Y-92909833D01*
X117355309Y-92790785D01*
X116879119Y-92790785D01*
X116641023Y-92909833D01*
X115450547Y-94457452D02*
X115450547Y-91957452D01*
X114379119Y-94457452D02*
X114379119Y-93147928D01*
X114498166Y-92909833D01*
X114736261Y-92790785D01*
X115093404Y-92790785D01*
X115331500Y-92909833D01*
X115450547Y-93028880D01*
X112117214Y-94457452D02*
X112117214Y-93147928D01*
X112236261Y-92909833D01*
X112474357Y-92790785D01*
X112950547Y-92790785D01*
X113188642Y-92909833D01*
X112117214Y-94338404D02*
X112355309Y-94457452D01*
X112950547Y-94457452D01*
X113188642Y-94338404D01*
X113307690Y-94100309D01*
X113307690Y-93862214D01*
X113188642Y-93624119D01*
X112950547Y-93505071D01*
X112355309Y-93505071D01*
X112117214Y-93386023D01*
M02*
