%TF.GenerationSoftware,KiCad,Pcbnew,(5.1.8)-1*%
%TF.CreationDate,2021-09-25T16:30:51+01:00*%
%TF.ProjectId,dashboard mech press,64617368-626f-4617-9264-206d65636820,rev?*%
%TF.SameCoordinates,Original*%
%TF.FileFunction,Copper,L2,Bot*%
%TF.FilePolarity,Positive*%
%FSLAX46Y46*%
G04 Gerber Fmt 4.6, Leading zero omitted, Abs format (unit mm)*
G04 Created by KiCad (PCBNEW (5.1.8)-1) date 2021-09-25 16:30:51*
%MOMM*%
%LPD*%
G01*
G04 APERTURE LIST*
%TA.AperFunction,ComponentPad*%
%ADD10O,1.700000X1.950000*%
%TD*%
%TA.AperFunction,ComponentPad*%
%ADD11C,5.000000*%
%TD*%
%TA.AperFunction,ComponentPad*%
%ADD12O,1.950000X1.700000*%
%TD*%
%TA.AperFunction,ComponentPad*%
%ADD13C,1.500000*%
%TD*%
%TA.AperFunction,ComponentPad*%
%ADD14O,1.600000X1.600000*%
%TD*%
%TA.AperFunction,ComponentPad*%
%ADD15R,1.600000X1.600000*%
%TD*%
%TA.AperFunction,ComponentPad*%
%ADD16C,2.000000*%
%TD*%
%TA.AperFunction,ComponentPad*%
%ADD17C,2.600000*%
%TD*%
%TA.AperFunction,ComponentPad*%
%ADD18R,2.600000X2.600000*%
%TD*%
%TA.AperFunction,ComponentPad*%
%ADD19O,1.350000X1.350000*%
%TD*%
%TA.AperFunction,ComponentPad*%
%ADD20R,1.350000X1.350000*%
%TD*%
%TA.AperFunction,ViaPad*%
%ADD21C,0.800000*%
%TD*%
%TA.AperFunction,Conductor*%
%ADD22C,0.450000*%
%TD*%
%TA.AperFunction,Conductor*%
%ADD23C,0.700000*%
%TD*%
%TA.AperFunction,Conductor*%
%ADD24C,0.250000*%
%TD*%
%TA.AperFunction,Conductor*%
%ADD25C,0.254000*%
%TD*%
%TA.AperFunction,Conductor*%
%ADD26C,0.100000*%
%TD*%
G04 APERTURE END LIST*
D10*
%TO.P,J4,4*%
%TO.N,GND*%
X123197000Y-71501000D03*
%TO.P,J4,3*%
%TO.N,RX*%
X120697000Y-71501000D03*
%TO.P,J4,2*%
%TO.N,TX*%
X118197000Y-71501000D03*
%TO.P,J4,1*%
%TO.N,+5*%
%TA.AperFunction,ComponentPad*%
G36*
G01*
X114847000Y-72226000D02*
X114847000Y-70776000D01*
G75*
G02*
X115097000Y-70526000I250000J0D01*
G01*
X116297000Y-70526000D01*
G75*
G02*
X116547000Y-70776000I0J-250000D01*
G01*
X116547000Y-72226000D01*
G75*
G02*
X116297000Y-72476000I-250000J0D01*
G01*
X115097000Y-72476000D01*
G75*
G02*
X114847000Y-72226000I0J250000D01*
G01*
G37*
%TD.AperFunction*%
%TD*%
D11*
%TO.P,H4,1*%
%TO.N,N/C*%
X107569000Y-123190000D03*
%TD*%
%TO.P,H3,1*%
%TO.N,N/C*%
X107315000Y-72072500D03*
%TD*%
%TO.P,H2,1*%
%TO.N,N/C*%
X178816000Y-123380500D03*
%TD*%
%TO.P,H1,1*%
%TO.N,N/C*%
X178498500Y-72009000D03*
%TD*%
D10*
%TO.P,J14,3*%
%TO.N,GND*%
X134603500Y-71564500D03*
%TO.P,J14,2*%
%TO.N,AP5*%
X132103500Y-71564500D03*
%TO.P,J14,1*%
%TO.N,+5*%
%TA.AperFunction,ComponentPad*%
G36*
G01*
X128753500Y-72289500D02*
X128753500Y-70839500D01*
G75*
G02*
X129003500Y-70589500I250000J0D01*
G01*
X130203500Y-70589500D01*
G75*
G02*
X130453500Y-70839500I0J-250000D01*
G01*
X130453500Y-72289500D01*
G75*
G02*
X130203500Y-72539500I-250000J0D01*
G01*
X129003500Y-72539500D01*
G75*
G02*
X128753500Y-72289500I0J250000D01*
G01*
G37*
%TD.AperFunction*%
%TD*%
%TO.P,J13,3*%
%TO.N,+5*%
X114022500Y-124396500D03*
%TO.P,J13,2*%
%TO.N,DP5*%
X116522500Y-124396500D03*
%TO.P,J13,1*%
%TO.N,GND*%
%TA.AperFunction,ComponentPad*%
G36*
G01*
X119872500Y-123671500D02*
X119872500Y-125121500D01*
G75*
G02*
X119622500Y-125371500I-250000J0D01*
G01*
X118422500Y-125371500D01*
G75*
G02*
X118172500Y-125121500I0J250000D01*
G01*
X118172500Y-123671500D01*
G75*
G02*
X118422500Y-123421500I250000J0D01*
G01*
X119622500Y-123421500D01*
G75*
G02*
X119872500Y-123671500I0J-250000D01*
G01*
G37*
%TD.AperFunction*%
%TD*%
%TO.P,J12,3*%
%TO.N,GND*%
X146287500Y-71564500D03*
%TO.P,J12,2*%
%TO.N,AP4*%
X143787500Y-71564500D03*
%TO.P,J12,1*%
%TO.N,+5*%
%TA.AperFunction,ComponentPad*%
G36*
G01*
X140437500Y-72289500D02*
X140437500Y-70839500D01*
G75*
G02*
X140687500Y-70589500I250000J0D01*
G01*
X141887500Y-70589500D01*
G75*
G02*
X142137500Y-70839500I0J-250000D01*
G01*
X142137500Y-72289500D01*
G75*
G02*
X141887500Y-72539500I-250000J0D01*
G01*
X140687500Y-72539500D01*
G75*
G02*
X140437500Y-72289500I0J250000D01*
G01*
G37*
%TD.AperFunction*%
%TD*%
D12*
%TO.P,J11,3*%
%TO.N,GND*%
X108267500Y-104156500D03*
%TO.P,J11,2*%
%TO.N,DP4*%
X108267500Y-106656500D03*
%TO.P,J11,1*%
%TO.N,+5*%
%TA.AperFunction,ComponentPad*%
G36*
G01*
X108992500Y-110006500D02*
X107542500Y-110006500D01*
G75*
G02*
X107292500Y-109756500I0J250000D01*
G01*
X107292500Y-108556500D01*
G75*
G02*
X107542500Y-108306500I250000J0D01*
G01*
X108992500Y-108306500D01*
G75*
G02*
X109242500Y-108556500I0J-250000D01*
G01*
X109242500Y-109756500D01*
G75*
G02*
X108992500Y-110006500I-250000J0D01*
G01*
G37*
%TD.AperFunction*%
%TD*%
D10*
%TO.P,J10,3*%
%TO.N,GND*%
X157717500Y-71564500D03*
%TO.P,J10,2*%
%TO.N,AP3*%
X155217500Y-71564500D03*
%TO.P,J10,1*%
%TO.N,+5*%
%TA.AperFunction,ComponentPad*%
G36*
G01*
X151867500Y-72289500D02*
X151867500Y-70839500D01*
G75*
G02*
X152117500Y-70589500I250000J0D01*
G01*
X153317500Y-70589500D01*
G75*
G02*
X153567500Y-70839500I0J-250000D01*
G01*
X153567500Y-72289500D01*
G75*
G02*
X153317500Y-72539500I-250000J0D01*
G01*
X152117500Y-72539500D01*
G75*
G02*
X151867500Y-72289500I0J250000D01*
G01*
G37*
%TD.AperFunction*%
%TD*%
D12*
%TO.P,J9,3*%
%TO.N,GND*%
X108331000Y-92536000D03*
%TO.P,J9,2*%
%TO.N,DP3*%
X108331000Y-95036000D03*
%TO.P,J9,1*%
%TO.N,+5*%
%TA.AperFunction,ComponentPad*%
G36*
G01*
X109056000Y-98386000D02*
X107606000Y-98386000D01*
G75*
G02*
X107356000Y-98136000I0J250000D01*
G01*
X107356000Y-96936000D01*
G75*
G02*
X107606000Y-96686000I250000J0D01*
G01*
X109056000Y-96686000D01*
G75*
G02*
X109306000Y-96936000I0J-250000D01*
G01*
X109306000Y-98136000D01*
G75*
G02*
X109056000Y-98386000I-250000J0D01*
G01*
G37*
%TD.AperFunction*%
%TD*%
D10*
%TO.P,J8,3*%
%TO.N,GND*%
X169084000Y-71564500D03*
%TO.P,J8,2*%
%TO.N,AP2*%
X166584000Y-71564500D03*
%TO.P,J8,1*%
%TO.N,+5*%
%TA.AperFunction,ComponentPad*%
G36*
G01*
X163234000Y-72289500D02*
X163234000Y-70839500D01*
G75*
G02*
X163484000Y-70589500I250000J0D01*
G01*
X164684000Y-70589500D01*
G75*
G02*
X164934000Y-70839500I0J-250000D01*
G01*
X164934000Y-72289500D01*
G75*
G02*
X164684000Y-72539500I-250000J0D01*
G01*
X163484000Y-72539500D01*
G75*
G02*
X163234000Y-72289500I0J250000D01*
G01*
G37*
%TD.AperFunction*%
%TD*%
D12*
%TO.P,J5,3*%
%TO.N,+5*%
X180530500Y-89899500D03*
%TO.P,J5,2*%
%TO.N,AP1*%
X180530500Y-87399500D03*
%TO.P,J5,1*%
%TO.N,GND*%
%TA.AperFunction,ComponentPad*%
G36*
G01*
X179805500Y-84049500D02*
X181255500Y-84049500D01*
G75*
G02*
X181505500Y-84299500I0J-250000D01*
G01*
X181505500Y-85499500D01*
G75*
G02*
X181255500Y-85749500I-250000J0D01*
G01*
X179805500Y-85749500D01*
G75*
G02*
X179555500Y-85499500I0J250000D01*
G01*
X179555500Y-84299500D01*
G75*
G02*
X179805500Y-84049500I250000J0D01*
G01*
G37*
%TD.AperFunction*%
%TD*%
D13*
%TO.P,Y1,2*%
%TO.N,Net-(C3-Pad2)*%
X132143500Y-101590500D03*
%TO.P,Y1,1*%
%TO.N,Net-(C2-Pad2)*%
X132143500Y-96710500D03*
%TD*%
D14*
%TO.P,U5,4*%
%TO.N,Net-(Q4-Pad1)*%
X136652000Y-124841000D03*
%TO.P,U5,2*%
%TO.N,GNDPWR*%
X144272000Y-122301000D03*
%TO.P,U5,3*%
%TO.N,GND*%
X136652000Y-122301000D03*
D15*
%TO.P,U5,1*%
%TO.N,Net-(R5-Pad1)*%
X144272000Y-124841000D03*
%TD*%
D14*
%TO.P,U4,4*%
%TO.N,+24V*%
X114871500Y-109982000D03*
%TO.P,U4,2*%
%TO.N,GNDPWR*%
X117411500Y-117602000D03*
%TO.P,U4,3*%
%TO.N,Net-(Q3-Pad1)*%
X117411500Y-109982000D03*
D15*
%TO.P,U4,1*%
%TO.N,Net-(R4-Pad1)*%
X114871500Y-117602000D03*
%TD*%
D14*
%TO.P,U3,4*%
%TO.N,Net-(Q2-Pad1)*%
X166370000Y-83820000D03*
%TO.P,U3,2*%
%TO.N,GNDPWR*%
X168910000Y-91440000D03*
%TO.P,U3,3*%
%TO.N,GND*%
X168910000Y-83820000D03*
D15*
%TO.P,U3,1*%
%TO.N,Net-(R2-Pad1)*%
X166370000Y-91440000D03*
%TD*%
D14*
%TO.P,U2,4*%
%TO.N,+24V*%
X142240000Y-85026500D03*
%TO.P,U2,2*%
%TO.N,GNDPWR*%
X149860000Y-82486500D03*
%TO.P,U2,3*%
%TO.N,Net-(Q1-Pad1)*%
X142240000Y-82486500D03*
D15*
%TO.P,U2,1*%
%TO.N,Net-(R1-Pad1)*%
X149860000Y-85026500D03*
%TD*%
D16*
%TO.P,SW1,1*%
%TO.N,RST*%
X159916000Y-94234000D03*
%TO.P,SW1,2*%
%TO.N,GND*%
X159916000Y-98734000D03*
%TO.P,SW1,1*%
%TO.N,RST*%
X153416000Y-94234000D03*
%TO.P,SW1,2*%
%TO.N,GND*%
X153416000Y-98734000D03*
%TD*%
D12*
%TO.P,J6,4*%
%TO.N,X+*%
X175704500Y-105099500D03*
%TO.P,J6,3*%
%TO.N,Y+*%
X175704500Y-102599500D03*
%TO.P,J6,2*%
%TO.N,X-*%
X175704500Y-100099500D03*
%TO.P,J6,1*%
%TO.N,Y-*%
%TA.AperFunction,ComponentPad*%
G36*
G01*
X174979500Y-96749500D02*
X176429500Y-96749500D01*
G75*
G02*
X176679500Y-96999500I0J-250000D01*
G01*
X176679500Y-98199500D01*
G75*
G02*
X176429500Y-98449500I-250000J0D01*
G01*
X174979500Y-98449500D01*
G75*
G02*
X174729500Y-98199500I0J250000D01*
G01*
X174729500Y-96999500D01*
G75*
G02*
X174979500Y-96749500I250000J0D01*
G01*
G37*
%TD.AperFunction*%
%TD*%
D17*
%TO.P,J3,2*%
%TO.N,GND*%
X111315500Y-85788500D03*
D18*
%TO.P,J3,1*%
%TO.N,Net-(J3-Pad1)*%
X111315500Y-80708500D03*
%TD*%
D17*
%TO.P,J2,2*%
%TO.N,M+*%
X153797000Y-121539000D03*
D18*
%TO.P,J2,1*%
%TO.N,M-*%
X148717000Y-121539000D03*
%TD*%
D19*
%TO.P,J1,6*%
%TO.N,GND*%
X155670000Y-106997000D03*
%TO.P,J1,5*%
%TO.N,~SS*%
X153670000Y-106997000D03*
%TO.P,J1,4*%
%TO.N,MOSI*%
X155670000Y-104997000D03*
%TO.P,J1,3*%
%TO.N,CLK*%
X153670000Y-104997000D03*
%TO.P,J1,2*%
%TO.N,+5*%
X155670000Y-102997000D03*
D20*
%TO.P,J1,1*%
%TO.N,MISO*%
X153670000Y-102997000D03*
%TD*%
D21*
%TO.N,+5*%
X144587500Y-99439000D03*
X148653500Y-91122500D03*
%TO.N,GND*%
X135763000Y-105219500D03*
X153479500Y-109855000D03*
X168402000Y-103759000D03*
X173037500Y-109601000D03*
X146558000Y-99695000D03*
%TO.N,+24V*%
X110045500Y-114173000D03*
X158559500Y-125539500D03*
%TO.N,M+*%
X165686500Y-76342000D03*
%TO.N,M-*%
X139636500Y-106934000D03*
X144653000Y-108140500D03*
%TO.N,CLK*%
X157416500Y-113220500D03*
%TO.N,MISO*%
X150177500Y-105092500D03*
%TO.N,DP5*%
X137287000Y-99377500D03*
%TO.N,DP4*%
X137161500Y-96645500D03*
%TO.N,DP3*%
X137087500Y-95195500D03*
%TO.N,AP5*%
X145008500Y-93243500D03*
%TO.N,AP4*%
X145808500Y-91833500D03*
%TO.N,AP3*%
X147193000Y-93218000D03*
%TO.N,AP2*%
X164719000Y-86423500D03*
%TO.N,Net-(R1-Pad1)*%
X146494500Y-113665000D03*
%TO.N,Net-(R2-Pad1)*%
X135953500Y-115633500D03*
%TO.N,Net-(R4-Pad1)*%
X141160500Y-112014000D03*
%TO.N,INTERRUPT*%
X156527500Y-109029500D03*
X158623000Y-104457500D03*
%TO.N,GNDPWR*%
X151130000Y-113474500D03*
%TO.N,TX*%
X137096500Y-91821000D03*
%TO.N,RX*%
X137096500Y-90741500D03*
%TD*%
D22*
%TO.N,+5*%
X180530500Y-89899500D02*
X179434500Y-89899500D01*
X179434500Y-89899500D02*
X172593000Y-83058000D01*
X172593000Y-83058000D02*
X172593000Y-70866000D01*
X172593000Y-70866000D02*
X170180000Y-68453000D01*
X170180000Y-68453000D02*
X165100000Y-68453000D01*
X164084000Y-69469000D02*
X164084000Y-71564500D01*
X165100000Y-68453000D02*
X164084000Y-69469000D01*
X144587500Y-99439000D02*
X145353500Y-99439000D01*
X145353500Y-99439000D02*
X148653500Y-96139000D01*
X148653500Y-96139000D02*
X148653500Y-91122500D01*
X148653500Y-91122500D02*
X148653500Y-91122500D01*
D23*
%TO.N,+24V*%
X110045500Y-114173000D02*
X110519001Y-114646501D01*
X110519001Y-114646501D02*
X111379000Y-115506500D01*
X111379000Y-115506500D02*
X111379000Y-123716491D01*
X111379000Y-123716491D02*
X111379000Y-125285500D01*
X111379000Y-125285500D02*
X114681000Y-128587500D01*
X114681000Y-128587500D02*
X155511500Y-128587500D01*
X155511500Y-128587500D02*
X158559500Y-125539500D01*
X158559500Y-125539500D02*
X158559500Y-125539500D01*
%TO.N,M+*%
X171577000Y-103759000D02*
X153797000Y-121539000D01*
X171577000Y-80200500D02*
X171577000Y-103759000D01*
X167718500Y-76342000D02*
X171577000Y-80200500D01*
X165686500Y-76342000D02*
X167718500Y-76342000D01*
%TO.N,M-*%
X148463000Y-121285000D02*
X148717000Y-121539000D01*
X139636500Y-106934000D02*
X143446500Y-106934000D01*
X143446500Y-106934000D02*
X144653000Y-108140500D01*
X144653000Y-108140500D02*
X144653000Y-108140500D01*
D24*
%TO.N,CLK*%
X153670000Y-104997000D02*
X152051000Y-104997000D01*
X152051000Y-104997000D02*
X151447500Y-105600500D01*
X151447500Y-105600500D02*
X151447500Y-110934500D01*
X151447500Y-110934500D02*
X153733500Y-113220500D01*
X153733500Y-113220500D02*
X157416500Y-113220500D01*
X157416500Y-113220500D02*
X157416500Y-113220500D01*
%TO.N,MISO*%
X153670000Y-102997000D02*
X152273000Y-102997000D01*
X152273000Y-102997000D02*
X150177500Y-105092500D01*
X150177500Y-105092500D02*
X150177500Y-105092500D01*
%TO.N,DP5*%
X116522500Y-124396500D02*
X116522500Y-122428000D01*
X116522500Y-122428000D02*
X112141000Y-118046500D01*
X112141000Y-118046500D02*
X112141000Y-116586000D01*
X112141000Y-116586000D02*
X112141000Y-114173000D01*
X112141000Y-114173000D02*
X112141000Y-106426000D01*
X112141000Y-106426000D02*
X114617500Y-103949500D01*
X114617500Y-103949500D02*
X132715000Y-103949500D01*
X132715000Y-103949500D02*
X137287000Y-99377500D01*
X137287000Y-99377500D02*
X137287000Y-99377500D01*
%TO.N,DP4*%
X137161500Y-96645500D02*
X135193000Y-96645500D01*
X135193000Y-96645500D02*
X132334000Y-99504500D01*
X115419500Y-99504500D02*
X108267500Y-106656500D01*
X132334000Y-99504500D02*
X115419500Y-99504500D01*
%TO.N,DP3*%
X108490500Y-95195500D02*
X108331000Y-95036000D01*
X137087500Y-95195500D02*
X108490500Y-95195500D01*
%TO.N,AP5*%
X145008500Y-93243500D02*
X143091000Y-93243500D01*
X143091000Y-93243500D02*
X132143500Y-82296000D01*
X132143500Y-71604500D02*
X132103500Y-71564500D01*
X132143500Y-82296000D02*
X132143500Y-71604500D01*
%TO.N,AP4*%
X145808500Y-91833500D02*
X145808500Y-76784000D01*
X143787500Y-74763000D02*
X143787500Y-71564500D01*
X145808500Y-76784000D02*
X143787500Y-74763000D01*
%TO.N,AP3*%
X147002500Y-93027500D02*
X147193000Y-93218000D01*
X147002500Y-79779500D02*
X147002500Y-93027500D01*
X155217500Y-71564500D02*
X147002500Y-79779500D01*
%TO.N,AP2*%
X164719000Y-73429500D02*
X166584000Y-71564500D01*
X164719000Y-86423500D02*
X164719000Y-73429500D01*
%TO.N,Net-(R1-Pad1)*%
X146494500Y-105791000D02*
X146494500Y-113665000D01*
X149860000Y-102425500D02*
X146494500Y-105791000D01*
X149860000Y-85026500D02*
X149860000Y-102425500D01*
%TO.N,Net-(R2-Pad1)*%
X135953500Y-115633500D02*
X135890000Y-115633500D01*
X166370000Y-91440000D02*
X166370000Y-106870500D01*
X157607000Y-115633500D02*
X135953500Y-115633500D01*
X166370000Y-106870500D02*
X157607000Y-115633500D01*
%TO.N,Net-(R4-Pad1)*%
X114871500Y-117602000D02*
X114871500Y-117538500D01*
X114871500Y-117538500D02*
X120396000Y-112014000D01*
X120396000Y-112014000D02*
X141160500Y-112014000D01*
X141160500Y-112014000D02*
X141160500Y-112014000D01*
%TO.N,INTERRUPT*%
X156527500Y-109029500D02*
X158305500Y-107251500D01*
X158305500Y-107251500D02*
X158305500Y-104775000D01*
X158305500Y-104775000D02*
X158623000Y-104457500D01*
X158623000Y-104457500D02*
X158623000Y-104457500D01*
D23*
%TO.N,GNDPWR*%
X139573000Y-117602000D02*
X144272000Y-122301000D01*
X117411500Y-117602000D02*
X139573000Y-117602000D01*
X149860000Y-82486500D02*
X151257000Y-83883500D01*
X149327499Y-104482001D02*
X149327499Y-111227499D01*
X151257000Y-102552500D02*
X149327499Y-104482001D01*
X149327499Y-111227499D02*
X151130000Y-113030000D01*
X151130000Y-113030000D02*
X151130000Y-113474500D01*
X151130000Y-113474500D02*
X151130000Y-113474500D01*
X151257000Y-88709500D02*
X166179500Y-88709500D01*
X151257000Y-83883500D02*
X151257000Y-88709500D01*
X166179500Y-88709500D02*
X168910000Y-91440000D01*
X151257000Y-88709500D02*
X151257000Y-102552500D01*
D24*
%TO.N,TX*%
X137096500Y-91821000D02*
X131699000Y-91821000D01*
X118197000Y-78319000D02*
X118197000Y-71501000D01*
X131699000Y-91821000D02*
X118197000Y-78319000D01*
%TO.N,RX*%
X137096500Y-90741500D02*
X133413500Y-90741500D01*
X120697000Y-78025000D02*
X120697000Y-71501000D01*
X133413500Y-90741500D02*
X120697000Y-78025000D01*
%TD*%
D25*
%TO.N,GND*%
X178816791Y-66899068D02*
X179684678Y-67107430D01*
X180509275Y-67448989D01*
X181270299Y-67915345D01*
X181948994Y-68495006D01*
X182528655Y-69173701D01*
X182995009Y-69934720D01*
X183336570Y-70759322D01*
X183544931Y-71627207D01*
X183617000Y-72542926D01*
X183617001Y-123291061D01*
X183544931Y-124206793D01*
X183336570Y-125074678D01*
X182995009Y-125899280D01*
X182528655Y-126660299D01*
X181948994Y-127338994D01*
X181270299Y-127918655D01*
X180509275Y-128385011D01*
X179684678Y-128726570D01*
X178816791Y-128934932D01*
X177901074Y-129007000D01*
X156485000Y-129007000D01*
X159025071Y-126466930D01*
X159049756Y-126456705D01*
X159219274Y-126343437D01*
X159363437Y-126199274D01*
X159476705Y-126029756D01*
X159554726Y-125841398D01*
X159594500Y-125641439D01*
X159594500Y-125437561D01*
X159554726Y-125237602D01*
X159476705Y-125049244D01*
X159363437Y-124879726D01*
X159219274Y-124735563D01*
X159049756Y-124622295D01*
X158861398Y-124544274D01*
X158661439Y-124504500D01*
X158457561Y-124504500D01*
X158257602Y-124544274D01*
X158069244Y-124622295D01*
X157899726Y-124735563D01*
X157755563Y-124879726D01*
X157642295Y-125049244D01*
X157632070Y-125073929D01*
X155103500Y-127602500D01*
X115089000Y-127602500D01*
X113312114Y-125825614D01*
X113451466Y-125900099D01*
X113731389Y-125985013D01*
X114022500Y-126013685D01*
X114313610Y-125985013D01*
X114593533Y-125900099D01*
X114851513Y-125762206D01*
X115077634Y-125576634D01*
X115263206Y-125350514D01*
X115272500Y-125333126D01*
X115281794Y-125350513D01*
X115467366Y-125576634D01*
X115693486Y-125762206D01*
X115951466Y-125900099D01*
X116231389Y-125985013D01*
X116522500Y-126013685D01*
X116813610Y-125985013D01*
X117093533Y-125900099D01*
X117351513Y-125762206D01*
X117572445Y-125580892D01*
X117582998Y-125615680D01*
X117641963Y-125725994D01*
X117721315Y-125822685D01*
X117818006Y-125902037D01*
X117928320Y-125961002D01*
X118048018Y-125997312D01*
X118172500Y-126009572D01*
X118736750Y-126006500D01*
X118895500Y-125847750D01*
X118895500Y-124523500D01*
X119149500Y-124523500D01*
X119149500Y-125847750D01*
X119308250Y-126006500D01*
X119872500Y-126009572D01*
X119996982Y-125997312D01*
X120116680Y-125961002D01*
X120226994Y-125902037D01*
X120323685Y-125822685D01*
X120403037Y-125725994D01*
X120462002Y-125615680D01*
X120498312Y-125495982D01*
X120510572Y-125371500D01*
X120507578Y-124699665D01*
X135217000Y-124699665D01*
X135217000Y-124982335D01*
X135272147Y-125259574D01*
X135380320Y-125520727D01*
X135537363Y-125755759D01*
X135737241Y-125955637D01*
X135972273Y-126112680D01*
X136233426Y-126220853D01*
X136510665Y-126276000D01*
X136793335Y-126276000D01*
X137070574Y-126220853D01*
X137331727Y-126112680D01*
X137566759Y-125955637D01*
X137766637Y-125755759D01*
X137923680Y-125520727D01*
X138031853Y-125259574D01*
X138087000Y-124982335D01*
X138087000Y-124699665D01*
X138031853Y-124422426D01*
X137923680Y-124161273D01*
X137766637Y-123926241D01*
X137566759Y-123726363D01*
X137331727Y-123569320D01*
X137321135Y-123564933D01*
X137507131Y-123453385D01*
X137715519Y-123264414D01*
X137883037Y-123038420D01*
X138003246Y-122784087D01*
X138043904Y-122650039D01*
X137921915Y-122428000D01*
X136779000Y-122428000D01*
X136779000Y-122448000D01*
X136525000Y-122448000D01*
X136525000Y-122428000D01*
X135382085Y-122428000D01*
X135260096Y-122650039D01*
X135300754Y-122784087D01*
X135420963Y-123038420D01*
X135588481Y-123264414D01*
X135796869Y-123453385D01*
X135982865Y-123564933D01*
X135972273Y-123569320D01*
X135737241Y-123726363D01*
X135537363Y-123926241D01*
X135380320Y-124161273D01*
X135272147Y-124422426D01*
X135217000Y-124699665D01*
X120507578Y-124699665D01*
X120507500Y-124682250D01*
X120348750Y-124523500D01*
X119149500Y-124523500D01*
X118895500Y-124523500D01*
X118875500Y-124523500D01*
X118875500Y-124269500D01*
X118895500Y-124269500D01*
X118895500Y-122945250D01*
X119149500Y-122945250D01*
X119149500Y-124269500D01*
X120348750Y-124269500D01*
X120507500Y-124110750D01*
X120510572Y-123421500D01*
X120498312Y-123297018D01*
X120462002Y-123177320D01*
X120403037Y-123067006D01*
X120323685Y-122970315D01*
X120226994Y-122890963D01*
X120116680Y-122831998D01*
X119996982Y-122795688D01*
X119872500Y-122783428D01*
X119308250Y-122786500D01*
X119149500Y-122945250D01*
X118895500Y-122945250D01*
X118736750Y-122786500D01*
X118172500Y-122783428D01*
X118048018Y-122795688D01*
X117928320Y-122831998D01*
X117818006Y-122890963D01*
X117721315Y-122970315D01*
X117641963Y-123067006D01*
X117582998Y-123177320D01*
X117572445Y-123212108D01*
X117351514Y-123030794D01*
X117282500Y-122993905D01*
X117282500Y-122465325D01*
X117286176Y-122428000D01*
X117282500Y-122390675D01*
X117282500Y-122390667D01*
X117271503Y-122279014D01*
X117228046Y-122135753D01*
X117157474Y-122003724D01*
X117114994Y-121951961D01*
X135260096Y-121951961D01*
X135382085Y-122174000D01*
X136525000Y-122174000D01*
X136525000Y-121030376D01*
X136779000Y-121030376D01*
X136779000Y-122174000D01*
X137921915Y-122174000D01*
X138043904Y-121951961D01*
X138003246Y-121817913D01*
X137883037Y-121563580D01*
X137715519Y-121337586D01*
X137507131Y-121148615D01*
X137265881Y-121003930D01*
X137001040Y-120909091D01*
X136779000Y-121030376D01*
X136525000Y-121030376D01*
X136302960Y-120909091D01*
X136038119Y-121003930D01*
X135796869Y-121148615D01*
X135588481Y-121337586D01*
X135420963Y-121563580D01*
X135300754Y-121817913D01*
X135260096Y-121951961D01*
X117114994Y-121951961D01*
X117062501Y-121887999D01*
X117033503Y-121864201D01*
X114209373Y-119040072D01*
X115671500Y-119040072D01*
X115795982Y-119027812D01*
X115915680Y-118991502D01*
X116025994Y-118932537D01*
X116122685Y-118853185D01*
X116202037Y-118756494D01*
X116261002Y-118646180D01*
X116297312Y-118526482D01*
X116298143Y-118518039D01*
X116496741Y-118716637D01*
X116731773Y-118873680D01*
X116992926Y-118981853D01*
X117270165Y-119037000D01*
X117552835Y-119037000D01*
X117830074Y-118981853D01*
X118091227Y-118873680D01*
X118326259Y-118716637D01*
X118455896Y-118587000D01*
X139165000Y-118587000D01*
X142837000Y-122259001D01*
X142837000Y-122442335D01*
X142892147Y-122719574D01*
X143000320Y-122980727D01*
X143157363Y-123215759D01*
X143355961Y-123414357D01*
X143347518Y-123415188D01*
X143227820Y-123451498D01*
X143117506Y-123510463D01*
X143020815Y-123589815D01*
X142941463Y-123686506D01*
X142882498Y-123796820D01*
X142846188Y-123916518D01*
X142833928Y-124041000D01*
X142833928Y-125641000D01*
X142846188Y-125765482D01*
X142882498Y-125885180D01*
X142941463Y-125995494D01*
X143020815Y-126092185D01*
X143117506Y-126171537D01*
X143227820Y-126230502D01*
X143347518Y-126266812D01*
X143472000Y-126279072D01*
X145072000Y-126279072D01*
X145196482Y-126266812D01*
X145316180Y-126230502D01*
X145426494Y-126171537D01*
X145523185Y-126092185D01*
X145602537Y-125995494D01*
X145661502Y-125885180D01*
X145697812Y-125765482D01*
X145710072Y-125641000D01*
X145710072Y-124041000D01*
X145697812Y-123916518D01*
X145661502Y-123796820D01*
X145602537Y-123686506D01*
X145523185Y-123589815D01*
X145426494Y-123510463D01*
X145316180Y-123451498D01*
X145196482Y-123415188D01*
X145188039Y-123414357D01*
X145386637Y-123215759D01*
X145543680Y-122980727D01*
X145651853Y-122719574D01*
X145707000Y-122442335D01*
X145707000Y-122159665D01*
X145651853Y-121882426D01*
X145543680Y-121621273D01*
X145386637Y-121386241D01*
X145186759Y-121186363D01*
X144951727Y-121029320D01*
X144690574Y-120921147D01*
X144413335Y-120866000D01*
X144230001Y-120866000D01*
X143603001Y-120239000D01*
X146778928Y-120239000D01*
X146778928Y-122839000D01*
X146791188Y-122963482D01*
X146827498Y-123083180D01*
X146886463Y-123193494D01*
X146965815Y-123290185D01*
X147062506Y-123369537D01*
X147172820Y-123428502D01*
X147292518Y-123464812D01*
X147417000Y-123477072D01*
X150017000Y-123477072D01*
X150141482Y-123464812D01*
X150261180Y-123428502D01*
X150371494Y-123369537D01*
X150468185Y-123290185D01*
X150547537Y-123193494D01*
X150606502Y-123083180D01*
X150642812Y-122963482D01*
X150655072Y-122839000D01*
X150655072Y-120239000D01*
X150642812Y-120114518D01*
X150606502Y-119994820D01*
X150547537Y-119884506D01*
X150468185Y-119787815D01*
X150371494Y-119708463D01*
X150261180Y-119649498D01*
X150141482Y-119613188D01*
X150017000Y-119600928D01*
X147417000Y-119600928D01*
X147292518Y-119613188D01*
X147172820Y-119649498D01*
X147062506Y-119708463D01*
X146965815Y-119787815D01*
X146886463Y-119884506D01*
X146827498Y-119994820D01*
X146791188Y-120114518D01*
X146778928Y-120239000D01*
X143603001Y-120239000D01*
X140303716Y-116939716D01*
X140272870Y-116902130D01*
X140122884Y-116779040D01*
X139951767Y-116687576D01*
X139766094Y-116631253D01*
X139621380Y-116617000D01*
X139573000Y-116612235D01*
X139524620Y-116617000D01*
X136283707Y-116617000D01*
X136443756Y-116550705D01*
X136613274Y-116437437D01*
X136657211Y-116393500D01*
X157549500Y-116393500D01*
X154280696Y-119662304D01*
X153987581Y-119604000D01*
X153606419Y-119604000D01*
X153232581Y-119678361D01*
X152880434Y-119824225D01*
X152563509Y-120035987D01*
X152293987Y-120305509D01*
X152082225Y-120622434D01*
X151936361Y-120974581D01*
X151862000Y-121348419D01*
X151862000Y-121729581D01*
X151936361Y-122103419D01*
X152082225Y-122455566D01*
X152293987Y-122772491D01*
X152563509Y-123042013D01*
X152880434Y-123253775D01*
X153232581Y-123399639D01*
X153606419Y-123474000D01*
X153987581Y-123474000D01*
X154361419Y-123399639D01*
X154713566Y-123253775D01*
X154986017Y-123071729D01*
X175681000Y-123071729D01*
X175681000Y-123689271D01*
X175801476Y-124294946D01*
X176037799Y-124865479D01*
X176380886Y-125378946D01*
X176817554Y-125815614D01*
X177331021Y-126158701D01*
X177901554Y-126395024D01*
X178507229Y-126515500D01*
X179124771Y-126515500D01*
X179730446Y-126395024D01*
X180300979Y-126158701D01*
X180814446Y-125815614D01*
X181251114Y-125378946D01*
X181594201Y-124865479D01*
X181830524Y-124294946D01*
X181951000Y-123689271D01*
X181951000Y-123071729D01*
X181830524Y-122466054D01*
X181594201Y-121895521D01*
X181251114Y-121382054D01*
X180814446Y-120945386D01*
X180300979Y-120602299D01*
X179730446Y-120365976D01*
X179124771Y-120245500D01*
X178507229Y-120245500D01*
X177901554Y-120365976D01*
X177331021Y-120602299D01*
X176817554Y-120945386D01*
X176380886Y-121382054D01*
X176037799Y-121895521D01*
X175801476Y-122466054D01*
X175681000Y-123071729D01*
X154986017Y-123071729D01*
X155030491Y-123042013D01*
X155300013Y-122772491D01*
X155511775Y-122455566D01*
X155657639Y-122103419D01*
X155732000Y-121729581D01*
X155732000Y-121348419D01*
X155673696Y-121055304D01*
X172239284Y-104489716D01*
X172276870Y-104458870D01*
X172399960Y-104308884D01*
X172491424Y-104137767D01*
X172547747Y-103952094D01*
X172562000Y-103807380D01*
X172566765Y-103759001D01*
X172562000Y-103710621D01*
X172562000Y-100099500D01*
X174087315Y-100099500D01*
X174115987Y-100390611D01*
X174200901Y-100670534D01*
X174338794Y-100928514D01*
X174524366Y-101154634D01*
X174750486Y-101340206D01*
X174767874Y-101349500D01*
X174750486Y-101358794D01*
X174524366Y-101544366D01*
X174338794Y-101770486D01*
X174200901Y-102028466D01*
X174115987Y-102308389D01*
X174087315Y-102599500D01*
X174115987Y-102890611D01*
X174200901Y-103170534D01*
X174338794Y-103428514D01*
X174524366Y-103654634D01*
X174750486Y-103840206D01*
X174767874Y-103849500D01*
X174750486Y-103858794D01*
X174524366Y-104044366D01*
X174338794Y-104270486D01*
X174200901Y-104528466D01*
X174115987Y-104808389D01*
X174087315Y-105099500D01*
X174115987Y-105390611D01*
X174200901Y-105670534D01*
X174338794Y-105928514D01*
X174524366Y-106154634D01*
X174750486Y-106340206D01*
X175008466Y-106478099D01*
X175288389Y-106563013D01*
X175506550Y-106584500D01*
X175902450Y-106584500D01*
X176120611Y-106563013D01*
X176400534Y-106478099D01*
X176658514Y-106340206D01*
X176884634Y-106154634D01*
X177070206Y-105928514D01*
X177208099Y-105670534D01*
X177293013Y-105390611D01*
X177321685Y-105099500D01*
X177293013Y-104808389D01*
X177208099Y-104528466D01*
X177070206Y-104270486D01*
X176884634Y-104044366D01*
X176658514Y-103858794D01*
X176641126Y-103849500D01*
X176658514Y-103840206D01*
X176884634Y-103654634D01*
X177070206Y-103428514D01*
X177208099Y-103170534D01*
X177293013Y-102890611D01*
X177321685Y-102599500D01*
X177293013Y-102308389D01*
X177208099Y-102028466D01*
X177070206Y-101770486D01*
X176884634Y-101544366D01*
X176658514Y-101358794D01*
X176641126Y-101349500D01*
X176658514Y-101340206D01*
X176884634Y-101154634D01*
X177070206Y-100928514D01*
X177208099Y-100670534D01*
X177293013Y-100390611D01*
X177321685Y-100099500D01*
X177293013Y-99808389D01*
X177208099Y-99528466D01*
X177070206Y-99270486D01*
X176884634Y-99044366D01*
X176821163Y-98992277D01*
X176922886Y-98937905D01*
X177057462Y-98827462D01*
X177167905Y-98692886D01*
X177249972Y-98539350D01*
X177300508Y-98372754D01*
X177317572Y-98199500D01*
X177317572Y-96999500D01*
X177300508Y-96826246D01*
X177249972Y-96659650D01*
X177167905Y-96506114D01*
X177057462Y-96371538D01*
X176922886Y-96261095D01*
X176769350Y-96179028D01*
X176602754Y-96128492D01*
X176429500Y-96111428D01*
X174979500Y-96111428D01*
X174806246Y-96128492D01*
X174639650Y-96179028D01*
X174486114Y-96261095D01*
X174351538Y-96371538D01*
X174241095Y-96506114D01*
X174159028Y-96659650D01*
X174108492Y-96826246D01*
X174091428Y-96999500D01*
X174091428Y-98199500D01*
X174108492Y-98372754D01*
X174159028Y-98539350D01*
X174241095Y-98692886D01*
X174351538Y-98827462D01*
X174486114Y-98937905D01*
X174587837Y-98992277D01*
X174524366Y-99044366D01*
X174338794Y-99270486D01*
X174200901Y-99528466D01*
X174115987Y-99808389D01*
X174087315Y-100099500D01*
X172562000Y-100099500D01*
X172562000Y-84243223D01*
X178796517Y-90477741D01*
X178823446Y-90510554D01*
X178954398Y-90618024D01*
X179103800Y-90697881D01*
X179157055Y-90714035D01*
X179164794Y-90728514D01*
X179350366Y-90954634D01*
X179576486Y-91140206D01*
X179834466Y-91278099D01*
X180114389Y-91363013D01*
X180332550Y-91384500D01*
X180728450Y-91384500D01*
X180946611Y-91363013D01*
X181226534Y-91278099D01*
X181484514Y-91140206D01*
X181710634Y-90954634D01*
X181896206Y-90728514D01*
X182034099Y-90470534D01*
X182119013Y-90190611D01*
X182147685Y-89899500D01*
X182119013Y-89608389D01*
X182034099Y-89328466D01*
X181896206Y-89070486D01*
X181710634Y-88844366D01*
X181484514Y-88658794D01*
X181467126Y-88649500D01*
X181484514Y-88640206D01*
X181710634Y-88454634D01*
X181896206Y-88228514D01*
X182034099Y-87970534D01*
X182119013Y-87690611D01*
X182147685Y-87399500D01*
X182119013Y-87108389D01*
X182034099Y-86828466D01*
X181896206Y-86570486D01*
X181714892Y-86349555D01*
X181749680Y-86339002D01*
X181859994Y-86280037D01*
X181956685Y-86200685D01*
X182036037Y-86103994D01*
X182095002Y-85993680D01*
X182131312Y-85873982D01*
X182143572Y-85749500D01*
X182140500Y-85185250D01*
X181981750Y-85026500D01*
X180657500Y-85026500D01*
X180657500Y-85046500D01*
X180403500Y-85046500D01*
X180403500Y-85026500D01*
X179079250Y-85026500D01*
X178920500Y-85185250D01*
X178917428Y-85749500D01*
X178929688Y-85873982D01*
X178965998Y-85993680D01*
X179024963Y-86103994D01*
X179104315Y-86200685D01*
X179201006Y-86280037D01*
X179311320Y-86339002D01*
X179346108Y-86349555D01*
X179164794Y-86570486D01*
X179026901Y-86828466D01*
X178941987Y-87108389D01*
X178913315Y-87399500D01*
X178941987Y-87690611D01*
X179026901Y-87970534D01*
X179164794Y-88228514D01*
X179350366Y-88454634D01*
X179576486Y-88640206D01*
X179593874Y-88649500D01*
X179576486Y-88658794D01*
X179485054Y-88733830D01*
X174800724Y-84049500D01*
X178917428Y-84049500D01*
X178920500Y-84613750D01*
X179079250Y-84772500D01*
X180403500Y-84772500D01*
X180403500Y-83573250D01*
X180657500Y-83573250D01*
X180657500Y-84772500D01*
X181981750Y-84772500D01*
X182140500Y-84613750D01*
X182143572Y-84049500D01*
X182131312Y-83925018D01*
X182095002Y-83805320D01*
X182036037Y-83695006D01*
X181956685Y-83598315D01*
X181859994Y-83518963D01*
X181749680Y-83459998D01*
X181629982Y-83423688D01*
X181505500Y-83411428D01*
X180816250Y-83414500D01*
X180657500Y-83573250D01*
X180403500Y-83573250D01*
X180244750Y-83414500D01*
X179555500Y-83411428D01*
X179431018Y-83423688D01*
X179311320Y-83459998D01*
X179201006Y-83518963D01*
X179104315Y-83598315D01*
X179024963Y-83695006D01*
X178965998Y-83805320D01*
X178929688Y-83925018D01*
X178917428Y-84049500D01*
X174800724Y-84049500D01*
X173453000Y-82701777D01*
X173453000Y-71700229D01*
X175363500Y-71700229D01*
X175363500Y-72317771D01*
X175483976Y-72923446D01*
X175720299Y-73493979D01*
X176063386Y-74007446D01*
X176500054Y-74444114D01*
X177013521Y-74787201D01*
X177584054Y-75023524D01*
X178189729Y-75144000D01*
X178807271Y-75144000D01*
X179412946Y-75023524D01*
X179983479Y-74787201D01*
X180496946Y-74444114D01*
X180933614Y-74007446D01*
X181276701Y-73493979D01*
X181513024Y-72923446D01*
X181633500Y-72317771D01*
X181633500Y-71700229D01*
X181513024Y-71094554D01*
X181276701Y-70524021D01*
X180933614Y-70010554D01*
X180496946Y-69573886D01*
X179983479Y-69230799D01*
X179412946Y-68994476D01*
X178807271Y-68874000D01*
X178189729Y-68874000D01*
X177584054Y-68994476D01*
X177013521Y-69230799D01*
X176500054Y-69573886D01*
X176063386Y-70010554D01*
X175720299Y-70524021D01*
X175483976Y-71094554D01*
X175363500Y-71700229D01*
X173453000Y-71700229D01*
X173453000Y-70908238D01*
X173457160Y-70865999D01*
X173453000Y-70823760D01*
X173453000Y-70823754D01*
X173440556Y-70697411D01*
X173440556Y-70697409D01*
X173414188Y-70610486D01*
X173391381Y-70535300D01*
X173311524Y-70385898D01*
X173204054Y-70254946D01*
X173171241Y-70228017D01*
X170817988Y-67874765D01*
X170791054Y-67841946D01*
X170660102Y-67734476D01*
X170510700Y-67654619D01*
X170348589Y-67605444D01*
X170222246Y-67593000D01*
X170222239Y-67593000D01*
X170180000Y-67588840D01*
X170137761Y-67593000D01*
X165142239Y-67593000D01*
X165100000Y-67588840D01*
X165057761Y-67593000D01*
X165057754Y-67593000D01*
X164946975Y-67603911D01*
X164931410Y-67605444D01*
X164882235Y-67620361D01*
X164769300Y-67654619D01*
X164619898Y-67734476D01*
X164619896Y-67734477D01*
X164619897Y-67734477D01*
X164529849Y-67808378D01*
X164488946Y-67841946D01*
X164462016Y-67874760D01*
X163505765Y-68831012D01*
X163472946Y-68857946D01*
X163365476Y-68988899D01*
X163285619Y-69138301D01*
X163262899Y-69213200D01*
X163240685Y-69286432D01*
X163236444Y-69300412D01*
X163224000Y-69426755D01*
X163224000Y-69426761D01*
X163219840Y-69469000D01*
X163224000Y-69511239D01*
X163224000Y-69994806D01*
X163144150Y-70019028D01*
X162990614Y-70101095D01*
X162856038Y-70211538D01*
X162745595Y-70346114D01*
X162663528Y-70499650D01*
X162612992Y-70666246D01*
X162595928Y-70839500D01*
X162595928Y-72289500D01*
X162612992Y-72462754D01*
X162663528Y-72629350D01*
X162745595Y-72782886D01*
X162856038Y-72917462D01*
X162990614Y-73027905D01*
X163144150Y-73109972D01*
X163310746Y-73160508D01*
X163484000Y-73177572D01*
X164001224Y-73177572D01*
X163969998Y-73280515D01*
X163955324Y-73429500D01*
X163959001Y-73466832D01*
X163959000Y-85719789D01*
X163915063Y-85763726D01*
X163801795Y-85933244D01*
X163723774Y-86121602D01*
X163684000Y-86321561D01*
X163684000Y-86525439D01*
X163723774Y-86725398D01*
X163801795Y-86913756D01*
X163915063Y-87083274D01*
X164059226Y-87227437D01*
X164228744Y-87340705D01*
X164417102Y-87418726D01*
X164617061Y-87458500D01*
X164820939Y-87458500D01*
X165020898Y-87418726D01*
X165209256Y-87340705D01*
X165378774Y-87227437D01*
X165522937Y-87083274D01*
X165636205Y-86913756D01*
X165714226Y-86725398D01*
X165754000Y-86525439D01*
X165754000Y-86321561D01*
X165714226Y-86121602D01*
X165636205Y-85933244D01*
X165522937Y-85763726D01*
X165479000Y-85719789D01*
X165479000Y-84950512D01*
X165690273Y-85091680D01*
X165951426Y-85199853D01*
X166228665Y-85255000D01*
X166511335Y-85255000D01*
X166788574Y-85199853D01*
X167049727Y-85091680D01*
X167284759Y-84934637D01*
X167484637Y-84734759D01*
X167641680Y-84499727D01*
X167646067Y-84489135D01*
X167757615Y-84675131D01*
X167946586Y-84883519D01*
X168172580Y-85051037D01*
X168426913Y-85171246D01*
X168560961Y-85211904D01*
X168783000Y-85089915D01*
X168783000Y-83947000D01*
X169037000Y-83947000D01*
X169037000Y-85089915D01*
X169259039Y-85211904D01*
X169393087Y-85171246D01*
X169647420Y-85051037D01*
X169873414Y-84883519D01*
X170062385Y-84675131D01*
X170207070Y-84433881D01*
X170301909Y-84169040D01*
X170180624Y-83947000D01*
X169037000Y-83947000D01*
X168783000Y-83947000D01*
X168763000Y-83947000D01*
X168763000Y-83693000D01*
X168783000Y-83693000D01*
X168783000Y-82550085D01*
X169037000Y-82550085D01*
X169037000Y-83693000D01*
X170180624Y-83693000D01*
X170301909Y-83470960D01*
X170207070Y-83206119D01*
X170062385Y-82964869D01*
X169873414Y-82756481D01*
X169647420Y-82588963D01*
X169393087Y-82468754D01*
X169259039Y-82428096D01*
X169037000Y-82550085D01*
X168783000Y-82550085D01*
X168560961Y-82428096D01*
X168426913Y-82468754D01*
X168172580Y-82588963D01*
X167946586Y-82756481D01*
X167757615Y-82964869D01*
X167646067Y-83150865D01*
X167641680Y-83140273D01*
X167484637Y-82905241D01*
X167284759Y-82705363D01*
X167049727Y-82548320D01*
X166788574Y-82440147D01*
X166511335Y-82385000D01*
X166228665Y-82385000D01*
X165951426Y-82440147D01*
X165690273Y-82548320D01*
X165479000Y-82689488D01*
X165479000Y-77356003D01*
X165584561Y-77377000D01*
X165788439Y-77377000D01*
X165988398Y-77337226D01*
X166013086Y-77327000D01*
X167310500Y-77327000D01*
X170592000Y-80608500D01*
X170592001Y-103350999D01*
X167130000Y-106813000D01*
X167130000Y-92878072D01*
X167170000Y-92878072D01*
X167294482Y-92865812D01*
X167414180Y-92829502D01*
X167524494Y-92770537D01*
X167621185Y-92691185D01*
X167700537Y-92594494D01*
X167759502Y-92484180D01*
X167795812Y-92364482D01*
X167796643Y-92356039D01*
X167995241Y-92554637D01*
X168230273Y-92711680D01*
X168491426Y-92819853D01*
X168768665Y-92875000D01*
X169051335Y-92875000D01*
X169328574Y-92819853D01*
X169589727Y-92711680D01*
X169824759Y-92554637D01*
X170024637Y-92354759D01*
X170181680Y-92119727D01*
X170289853Y-91858574D01*
X170345000Y-91581335D01*
X170345000Y-91298665D01*
X170289853Y-91021426D01*
X170181680Y-90760273D01*
X170024637Y-90525241D01*
X169824759Y-90325363D01*
X169589727Y-90168320D01*
X169328574Y-90060147D01*
X169051335Y-90005000D01*
X168868000Y-90005000D01*
X166910216Y-88047216D01*
X166879370Y-88009630D01*
X166729384Y-87886540D01*
X166558267Y-87795076D01*
X166372594Y-87738753D01*
X166227880Y-87724500D01*
X166179500Y-87719735D01*
X166131120Y-87724500D01*
X152242000Y-87724500D01*
X152242000Y-83931879D01*
X152246765Y-83883499D01*
X152227747Y-83690405D01*
X152211316Y-83636239D01*
X152171424Y-83504733D01*
X152079960Y-83333616D01*
X151956870Y-83183630D01*
X151919284Y-83152784D01*
X151295000Y-82528500D01*
X151295000Y-82345165D01*
X151239853Y-82067926D01*
X151131680Y-81806773D01*
X150974637Y-81571741D01*
X150774759Y-81371863D01*
X150539727Y-81214820D01*
X150278574Y-81106647D01*
X150001335Y-81051500D01*
X149718665Y-81051500D01*
X149441426Y-81106647D01*
X149180273Y-81214820D01*
X148945241Y-81371863D01*
X148745363Y-81571741D01*
X148588320Y-81806773D01*
X148480147Y-82067926D01*
X148425000Y-82345165D01*
X148425000Y-82627835D01*
X148480147Y-82905074D01*
X148588320Y-83166227D01*
X148745363Y-83401259D01*
X148943961Y-83599857D01*
X148935518Y-83600688D01*
X148815820Y-83636998D01*
X148705506Y-83695963D01*
X148608815Y-83775315D01*
X148529463Y-83872006D01*
X148470498Y-83982320D01*
X148434188Y-84102018D01*
X148421928Y-84226500D01*
X148421928Y-85826500D01*
X148434188Y-85950982D01*
X148470498Y-86070680D01*
X148529463Y-86180994D01*
X148608815Y-86277685D01*
X148705506Y-86357037D01*
X148815820Y-86416002D01*
X148935518Y-86452312D01*
X149060000Y-86464572D01*
X149100000Y-86464572D01*
X149100000Y-90187171D01*
X148955398Y-90127274D01*
X148755439Y-90087500D01*
X148551561Y-90087500D01*
X148351602Y-90127274D01*
X148163244Y-90205295D01*
X147993726Y-90318563D01*
X147849563Y-90462726D01*
X147762500Y-90593025D01*
X147762500Y-80094301D01*
X154755599Y-73101204D01*
X154926390Y-73153013D01*
X155217500Y-73181685D01*
X155508611Y-73153013D01*
X155788534Y-73068099D01*
X156046514Y-72930206D01*
X156272634Y-72744634D01*
X156458206Y-72518514D01*
X156471962Y-72492778D01*
X156628451Y-72698929D01*
X156846307Y-72891996D01*
X157097642Y-73038852D01*
X157360610Y-73130976D01*
X157590500Y-73009655D01*
X157590500Y-71691500D01*
X157844500Y-71691500D01*
X157844500Y-73009655D01*
X158074390Y-73130976D01*
X158337358Y-73038852D01*
X158588693Y-72891996D01*
X158806549Y-72698929D01*
X158982553Y-72467070D01*
X159109942Y-72205330D01*
X159183820Y-71923767D01*
X159043665Y-71691500D01*
X157844500Y-71691500D01*
X157590500Y-71691500D01*
X157570500Y-71691500D01*
X157570500Y-71437500D01*
X157590500Y-71437500D01*
X157590500Y-70119345D01*
X157844500Y-70119345D01*
X157844500Y-71437500D01*
X159043665Y-71437500D01*
X159183820Y-71205233D01*
X159109942Y-70923670D01*
X158982553Y-70661930D01*
X158806549Y-70430071D01*
X158588693Y-70237004D01*
X158337358Y-70090148D01*
X158074390Y-69998024D01*
X157844500Y-70119345D01*
X157590500Y-70119345D01*
X157360610Y-69998024D01*
X157097642Y-70090148D01*
X156846307Y-70237004D01*
X156628451Y-70430071D01*
X156471962Y-70636222D01*
X156458206Y-70610486D01*
X156272634Y-70384366D01*
X156046513Y-70198794D01*
X155788533Y-70060901D01*
X155508610Y-69975987D01*
X155217500Y-69947315D01*
X154926389Y-69975987D01*
X154646466Y-70060901D01*
X154388486Y-70198794D01*
X154162366Y-70384366D01*
X154110277Y-70447837D01*
X154055905Y-70346114D01*
X153945462Y-70211538D01*
X153810886Y-70101095D01*
X153657350Y-70019028D01*
X153490754Y-69968492D01*
X153317500Y-69951428D01*
X152117500Y-69951428D01*
X151944246Y-69968492D01*
X151777650Y-70019028D01*
X151624114Y-70101095D01*
X151489538Y-70211538D01*
X151379095Y-70346114D01*
X151297028Y-70499650D01*
X151246492Y-70666246D01*
X151229428Y-70839500D01*
X151229428Y-72289500D01*
X151246492Y-72462754D01*
X151297028Y-72629350D01*
X151379095Y-72782886D01*
X151489538Y-72917462D01*
X151624114Y-73027905D01*
X151777650Y-73109972D01*
X151944246Y-73160508D01*
X152117500Y-73177572D01*
X152529626Y-73177572D01*
X146568500Y-79138699D01*
X146568500Y-76821333D01*
X146572177Y-76784000D01*
X146557503Y-76635014D01*
X146514046Y-76491753D01*
X146443474Y-76359724D01*
X146372299Y-76272997D01*
X146348501Y-76243999D01*
X146319503Y-76220201D01*
X144547500Y-74448199D01*
X144547500Y-72967095D01*
X144616514Y-72930206D01*
X144842634Y-72744634D01*
X145028206Y-72518514D01*
X145041962Y-72492778D01*
X145198451Y-72698929D01*
X145416307Y-72891996D01*
X145667642Y-73038852D01*
X145930610Y-73130976D01*
X146160500Y-73009655D01*
X146160500Y-71691500D01*
X146414500Y-71691500D01*
X146414500Y-73009655D01*
X146644390Y-73130976D01*
X146907358Y-73038852D01*
X147158693Y-72891996D01*
X147376549Y-72698929D01*
X147552553Y-72467070D01*
X147679942Y-72205330D01*
X147753820Y-71923767D01*
X147613665Y-71691500D01*
X146414500Y-71691500D01*
X146160500Y-71691500D01*
X146140500Y-71691500D01*
X146140500Y-71437500D01*
X146160500Y-71437500D01*
X146160500Y-70119345D01*
X146414500Y-70119345D01*
X146414500Y-71437500D01*
X147613665Y-71437500D01*
X147753820Y-71205233D01*
X147679942Y-70923670D01*
X147552553Y-70661930D01*
X147376549Y-70430071D01*
X147158693Y-70237004D01*
X146907358Y-70090148D01*
X146644390Y-69998024D01*
X146414500Y-70119345D01*
X146160500Y-70119345D01*
X145930610Y-69998024D01*
X145667642Y-70090148D01*
X145416307Y-70237004D01*
X145198451Y-70430071D01*
X145041962Y-70636222D01*
X145028206Y-70610486D01*
X144842634Y-70384366D01*
X144616513Y-70198794D01*
X144358533Y-70060901D01*
X144078610Y-69975987D01*
X143787500Y-69947315D01*
X143496389Y-69975987D01*
X143216466Y-70060901D01*
X142958486Y-70198794D01*
X142732366Y-70384366D01*
X142680277Y-70447837D01*
X142625905Y-70346114D01*
X142515462Y-70211538D01*
X142380886Y-70101095D01*
X142227350Y-70019028D01*
X142060754Y-69968492D01*
X141887500Y-69951428D01*
X140687500Y-69951428D01*
X140514246Y-69968492D01*
X140347650Y-70019028D01*
X140194114Y-70101095D01*
X140059538Y-70211538D01*
X139949095Y-70346114D01*
X139867028Y-70499650D01*
X139816492Y-70666246D01*
X139799428Y-70839500D01*
X139799428Y-72289500D01*
X139816492Y-72462754D01*
X139867028Y-72629350D01*
X139949095Y-72782886D01*
X140059538Y-72917462D01*
X140194114Y-73027905D01*
X140347650Y-73109972D01*
X140514246Y-73160508D01*
X140687500Y-73177572D01*
X141887500Y-73177572D01*
X142060754Y-73160508D01*
X142227350Y-73109972D01*
X142380886Y-73027905D01*
X142515462Y-72917462D01*
X142625905Y-72782886D01*
X142680277Y-72681163D01*
X142732366Y-72744634D01*
X142958487Y-72930206D01*
X143027501Y-72967094D01*
X143027500Y-74725677D01*
X143023824Y-74763000D01*
X143027500Y-74800322D01*
X143027500Y-74800332D01*
X143038497Y-74911985D01*
X143081954Y-75055246D01*
X143152526Y-75187276D01*
X143169124Y-75207500D01*
X143247499Y-75303001D01*
X143276503Y-75326804D01*
X145048501Y-77098803D01*
X145048500Y-91129789D01*
X145004563Y-91173726D01*
X144891295Y-91343244D01*
X144813274Y-91531602D01*
X144773500Y-91731561D01*
X144773500Y-91935439D01*
X144813274Y-92135398D01*
X144848350Y-92220079D01*
X144706602Y-92248274D01*
X144518244Y-92326295D01*
X144348726Y-92439563D01*
X144304789Y-92483500D01*
X143405802Y-92483500D01*
X133267467Y-82345165D01*
X140805000Y-82345165D01*
X140805000Y-82627835D01*
X140860147Y-82905074D01*
X140968320Y-83166227D01*
X141125363Y-83401259D01*
X141325241Y-83601137D01*
X141557759Y-83756500D01*
X141325241Y-83911863D01*
X141125363Y-84111741D01*
X140968320Y-84346773D01*
X140860147Y-84607926D01*
X140805000Y-84885165D01*
X140805000Y-85167835D01*
X140860147Y-85445074D01*
X140968320Y-85706227D01*
X141125363Y-85941259D01*
X141325241Y-86141137D01*
X141560273Y-86298180D01*
X141821426Y-86406353D01*
X142098665Y-86461500D01*
X142381335Y-86461500D01*
X142658574Y-86406353D01*
X142919727Y-86298180D01*
X143154759Y-86141137D01*
X143354637Y-85941259D01*
X143511680Y-85706227D01*
X143619853Y-85445074D01*
X143675000Y-85167835D01*
X143675000Y-84885165D01*
X143619853Y-84607926D01*
X143511680Y-84346773D01*
X143354637Y-84111741D01*
X143154759Y-83911863D01*
X142922241Y-83756500D01*
X143154759Y-83601137D01*
X143354637Y-83401259D01*
X143511680Y-83166227D01*
X143619853Y-82905074D01*
X143675000Y-82627835D01*
X143675000Y-82345165D01*
X143619853Y-82067926D01*
X143511680Y-81806773D01*
X143354637Y-81571741D01*
X143154759Y-81371863D01*
X142919727Y-81214820D01*
X142658574Y-81106647D01*
X142381335Y-81051500D01*
X142098665Y-81051500D01*
X141821426Y-81106647D01*
X141560273Y-81214820D01*
X141325241Y-81371863D01*
X141125363Y-81571741D01*
X140968320Y-81806773D01*
X140860147Y-82067926D01*
X140805000Y-82345165D01*
X133267467Y-82345165D01*
X132903500Y-81981199D01*
X132903500Y-72945714D01*
X132932514Y-72930206D01*
X133158634Y-72744634D01*
X133344206Y-72518514D01*
X133357962Y-72492778D01*
X133514451Y-72698929D01*
X133732307Y-72891996D01*
X133983642Y-73038852D01*
X134246610Y-73130976D01*
X134476500Y-73009655D01*
X134476500Y-71691500D01*
X134730500Y-71691500D01*
X134730500Y-73009655D01*
X134960390Y-73130976D01*
X135223358Y-73038852D01*
X135474693Y-72891996D01*
X135692549Y-72698929D01*
X135868553Y-72467070D01*
X135995942Y-72205330D01*
X136069820Y-71923767D01*
X135929665Y-71691500D01*
X134730500Y-71691500D01*
X134476500Y-71691500D01*
X134456500Y-71691500D01*
X134456500Y-71437500D01*
X134476500Y-71437500D01*
X134476500Y-70119345D01*
X134730500Y-70119345D01*
X134730500Y-71437500D01*
X135929665Y-71437500D01*
X136069820Y-71205233D01*
X135995942Y-70923670D01*
X135868553Y-70661930D01*
X135692549Y-70430071D01*
X135474693Y-70237004D01*
X135223358Y-70090148D01*
X134960390Y-69998024D01*
X134730500Y-70119345D01*
X134476500Y-70119345D01*
X134246610Y-69998024D01*
X133983642Y-70090148D01*
X133732307Y-70237004D01*
X133514451Y-70430071D01*
X133357962Y-70636222D01*
X133344206Y-70610486D01*
X133158634Y-70384366D01*
X132932513Y-70198794D01*
X132674533Y-70060901D01*
X132394610Y-69975987D01*
X132103500Y-69947315D01*
X131812389Y-69975987D01*
X131532466Y-70060901D01*
X131274486Y-70198794D01*
X131048366Y-70384366D01*
X130996277Y-70447837D01*
X130941905Y-70346114D01*
X130831462Y-70211538D01*
X130696886Y-70101095D01*
X130543350Y-70019028D01*
X130376754Y-69968492D01*
X130203500Y-69951428D01*
X129003500Y-69951428D01*
X128830246Y-69968492D01*
X128663650Y-70019028D01*
X128510114Y-70101095D01*
X128375538Y-70211538D01*
X128265095Y-70346114D01*
X128183028Y-70499650D01*
X128132492Y-70666246D01*
X128115428Y-70839500D01*
X128115428Y-72289500D01*
X128132492Y-72462754D01*
X128183028Y-72629350D01*
X128265095Y-72782886D01*
X128375538Y-72917462D01*
X128510114Y-73027905D01*
X128663650Y-73109972D01*
X128830246Y-73160508D01*
X129003500Y-73177572D01*
X130203500Y-73177572D01*
X130376754Y-73160508D01*
X130543350Y-73109972D01*
X130696886Y-73027905D01*
X130831462Y-72917462D01*
X130941905Y-72782886D01*
X130996277Y-72681163D01*
X131048366Y-72744634D01*
X131274487Y-72930206D01*
X131383501Y-72988475D01*
X131383500Y-82258678D01*
X131379824Y-82296000D01*
X131383500Y-82333322D01*
X131383500Y-82333332D01*
X131394497Y-82444985D01*
X131423027Y-82539037D01*
X131437954Y-82588246D01*
X131508526Y-82720276D01*
X131514291Y-82727300D01*
X131603499Y-82836001D01*
X131632503Y-82859804D01*
X142527201Y-93754503D01*
X142550999Y-93783501D01*
X142579997Y-93807299D01*
X142666723Y-93878474D01*
X142760206Y-93928442D01*
X142798753Y-93949046D01*
X142942014Y-93992503D01*
X143053667Y-94003500D01*
X143053677Y-94003500D01*
X143091000Y-94007176D01*
X143128323Y-94003500D01*
X144304789Y-94003500D01*
X144348726Y-94047437D01*
X144518244Y-94160705D01*
X144706602Y-94238726D01*
X144906561Y-94278500D01*
X145110439Y-94278500D01*
X145310398Y-94238726D01*
X145498756Y-94160705D01*
X145668274Y-94047437D01*
X145812437Y-93903274D01*
X145925705Y-93733756D01*
X146003726Y-93545398D01*
X146043500Y-93345439D01*
X146043500Y-93141561D01*
X146003726Y-92941602D01*
X145968650Y-92856921D01*
X146110398Y-92828726D01*
X146242501Y-92774007D01*
X146242501Y-92808122D01*
X146197774Y-92916102D01*
X146158000Y-93116061D01*
X146158000Y-93319939D01*
X146197774Y-93519898D01*
X146275795Y-93708256D01*
X146389063Y-93877774D01*
X146533226Y-94021937D01*
X146702744Y-94135205D01*
X146891102Y-94213226D01*
X147091061Y-94253000D01*
X147294939Y-94253000D01*
X147494898Y-94213226D01*
X147683256Y-94135205D01*
X147793500Y-94061542D01*
X147793500Y-95782776D01*
X145061299Y-98514978D01*
X144889398Y-98443774D01*
X144689439Y-98404000D01*
X144485561Y-98404000D01*
X144285602Y-98443774D01*
X144097244Y-98521795D01*
X143927726Y-98635063D01*
X143783563Y-98779226D01*
X143670295Y-98948744D01*
X143592274Y-99137102D01*
X143552500Y-99337061D01*
X143552500Y-99540939D01*
X143592274Y-99740898D01*
X143670295Y-99929256D01*
X143783563Y-100098774D01*
X143927726Y-100242937D01*
X144097244Y-100356205D01*
X144285602Y-100434226D01*
X144485561Y-100474000D01*
X144689439Y-100474000D01*
X144889398Y-100434226D01*
X145077756Y-100356205D01*
X145163370Y-100299000D01*
X145311261Y-100299000D01*
X145353500Y-100303160D01*
X145395739Y-100299000D01*
X145395746Y-100299000D01*
X145522089Y-100286556D01*
X145684200Y-100237381D01*
X145833602Y-100157524D01*
X145964554Y-100050054D01*
X145991488Y-100017235D01*
X149100001Y-96908723D01*
X149100001Y-102110697D01*
X145983503Y-105227196D01*
X145954499Y-105250999D01*
X145901974Y-105315001D01*
X145859526Y-105366724D01*
X145797554Y-105482665D01*
X145788954Y-105498754D01*
X145745497Y-105642015D01*
X145734500Y-105753668D01*
X145734500Y-105753678D01*
X145730824Y-105791000D01*
X145734500Y-105828322D01*
X145734501Y-112961288D01*
X145690563Y-113005226D01*
X145577295Y-113174744D01*
X145499274Y-113363102D01*
X145459500Y-113563061D01*
X145459500Y-113766939D01*
X145499274Y-113966898D01*
X145577295Y-114155256D01*
X145690563Y-114324774D01*
X145834726Y-114468937D01*
X146004244Y-114582205D01*
X146192602Y-114660226D01*
X146392561Y-114700000D01*
X146596439Y-114700000D01*
X146796398Y-114660226D01*
X146984756Y-114582205D01*
X147154274Y-114468937D01*
X147298437Y-114324774D01*
X147411705Y-114155256D01*
X147489726Y-113966898D01*
X147529500Y-113766939D01*
X147529500Y-113563061D01*
X147489726Y-113363102D01*
X147411705Y-113174744D01*
X147298437Y-113005226D01*
X147254500Y-112961289D01*
X147254500Y-106105801D01*
X148342499Y-105017802D01*
X148342500Y-111179109D01*
X148337734Y-111227499D01*
X148356752Y-111420592D01*
X148413075Y-111606265D01*
X148413076Y-111606266D01*
X148504540Y-111777383D01*
X148627630Y-111927369D01*
X148665210Y-111958210D01*
X150095000Y-113388000D01*
X150095000Y-113576439D01*
X150134774Y-113776398D01*
X150212795Y-113964756D01*
X150326063Y-114134274D01*
X150470226Y-114278437D01*
X150639744Y-114391705D01*
X150828102Y-114469726D01*
X151028061Y-114509500D01*
X151231939Y-114509500D01*
X151431898Y-114469726D01*
X151620256Y-114391705D01*
X151789774Y-114278437D01*
X151933937Y-114134274D01*
X152047205Y-113964756D01*
X152125226Y-113776398D01*
X152165000Y-113576439D01*
X152165000Y-113372561D01*
X152125226Y-113172602D01*
X152115000Y-113147914D01*
X152115000Y-113078379D01*
X152119765Y-113029999D01*
X152100747Y-112836905D01*
X152078329Y-112763003D01*
X152044424Y-112651233D01*
X151992743Y-112554544D01*
X153169701Y-113731503D01*
X153193499Y-113760501D01*
X153309224Y-113855474D01*
X153441253Y-113926046D01*
X153584514Y-113969503D01*
X153696167Y-113980500D01*
X153696176Y-113980500D01*
X153733499Y-113984176D01*
X153770822Y-113980500D01*
X156712789Y-113980500D01*
X156756726Y-114024437D01*
X156926244Y-114137705D01*
X157114602Y-114215726D01*
X157314561Y-114255500D01*
X157518439Y-114255500D01*
X157718398Y-114215726D01*
X157906756Y-114137705D01*
X158076274Y-114024437D01*
X158220437Y-113880274D01*
X158333705Y-113710756D01*
X158411726Y-113522398D01*
X158451500Y-113322439D01*
X158451500Y-113118561D01*
X158411726Y-112918602D01*
X158333705Y-112730244D01*
X158220437Y-112560726D01*
X158076274Y-112416563D01*
X157906756Y-112303295D01*
X157718398Y-112225274D01*
X157518439Y-112185500D01*
X157314561Y-112185500D01*
X157114602Y-112225274D01*
X156926244Y-112303295D01*
X156756726Y-112416563D01*
X156712789Y-112460500D01*
X154048302Y-112460500D01*
X152207500Y-110619699D01*
X152207500Y-108927561D01*
X155492500Y-108927561D01*
X155492500Y-109131439D01*
X155532274Y-109331398D01*
X155610295Y-109519756D01*
X155723563Y-109689274D01*
X155867726Y-109833437D01*
X156037244Y-109946705D01*
X156225602Y-110024726D01*
X156425561Y-110064500D01*
X156629439Y-110064500D01*
X156829398Y-110024726D01*
X157017756Y-109946705D01*
X157187274Y-109833437D01*
X157331437Y-109689274D01*
X157444705Y-109519756D01*
X157522726Y-109331398D01*
X157562500Y-109131439D01*
X157562500Y-109069301D01*
X158816504Y-107815298D01*
X158845501Y-107791501D01*
X158940474Y-107675776D01*
X159011046Y-107543747D01*
X159054503Y-107400486D01*
X159065500Y-107288833D01*
X159065500Y-107288825D01*
X159069176Y-107251500D01*
X159065500Y-107214175D01*
X159065500Y-105394486D01*
X159113256Y-105374705D01*
X159282774Y-105261437D01*
X159426937Y-105117274D01*
X159540205Y-104947756D01*
X159618226Y-104759398D01*
X159658000Y-104559439D01*
X159658000Y-104355561D01*
X159618226Y-104155602D01*
X159540205Y-103967244D01*
X159426937Y-103797726D01*
X159282774Y-103653563D01*
X159113256Y-103540295D01*
X158924898Y-103462274D01*
X158724939Y-103422500D01*
X158521061Y-103422500D01*
X158321102Y-103462274D01*
X158132744Y-103540295D01*
X157963226Y-103653563D01*
X157819063Y-103797726D01*
X157705795Y-103967244D01*
X157627774Y-104155602D01*
X157588000Y-104355561D01*
X157588000Y-104522163D01*
X157586088Y-104528466D01*
X157556498Y-104626014D01*
X157549358Y-104698503D01*
X157541824Y-104775000D01*
X157545501Y-104812332D01*
X157545500Y-106936698D01*
X156740277Y-107741922D01*
X156799473Y-107660629D01*
X156907238Y-107427528D01*
X156937910Y-107326400D01*
X156814224Y-107124000D01*
X155797000Y-107124000D01*
X155797000Y-108142085D01*
X155899534Y-108204309D01*
X155867726Y-108225563D01*
X155723563Y-108369726D01*
X155610295Y-108539244D01*
X155532274Y-108727602D01*
X155492500Y-108927561D01*
X152207500Y-108927561D01*
X152207500Y-105915301D01*
X152365802Y-105757000D01*
X152602291Y-105757000D01*
X152652456Y-105832077D01*
X152817379Y-105997000D01*
X152652456Y-106161923D01*
X152509093Y-106376482D01*
X152410342Y-106614887D01*
X152360000Y-106867976D01*
X152360000Y-107126024D01*
X152410342Y-107379113D01*
X152509093Y-107617518D01*
X152652456Y-107832077D01*
X152834923Y-108014544D01*
X153049482Y-108157907D01*
X153287887Y-108256658D01*
X153540976Y-108307000D01*
X153799024Y-108307000D01*
X154052113Y-108256658D01*
X154290518Y-108157907D01*
X154505077Y-108014544D01*
X154674715Y-107844906D01*
X154691697Y-107868227D01*
X154880463Y-108042344D01*
X155099570Y-108176289D01*
X155340599Y-108264915D01*
X155543000Y-108142085D01*
X155543000Y-107124000D01*
X155523000Y-107124000D01*
X155523000Y-106870000D01*
X155543000Y-106870000D01*
X155543000Y-106850000D01*
X155797000Y-106850000D01*
X155797000Y-106870000D01*
X156814224Y-106870000D01*
X156937910Y-106667600D01*
X156907238Y-106566472D01*
X156799473Y-106333371D01*
X156648303Y-106125773D01*
X156515940Y-106003681D01*
X156687544Y-105832077D01*
X156830907Y-105617518D01*
X156929658Y-105379113D01*
X156980000Y-105126024D01*
X156980000Y-104867976D01*
X156929658Y-104614887D01*
X156830907Y-104376482D01*
X156687544Y-104161923D01*
X156522621Y-103997000D01*
X156687544Y-103832077D01*
X156830907Y-103617518D01*
X156929658Y-103379113D01*
X156980000Y-103126024D01*
X156980000Y-102867976D01*
X156929658Y-102614887D01*
X156830907Y-102376482D01*
X156687544Y-102161923D01*
X156505077Y-101979456D01*
X156290518Y-101836093D01*
X156052113Y-101737342D01*
X155799024Y-101687000D01*
X155540976Y-101687000D01*
X155287887Y-101737342D01*
X155049482Y-101836093D01*
X154867487Y-101957697D01*
X154796185Y-101870815D01*
X154699494Y-101791463D01*
X154589180Y-101732498D01*
X154469482Y-101696188D01*
X154345000Y-101683928D01*
X152995000Y-101683928D01*
X152870518Y-101696188D01*
X152750820Y-101732498D01*
X152640506Y-101791463D01*
X152543815Y-101870815D01*
X152464463Y-101967506D01*
X152405498Y-102077820D01*
X152369188Y-102197518D01*
X152365299Y-102237000D01*
X152310333Y-102237000D01*
X152273000Y-102233323D01*
X152242000Y-102236376D01*
X152242000Y-99869413D01*
X152460192Y-99869413D01*
X152555956Y-100133814D01*
X152845571Y-100274704D01*
X153157108Y-100356384D01*
X153478595Y-100375718D01*
X153797675Y-100331961D01*
X154102088Y-100226795D01*
X154276044Y-100133814D01*
X154371808Y-99869413D01*
X158960192Y-99869413D01*
X159055956Y-100133814D01*
X159345571Y-100274704D01*
X159657108Y-100356384D01*
X159978595Y-100375718D01*
X160297675Y-100331961D01*
X160602088Y-100226795D01*
X160776044Y-100133814D01*
X160871808Y-99869413D01*
X159916000Y-98913605D01*
X158960192Y-99869413D01*
X154371808Y-99869413D01*
X153416000Y-98913605D01*
X152460192Y-99869413D01*
X152242000Y-99869413D01*
X152242000Y-99675832D01*
X152280587Y-99689808D01*
X153236395Y-98734000D01*
X153595605Y-98734000D01*
X154551413Y-99689808D01*
X154815814Y-99594044D01*
X154956704Y-99304429D01*
X155038384Y-98992892D01*
X155050189Y-98796595D01*
X158274282Y-98796595D01*
X158318039Y-99115675D01*
X158423205Y-99420088D01*
X158516186Y-99594044D01*
X158780587Y-99689808D01*
X159736395Y-98734000D01*
X160095605Y-98734000D01*
X161051413Y-99689808D01*
X161315814Y-99594044D01*
X161456704Y-99304429D01*
X161538384Y-98992892D01*
X161557718Y-98671405D01*
X161513961Y-98352325D01*
X161408795Y-98047912D01*
X161315814Y-97873956D01*
X161051413Y-97778192D01*
X160095605Y-98734000D01*
X159736395Y-98734000D01*
X158780587Y-97778192D01*
X158516186Y-97873956D01*
X158375296Y-98163571D01*
X158293616Y-98475108D01*
X158274282Y-98796595D01*
X155050189Y-98796595D01*
X155057718Y-98671405D01*
X155013961Y-98352325D01*
X154908795Y-98047912D01*
X154815814Y-97873956D01*
X154551413Y-97778192D01*
X153595605Y-98734000D01*
X153236395Y-98734000D01*
X152280587Y-97778192D01*
X152242000Y-97792168D01*
X152242000Y-97598587D01*
X152460192Y-97598587D01*
X153416000Y-98554395D01*
X154371808Y-97598587D01*
X158960192Y-97598587D01*
X159916000Y-98554395D01*
X160871808Y-97598587D01*
X160776044Y-97334186D01*
X160486429Y-97193296D01*
X160174892Y-97111616D01*
X159853405Y-97092282D01*
X159534325Y-97136039D01*
X159229912Y-97241205D01*
X159055956Y-97334186D01*
X158960192Y-97598587D01*
X154371808Y-97598587D01*
X154276044Y-97334186D01*
X153986429Y-97193296D01*
X153674892Y-97111616D01*
X153353405Y-97092282D01*
X153034325Y-97136039D01*
X152729912Y-97241205D01*
X152555956Y-97334186D01*
X152460192Y-97598587D01*
X152242000Y-97598587D01*
X152242000Y-95372239D01*
X152373748Y-95503987D01*
X152641537Y-95682918D01*
X152939088Y-95806168D01*
X153254967Y-95869000D01*
X153577033Y-95869000D01*
X153892912Y-95806168D01*
X154190463Y-95682918D01*
X154458252Y-95503987D01*
X154685987Y-95276252D01*
X154864918Y-95008463D01*
X154988168Y-94710912D01*
X155051000Y-94395033D01*
X155051000Y-94072967D01*
X158281000Y-94072967D01*
X158281000Y-94395033D01*
X158343832Y-94710912D01*
X158467082Y-95008463D01*
X158646013Y-95276252D01*
X158873748Y-95503987D01*
X159141537Y-95682918D01*
X159439088Y-95806168D01*
X159754967Y-95869000D01*
X160077033Y-95869000D01*
X160392912Y-95806168D01*
X160690463Y-95682918D01*
X160958252Y-95503987D01*
X161185987Y-95276252D01*
X161364918Y-95008463D01*
X161488168Y-94710912D01*
X161551000Y-94395033D01*
X161551000Y-94072967D01*
X161488168Y-93757088D01*
X161364918Y-93459537D01*
X161185987Y-93191748D01*
X160958252Y-92964013D01*
X160690463Y-92785082D01*
X160392912Y-92661832D01*
X160077033Y-92599000D01*
X159754967Y-92599000D01*
X159439088Y-92661832D01*
X159141537Y-92785082D01*
X158873748Y-92964013D01*
X158646013Y-93191748D01*
X158467082Y-93459537D01*
X158343832Y-93757088D01*
X158281000Y-94072967D01*
X155051000Y-94072967D01*
X154988168Y-93757088D01*
X154864918Y-93459537D01*
X154685987Y-93191748D01*
X154458252Y-92964013D01*
X154190463Y-92785082D01*
X153892912Y-92661832D01*
X153577033Y-92599000D01*
X153254967Y-92599000D01*
X152939088Y-92661832D01*
X152641537Y-92785082D01*
X152373748Y-92964013D01*
X152242000Y-93095761D01*
X152242000Y-89694500D01*
X165771500Y-89694500D01*
X166078928Y-90001928D01*
X165570000Y-90001928D01*
X165445518Y-90014188D01*
X165325820Y-90050498D01*
X165215506Y-90109463D01*
X165118815Y-90188815D01*
X165039463Y-90285506D01*
X164980498Y-90395820D01*
X164944188Y-90515518D01*
X164931928Y-90640000D01*
X164931928Y-92240000D01*
X164944188Y-92364482D01*
X164980498Y-92484180D01*
X165039463Y-92594494D01*
X165118815Y-92691185D01*
X165215506Y-92770537D01*
X165325820Y-92829502D01*
X165445518Y-92865812D01*
X165570000Y-92878072D01*
X165610000Y-92878072D01*
X165610001Y-106555696D01*
X157292199Y-114873500D01*
X136657211Y-114873500D01*
X136613274Y-114829563D01*
X136443756Y-114716295D01*
X136255398Y-114638274D01*
X136055439Y-114598500D01*
X135851561Y-114598500D01*
X135651602Y-114638274D01*
X135463244Y-114716295D01*
X135293726Y-114829563D01*
X135149563Y-114973726D01*
X135036295Y-115143244D01*
X134958274Y-115331602D01*
X134918500Y-115531561D01*
X134918500Y-115735439D01*
X134958274Y-115935398D01*
X135036295Y-116123756D01*
X135149563Y-116293274D01*
X135293726Y-116437437D01*
X135463244Y-116550705D01*
X135623293Y-116617000D01*
X118455896Y-116617000D01*
X118326259Y-116487363D01*
X118091227Y-116330320D01*
X117830074Y-116222147D01*
X117552835Y-116167000D01*
X117317801Y-116167000D01*
X120710802Y-112774000D01*
X140456789Y-112774000D01*
X140500726Y-112817937D01*
X140670244Y-112931205D01*
X140858602Y-113009226D01*
X141058561Y-113049000D01*
X141262439Y-113049000D01*
X141462398Y-113009226D01*
X141650756Y-112931205D01*
X141820274Y-112817937D01*
X141964437Y-112673774D01*
X142077705Y-112504256D01*
X142155726Y-112315898D01*
X142195500Y-112115939D01*
X142195500Y-111912061D01*
X142155726Y-111712102D01*
X142077705Y-111523744D01*
X141964437Y-111354226D01*
X141820274Y-111210063D01*
X141650756Y-111096795D01*
X141462398Y-111018774D01*
X141262439Y-110979000D01*
X141058561Y-110979000D01*
X140858602Y-111018774D01*
X140670244Y-111096795D01*
X140500726Y-111210063D01*
X140456789Y-111254000D01*
X120433323Y-111254000D01*
X120396000Y-111250324D01*
X120358677Y-111254000D01*
X120358667Y-111254000D01*
X120247014Y-111264997D01*
X120103753Y-111308454D01*
X119971724Y-111379026D01*
X119855999Y-111473999D01*
X119832201Y-111502997D01*
X115171271Y-116163928D01*
X114071500Y-116163928D01*
X113947018Y-116176188D01*
X113827320Y-116212498D01*
X113717006Y-116271463D01*
X113620315Y-116350815D01*
X113540963Y-116447506D01*
X113481998Y-116557820D01*
X113445688Y-116677518D01*
X113433428Y-116802000D01*
X113433428Y-118264127D01*
X112901000Y-117731699D01*
X112901000Y-109840665D01*
X113436500Y-109840665D01*
X113436500Y-110123335D01*
X113491647Y-110400574D01*
X113599820Y-110661727D01*
X113756863Y-110896759D01*
X113956741Y-111096637D01*
X114191773Y-111253680D01*
X114452926Y-111361853D01*
X114730165Y-111417000D01*
X115012835Y-111417000D01*
X115290074Y-111361853D01*
X115551227Y-111253680D01*
X115786259Y-111096637D01*
X115986137Y-110896759D01*
X116141500Y-110664241D01*
X116296863Y-110896759D01*
X116496741Y-111096637D01*
X116731773Y-111253680D01*
X116992926Y-111361853D01*
X117270165Y-111417000D01*
X117552835Y-111417000D01*
X117830074Y-111361853D01*
X118091227Y-111253680D01*
X118326259Y-111096637D01*
X118526137Y-110896759D01*
X118683180Y-110661727D01*
X118791353Y-110400574D01*
X118846500Y-110123335D01*
X118846500Y-109840665D01*
X118791353Y-109563426D01*
X118683180Y-109302273D01*
X118526137Y-109067241D01*
X118326259Y-108867363D01*
X118091227Y-108710320D01*
X117830074Y-108602147D01*
X117552835Y-108547000D01*
X117270165Y-108547000D01*
X116992926Y-108602147D01*
X116731773Y-108710320D01*
X116496741Y-108867363D01*
X116296863Y-109067241D01*
X116141500Y-109299759D01*
X115986137Y-109067241D01*
X115786259Y-108867363D01*
X115551227Y-108710320D01*
X115290074Y-108602147D01*
X115012835Y-108547000D01*
X114730165Y-108547000D01*
X114452926Y-108602147D01*
X114191773Y-108710320D01*
X113956741Y-108867363D01*
X113756863Y-109067241D01*
X113599820Y-109302273D01*
X113491647Y-109563426D01*
X113436500Y-109840665D01*
X112901000Y-109840665D01*
X112901000Y-106832061D01*
X138601500Y-106832061D01*
X138601500Y-107035939D01*
X138641274Y-107235898D01*
X138719295Y-107424256D01*
X138832563Y-107593774D01*
X138976726Y-107737937D01*
X139146244Y-107851205D01*
X139334602Y-107929226D01*
X139534561Y-107969000D01*
X139738439Y-107969000D01*
X139938398Y-107929226D01*
X139963086Y-107919000D01*
X143038500Y-107919000D01*
X143725570Y-108606071D01*
X143735795Y-108630756D01*
X143849063Y-108800274D01*
X143993226Y-108944437D01*
X144162744Y-109057705D01*
X144351102Y-109135726D01*
X144551061Y-109175500D01*
X144754939Y-109175500D01*
X144954898Y-109135726D01*
X145143256Y-109057705D01*
X145312774Y-108944437D01*
X145456937Y-108800274D01*
X145570205Y-108630756D01*
X145648226Y-108442398D01*
X145688000Y-108242439D01*
X145688000Y-108038561D01*
X145648226Y-107838602D01*
X145570205Y-107650244D01*
X145456937Y-107480726D01*
X145312774Y-107336563D01*
X145143256Y-107223295D01*
X145118571Y-107213070D01*
X144177215Y-106271715D01*
X144146370Y-106234130D01*
X143996384Y-106111040D01*
X143825267Y-106019576D01*
X143639594Y-105963253D01*
X143494880Y-105949000D01*
X143446500Y-105944235D01*
X143398120Y-105949000D01*
X139963086Y-105949000D01*
X139938398Y-105938774D01*
X139738439Y-105899000D01*
X139534561Y-105899000D01*
X139334602Y-105938774D01*
X139146244Y-106016795D01*
X138976726Y-106130063D01*
X138832563Y-106274226D01*
X138719295Y-106443744D01*
X138641274Y-106632102D01*
X138601500Y-106832061D01*
X112901000Y-106832061D01*
X112901000Y-106740801D01*
X114932302Y-104709500D01*
X132677678Y-104709500D01*
X132715000Y-104713176D01*
X132752322Y-104709500D01*
X132752333Y-104709500D01*
X132863986Y-104698503D01*
X133007247Y-104655046D01*
X133139276Y-104584474D01*
X133255001Y-104489501D01*
X133278804Y-104460497D01*
X137326803Y-100412500D01*
X137388939Y-100412500D01*
X137588898Y-100372726D01*
X137777256Y-100294705D01*
X137946774Y-100181437D01*
X138090937Y-100037274D01*
X138204205Y-99867756D01*
X138282226Y-99679398D01*
X138322000Y-99479439D01*
X138322000Y-99275561D01*
X138282226Y-99075602D01*
X138204205Y-98887244D01*
X138090937Y-98717726D01*
X137946774Y-98573563D01*
X137777256Y-98460295D01*
X137588898Y-98382274D01*
X137388939Y-98342500D01*
X137185061Y-98342500D01*
X136985102Y-98382274D01*
X136796744Y-98460295D01*
X136627226Y-98573563D01*
X136483063Y-98717726D01*
X136369795Y-98887244D01*
X136291774Y-99075602D01*
X136252000Y-99275561D01*
X136252000Y-99337697D01*
X133390469Y-102199230D01*
X133475275Y-101994489D01*
X133528500Y-101726911D01*
X133528500Y-101454089D01*
X133475275Y-101186511D01*
X133370871Y-100934457D01*
X133219299Y-100707614D01*
X133026386Y-100514701D01*
X132799543Y-100363129D01*
X132547489Y-100258725D01*
X132498135Y-100248908D01*
X132626247Y-100210046D01*
X132758276Y-100139474D01*
X132874001Y-100044501D01*
X132897804Y-100015497D01*
X135507802Y-97405500D01*
X136457789Y-97405500D01*
X136501726Y-97449437D01*
X136671244Y-97562705D01*
X136859602Y-97640726D01*
X137059561Y-97680500D01*
X137263439Y-97680500D01*
X137463398Y-97640726D01*
X137651756Y-97562705D01*
X137821274Y-97449437D01*
X137965437Y-97305274D01*
X138078705Y-97135756D01*
X138156726Y-96947398D01*
X138196500Y-96747439D01*
X138196500Y-96543561D01*
X138156726Y-96343602D01*
X138078705Y-96155244D01*
X137965437Y-95985726D01*
X137863211Y-95883500D01*
X137891437Y-95855274D01*
X138004705Y-95685756D01*
X138082726Y-95497398D01*
X138122500Y-95297439D01*
X138122500Y-95093561D01*
X138082726Y-94893602D01*
X138004705Y-94705244D01*
X137891437Y-94535726D01*
X137747274Y-94391563D01*
X137577756Y-94278295D01*
X137389398Y-94200274D01*
X137189439Y-94160500D01*
X136985561Y-94160500D01*
X136785602Y-94200274D01*
X136597244Y-94278295D01*
X136427726Y-94391563D01*
X136383789Y-94435500D01*
X109818849Y-94435500D01*
X109696706Y-94206986D01*
X109511134Y-93980866D01*
X109285014Y-93795294D01*
X109259278Y-93781538D01*
X109465429Y-93625049D01*
X109658496Y-93407193D01*
X109805352Y-93155858D01*
X109897476Y-92892890D01*
X109776155Y-92663000D01*
X108458000Y-92663000D01*
X108458000Y-92683000D01*
X108204000Y-92683000D01*
X108204000Y-92663000D01*
X106885845Y-92663000D01*
X106764524Y-92892890D01*
X106856648Y-93155858D01*
X107003504Y-93407193D01*
X107196571Y-93625049D01*
X107402722Y-93781538D01*
X107376986Y-93795294D01*
X107150866Y-93980866D01*
X106965294Y-94206986D01*
X106827401Y-94464966D01*
X106742487Y-94744889D01*
X106713815Y-95036000D01*
X106742487Y-95327111D01*
X106827401Y-95607034D01*
X106965294Y-95865014D01*
X107150866Y-96091134D01*
X107214337Y-96143223D01*
X107112614Y-96197595D01*
X106978038Y-96308038D01*
X106867595Y-96442614D01*
X106785528Y-96596150D01*
X106734992Y-96762746D01*
X106717928Y-96936000D01*
X106717928Y-98136000D01*
X106734992Y-98309254D01*
X106785528Y-98475850D01*
X106867595Y-98629386D01*
X106978038Y-98763962D01*
X107112614Y-98874405D01*
X107266150Y-98956472D01*
X107432746Y-99007008D01*
X107606000Y-99024072D01*
X109056000Y-99024072D01*
X109229254Y-99007008D01*
X109395850Y-98956472D01*
X109549386Y-98874405D01*
X109683962Y-98763962D01*
X109794405Y-98629386D01*
X109876472Y-98475850D01*
X109927008Y-98309254D01*
X109944072Y-98136000D01*
X109944072Y-96936000D01*
X109927008Y-96762746D01*
X109876472Y-96596150D01*
X109794405Y-96442614D01*
X109683962Y-96308038D01*
X109549386Y-96197595D01*
X109447663Y-96143223D01*
X109511134Y-96091134D01*
X109622446Y-95955500D01*
X130982250Y-95955500D01*
X130916129Y-96054457D01*
X130811725Y-96306511D01*
X130758500Y-96574089D01*
X130758500Y-96846911D01*
X130811725Y-97114489D01*
X130916129Y-97366543D01*
X131067701Y-97593386D01*
X131260614Y-97786299D01*
X131487457Y-97937871D01*
X131739511Y-98042275D01*
X132007089Y-98095500D01*
X132279911Y-98095500D01*
X132547489Y-98042275D01*
X132799543Y-97937871D01*
X132878757Y-97884942D01*
X132019199Y-98744500D01*
X115456822Y-98744500D01*
X115419499Y-98740824D01*
X115382176Y-98744500D01*
X115382167Y-98744500D01*
X115270514Y-98755497D01*
X115127253Y-98798954D01*
X114995224Y-98869526D01*
X114995222Y-98869527D01*
X114995223Y-98869527D01*
X114908496Y-98940701D01*
X114908492Y-98940705D01*
X114879499Y-98964499D01*
X114855705Y-98993492D01*
X109819700Y-104029498D01*
X109712656Y-104029498D01*
X109833976Y-103799610D01*
X109741852Y-103536642D01*
X109594996Y-103285307D01*
X109401929Y-103067451D01*
X109170070Y-102891447D01*
X108908330Y-102764058D01*
X108626767Y-102690180D01*
X108394500Y-102830335D01*
X108394500Y-104029500D01*
X108414500Y-104029500D01*
X108414500Y-104283500D01*
X108394500Y-104283500D01*
X108394500Y-104303500D01*
X108140500Y-104303500D01*
X108140500Y-104283500D01*
X106822345Y-104283500D01*
X106701024Y-104513390D01*
X106793148Y-104776358D01*
X106940004Y-105027693D01*
X107133071Y-105245549D01*
X107339222Y-105402038D01*
X107313486Y-105415794D01*
X107087366Y-105601366D01*
X106901794Y-105827486D01*
X106763901Y-106085466D01*
X106678987Y-106365389D01*
X106650315Y-106656500D01*
X106678987Y-106947611D01*
X106763901Y-107227534D01*
X106901794Y-107485514D01*
X107087366Y-107711634D01*
X107150837Y-107763723D01*
X107049114Y-107818095D01*
X106914538Y-107928538D01*
X106804095Y-108063114D01*
X106722028Y-108216650D01*
X106671492Y-108383246D01*
X106654428Y-108556500D01*
X106654428Y-109756500D01*
X106671492Y-109929754D01*
X106722028Y-110096350D01*
X106804095Y-110249886D01*
X106914538Y-110384462D01*
X107049114Y-110494905D01*
X107202650Y-110576972D01*
X107369246Y-110627508D01*
X107542500Y-110644572D01*
X108992500Y-110644572D01*
X109165754Y-110627508D01*
X109332350Y-110576972D01*
X109485886Y-110494905D01*
X109620462Y-110384462D01*
X109730905Y-110249886D01*
X109812972Y-110096350D01*
X109863508Y-109929754D01*
X109880572Y-109756500D01*
X109880572Y-108556500D01*
X109863508Y-108383246D01*
X109812972Y-108216650D01*
X109730905Y-108063114D01*
X109620462Y-107928538D01*
X109485886Y-107818095D01*
X109384163Y-107763723D01*
X109447634Y-107711634D01*
X109633206Y-107485514D01*
X109771099Y-107227534D01*
X109856013Y-106947611D01*
X109884685Y-106656500D01*
X109856013Y-106365389D01*
X109804204Y-106194597D01*
X115734303Y-100264500D01*
X131725569Y-100264500D01*
X131487457Y-100363129D01*
X131260614Y-100514701D01*
X131067701Y-100707614D01*
X130916129Y-100934457D01*
X130811725Y-101186511D01*
X130758500Y-101454089D01*
X130758500Y-101726911D01*
X130811725Y-101994489D01*
X130916129Y-102246543D01*
X131067701Y-102473386D01*
X131260614Y-102666299D01*
X131487457Y-102817871D01*
X131739511Y-102922275D01*
X132007089Y-102975500D01*
X132279911Y-102975500D01*
X132547489Y-102922275D01*
X132752230Y-102837469D01*
X132400199Y-103189500D01*
X114654823Y-103189500D01*
X114617500Y-103185824D01*
X114580177Y-103189500D01*
X114580167Y-103189500D01*
X114468514Y-103200497D01*
X114325253Y-103243954D01*
X114193223Y-103314526D01*
X114109583Y-103383168D01*
X114077499Y-103409499D01*
X114053701Y-103438497D01*
X111629998Y-105862201D01*
X111601000Y-105885999D01*
X111577202Y-105914997D01*
X111577201Y-105914998D01*
X111506026Y-106001724D01*
X111435454Y-106133754D01*
X111410726Y-106215276D01*
X111391998Y-106277014D01*
X111384337Y-106354799D01*
X111377324Y-106426000D01*
X111381001Y-106463332D01*
X111381000Y-114115500D01*
X110972931Y-113707431D01*
X110962705Y-113682744D01*
X110849437Y-113513226D01*
X110705274Y-113369063D01*
X110535756Y-113255795D01*
X110347398Y-113177774D01*
X110147439Y-113138000D01*
X109943561Y-113138000D01*
X109743602Y-113177774D01*
X109555244Y-113255795D01*
X109385726Y-113369063D01*
X109241563Y-113513226D01*
X109128295Y-113682744D01*
X109050274Y-113871102D01*
X109010500Y-114071061D01*
X109010500Y-114274939D01*
X109050274Y-114474898D01*
X109128295Y-114663256D01*
X109241563Y-114832774D01*
X109385726Y-114976937D01*
X109555244Y-115090205D01*
X109579931Y-115100431D01*
X110394000Y-115914500D01*
X110394001Y-121818005D01*
X110347201Y-121705021D01*
X110004114Y-121191554D01*
X109567446Y-120754886D01*
X109053979Y-120411799D01*
X108483446Y-120175476D01*
X107877771Y-120055000D01*
X107260229Y-120055000D01*
X106654554Y-120175476D01*
X106084021Y-120411799D01*
X105570554Y-120754886D01*
X105133886Y-121191554D01*
X104790799Y-121705021D01*
X104554476Y-122275554D01*
X104434000Y-122881229D01*
X104434000Y-123498771D01*
X104554476Y-124104446D01*
X104790799Y-124674979D01*
X105133886Y-125188446D01*
X105570554Y-125625114D01*
X106084021Y-125968201D01*
X106654554Y-126204524D01*
X107260229Y-126325000D01*
X107877771Y-126325000D01*
X108483446Y-126204524D01*
X109053979Y-125968201D01*
X109567446Y-125625114D01*
X110004114Y-125188446D01*
X110347201Y-124674979D01*
X110394001Y-124561995D01*
X110394001Y-125237111D01*
X110389235Y-125285500D01*
X110408253Y-125478593D01*
X110464576Y-125664266D01*
X110507152Y-125743919D01*
X110556041Y-125835384D01*
X110679131Y-125985370D01*
X110716711Y-126016211D01*
X113707500Y-129007000D01*
X108102926Y-129007000D01*
X107187207Y-128934931D01*
X106319322Y-128726570D01*
X105494720Y-128385009D01*
X104733701Y-127918655D01*
X104055006Y-127338994D01*
X103475345Y-126660299D01*
X103008989Y-125899275D01*
X102667430Y-125074678D01*
X102459068Y-124206791D01*
X102387000Y-123291074D01*
X102387000Y-103799610D01*
X106701024Y-103799610D01*
X106822345Y-104029500D01*
X108140500Y-104029500D01*
X108140500Y-102830335D01*
X107908233Y-102690180D01*
X107626670Y-102764058D01*
X107364930Y-102891447D01*
X107133071Y-103067451D01*
X106940004Y-103285307D01*
X106793148Y-103536642D01*
X106701024Y-103799610D01*
X102387000Y-103799610D01*
X102387000Y-92179110D01*
X106764524Y-92179110D01*
X106885845Y-92409000D01*
X108204000Y-92409000D01*
X108204000Y-91209835D01*
X108458000Y-91209835D01*
X108458000Y-92409000D01*
X109776155Y-92409000D01*
X109897476Y-92179110D01*
X109805352Y-91916142D01*
X109658496Y-91664807D01*
X109465429Y-91446951D01*
X109233570Y-91270947D01*
X108971830Y-91143558D01*
X108690267Y-91069680D01*
X108458000Y-91209835D01*
X108204000Y-91209835D01*
X107971733Y-91069680D01*
X107690170Y-91143558D01*
X107428430Y-91270947D01*
X107196571Y-91446951D01*
X107003504Y-91664807D01*
X106856648Y-91916142D01*
X106764524Y-92179110D01*
X102387000Y-92179110D01*
X102387000Y-87137724D01*
X110145881Y-87137724D01*
X110277817Y-87432812D01*
X110618545Y-87603659D01*
X110986057Y-87704750D01*
X111366229Y-87732201D01*
X111744451Y-87684957D01*
X112106190Y-87564833D01*
X112353183Y-87432812D01*
X112485119Y-87137724D01*
X111315500Y-85968105D01*
X110145881Y-87137724D01*
X102387000Y-87137724D01*
X102387000Y-85839229D01*
X109371799Y-85839229D01*
X109419043Y-86217451D01*
X109539167Y-86579190D01*
X109671188Y-86826183D01*
X109966276Y-86958119D01*
X111135895Y-85788500D01*
X111495105Y-85788500D01*
X112664724Y-86958119D01*
X112959812Y-86826183D01*
X113130659Y-86485455D01*
X113231750Y-86117943D01*
X113259201Y-85737771D01*
X113211957Y-85359549D01*
X113091833Y-84997810D01*
X112959812Y-84750817D01*
X112664724Y-84618881D01*
X111495105Y-85788500D01*
X111135895Y-85788500D01*
X109966276Y-84618881D01*
X109671188Y-84750817D01*
X109500341Y-85091545D01*
X109399250Y-85459057D01*
X109371799Y-85839229D01*
X102387000Y-85839229D01*
X102387000Y-84439276D01*
X110145881Y-84439276D01*
X111315500Y-85608895D01*
X112485119Y-84439276D01*
X112353183Y-84144188D01*
X112012455Y-83973341D01*
X111644943Y-83872250D01*
X111264771Y-83844799D01*
X110886549Y-83892043D01*
X110524810Y-84012167D01*
X110277817Y-84144188D01*
X110145881Y-84439276D01*
X102387000Y-84439276D01*
X102387000Y-79408500D01*
X109377428Y-79408500D01*
X109377428Y-82008500D01*
X109389688Y-82132982D01*
X109425998Y-82252680D01*
X109484963Y-82362994D01*
X109564315Y-82459685D01*
X109661006Y-82539037D01*
X109771320Y-82598002D01*
X109891018Y-82634312D01*
X110015500Y-82646572D01*
X112615500Y-82646572D01*
X112739982Y-82634312D01*
X112859680Y-82598002D01*
X112969994Y-82539037D01*
X113066685Y-82459685D01*
X113146037Y-82362994D01*
X113205002Y-82252680D01*
X113241312Y-82132982D01*
X113253572Y-82008500D01*
X113253572Y-79408500D01*
X113241312Y-79284018D01*
X113205002Y-79164320D01*
X113146037Y-79054006D01*
X113066685Y-78957315D01*
X112969994Y-78877963D01*
X112859680Y-78818998D01*
X112739982Y-78782688D01*
X112615500Y-78770428D01*
X110015500Y-78770428D01*
X109891018Y-78782688D01*
X109771320Y-78818998D01*
X109661006Y-78877963D01*
X109564315Y-78957315D01*
X109484963Y-79054006D01*
X109425998Y-79164320D01*
X109389688Y-79284018D01*
X109377428Y-79408500D01*
X102387000Y-79408500D01*
X102387000Y-72542926D01*
X102448323Y-71763729D01*
X104180000Y-71763729D01*
X104180000Y-72381271D01*
X104300476Y-72986946D01*
X104536799Y-73557479D01*
X104879886Y-74070946D01*
X105316554Y-74507614D01*
X105830021Y-74850701D01*
X106400554Y-75087024D01*
X107006229Y-75207500D01*
X107623771Y-75207500D01*
X108229446Y-75087024D01*
X108799979Y-74850701D01*
X109313446Y-74507614D01*
X109750114Y-74070946D01*
X110093201Y-73557479D01*
X110329524Y-72986946D01*
X110450000Y-72381271D01*
X110450000Y-71763729D01*
X110329524Y-71158054D01*
X110171272Y-70776000D01*
X114208928Y-70776000D01*
X114208928Y-72226000D01*
X114225992Y-72399254D01*
X114276528Y-72565850D01*
X114358595Y-72719386D01*
X114469038Y-72853962D01*
X114603614Y-72964405D01*
X114757150Y-73046472D01*
X114923746Y-73097008D01*
X115097000Y-73114072D01*
X116297000Y-73114072D01*
X116470254Y-73097008D01*
X116636850Y-73046472D01*
X116790386Y-72964405D01*
X116924962Y-72853962D01*
X117035405Y-72719386D01*
X117089777Y-72617663D01*
X117141866Y-72681134D01*
X117367987Y-72866706D01*
X117437001Y-72903595D01*
X117437000Y-78281677D01*
X117433324Y-78319000D01*
X117437000Y-78356322D01*
X117437000Y-78356332D01*
X117447997Y-78467985D01*
X117477426Y-78565001D01*
X117491454Y-78611246D01*
X117562026Y-78743276D01*
X117594371Y-78782688D01*
X117656999Y-78859001D01*
X117686003Y-78882804D01*
X131135201Y-92332003D01*
X131158999Y-92361001D01*
X131187997Y-92384799D01*
X131274724Y-92455974D01*
X131406753Y-92526546D01*
X131550014Y-92570003D01*
X131699000Y-92584677D01*
X131736333Y-92581000D01*
X136392789Y-92581000D01*
X136436726Y-92624937D01*
X136606244Y-92738205D01*
X136794602Y-92816226D01*
X136994561Y-92856000D01*
X137198439Y-92856000D01*
X137398398Y-92816226D01*
X137586756Y-92738205D01*
X137756274Y-92624937D01*
X137900437Y-92480774D01*
X138013705Y-92311256D01*
X138091726Y-92122898D01*
X138131500Y-91922939D01*
X138131500Y-91719061D01*
X138091726Y-91519102D01*
X138013705Y-91330744D01*
X137980634Y-91281250D01*
X138013705Y-91231756D01*
X138091726Y-91043398D01*
X138131500Y-90843439D01*
X138131500Y-90639561D01*
X138091726Y-90439602D01*
X138013705Y-90251244D01*
X137900437Y-90081726D01*
X137756274Y-89937563D01*
X137586756Y-89824295D01*
X137398398Y-89746274D01*
X137198439Y-89706500D01*
X136994561Y-89706500D01*
X136794602Y-89746274D01*
X136606244Y-89824295D01*
X136436726Y-89937563D01*
X136392789Y-89981500D01*
X133728302Y-89981500D01*
X121457000Y-77710199D01*
X121457000Y-72903595D01*
X121526014Y-72866706D01*
X121752134Y-72681134D01*
X121937706Y-72455014D01*
X121951462Y-72429278D01*
X122107951Y-72635429D01*
X122325807Y-72828496D01*
X122577142Y-72975352D01*
X122840110Y-73067476D01*
X123070000Y-72946155D01*
X123070000Y-71628000D01*
X123324000Y-71628000D01*
X123324000Y-72946155D01*
X123553890Y-73067476D01*
X123816858Y-72975352D01*
X124068193Y-72828496D01*
X124286049Y-72635429D01*
X124462053Y-72403570D01*
X124589442Y-72141830D01*
X124663320Y-71860267D01*
X124523165Y-71628000D01*
X123324000Y-71628000D01*
X123070000Y-71628000D01*
X123050000Y-71628000D01*
X123050000Y-71374000D01*
X123070000Y-71374000D01*
X123070000Y-70055845D01*
X123324000Y-70055845D01*
X123324000Y-71374000D01*
X124523165Y-71374000D01*
X124663320Y-71141733D01*
X124589442Y-70860170D01*
X124462053Y-70598430D01*
X124286049Y-70366571D01*
X124068193Y-70173504D01*
X123816858Y-70026648D01*
X123553890Y-69934524D01*
X123324000Y-70055845D01*
X123070000Y-70055845D01*
X122840110Y-69934524D01*
X122577142Y-70026648D01*
X122325807Y-70173504D01*
X122107951Y-70366571D01*
X121951462Y-70572722D01*
X121937706Y-70546986D01*
X121752134Y-70320866D01*
X121526013Y-70135294D01*
X121268033Y-69997401D01*
X120988110Y-69912487D01*
X120697000Y-69883815D01*
X120405889Y-69912487D01*
X120125966Y-69997401D01*
X119867986Y-70135294D01*
X119641866Y-70320866D01*
X119456294Y-70546987D01*
X119447000Y-70564374D01*
X119437706Y-70546986D01*
X119252134Y-70320866D01*
X119026013Y-70135294D01*
X118768033Y-69997401D01*
X118488110Y-69912487D01*
X118197000Y-69883815D01*
X117905889Y-69912487D01*
X117625966Y-69997401D01*
X117367986Y-70135294D01*
X117141866Y-70320866D01*
X117089777Y-70384337D01*
X117035405Y-70282614D01*
X116924962Y-70148038D01*
X116790386Y-70037595D01*
X116636850Y-69955528D01*
X116470254Y-69904992D01*
X116297000Y-69887928D01*
X115097000Y-69887928D01*
X114923746Y-69904992D01*
X114757150Y-69955528D01*
X114603614Y-70037595D01*
X114469038Y-70148038D01*
X114358595Y-70282614D01*
X114276528Y-70436150D01*
X114225992Y-70602746D01*
X114208928Y-70776000D01*
X110171272Y-70776000D01*
X110093201Y-70587521D01*
X109750114Y-70074054D01*
X109313446Y-69637386D01*
X108799979Y-69294299D01*
X108229446Y-69057976D01*
X107623771Y-68937500D01*
X107006229Y-68937500D01*
X106400554Y-69057976D01*
X105830021Y-69294299D01*
X105316554Y-69637386D01*
X104879886Y-70074054D01*
X104536799Y-70587521D01*
X104300476Y-71158054D01*
X104180000Y-71763729D01*
X102448323Y-71763729D01*
X102459068Y-71627209D01*
X102667430Y-70759322D01*
X103008989Y-69934725D01*
X103475345Y-69173701D01*
X104055006Y-68495006D01*
X104733701Y-67915345D01*
X105494720Y-67448991D01*
X106319322Y-67107430D01*
X107187207Y-66899069D01*
X108102926Y-66827000D01*
X177901074Y-66827000D01*
X178816791Y-66899068D01*
%TA.AperFunction,Conductor*%
D26*
G36*
X178816791Y-66899068D02*
G01*
X179684678Y-67107430D01*
X180509275Y-67448989D01*
X181270299Y-67915345D01*
X181948994Y-68495006D01*
X182528655Y-69173701D01*
X182995009Y-69934720D01*
X183336570Y-70759322D01*
X183544931Y-71627207D01*
X183617000Y-72542926D01*
X183617001Y-123291061D01*
X183544931Y-124206793D01*
X183336570Y-125074678D01*
X182995009Y-125899280D01*
X182528655Y-126660299D01*
X181948994Y-127338994D01*
X181270299Y-127918655D01*
X180509275Y-128385011D01*
X179684678Y-128726570D01*
X178816791Y-128934932D01*
X177901074Y-129007000D01*
X156485000Y-129007000D01*
X159025071Y-126466930D01*
X159049756Y-126456705D01*
X159219274Y-126343437D01*
X159363437Y-126199274D01*
X159476705Y-126029756D01*
X159554726Y-125841398D01*
X159594500Y-125641439D01*
X159594500Y-125437561D01*
X159554726Y-125237602D01*
X159476705Y-125049244D01*
X159363437Y-124879726D01*
X159219274Y-124735563D01*
X159049756Y-124622295D01*
X158861398Y-124544274D01*
X158661439Y-124504500D01*
X158457561Y-124504500D01*
X158257602Y-124544274D01*
X158069244Y-124622295D01*
X157899726Y-124735563D01*
X157755563Y-124879726D01*
X157642295Y-125049244D01*
X157632070Y-125073929D01*
X155103500Y-127602500D01*
X115089000Y-127602500D01*
X113312114Y-125825614D01*
X113451466Y-125900099D01*
X113731389Y-125985013D01*
X114022500Y-126013685D01*
X114313610Y-125985013D01*
X114593533Y-125900099D01*
X114851513Y-125762206D01*
X115077634Y-125576634D01*
X115263206Y-125350514D01*
X115272500Y-125333126D01*
X115281794Y-125350513D01*
X115467366Y-125576634D01*
X115693486Y-125762206D01*
X115951466Y-125900099D01*
X116231389Y-125985013D01*
X116522500Y-126013685D01*
X116813610Y-125985013D01*
X117093533Y-125900099D01*
X117351513Y-125762206D01*
X117572445Y-125580892D01*
X117582998Y-125615680D01*
X117641963Y-125725994D01*
X117721315Y-125822685D01*
X117818006Y-125902037D01*
X117928320Y-125961002D01*
X118048018Y-125997312D01*
X118172500Y-126009572D01*
X118736750Y-126006500D01*
X118895500Y-125847750D01*
X118895500Y-124523500D01*
X119149500Y-124523500D01*
X119149500Y-125847750D01*
X119308250Y-126006500D01*
X119872500Y-126009572D01*
X119996982Y-125997312D01*
X120116680Y-125961002D01*
X120226994Y-125902037D01*
X120323685Y-125822685D01*
X120403037Y-125725994D01*
X120462002Y-125615680D01*
X120498312Y-125495982D01*
X120510572Y-125371500D01*
X120507578Y-124699665D01*
X135217000Y-124699665D01*
X135217000Y-124982335D01*
X135272147Y-125259574D01*
X135380320Y-125520727D01*
X135537363Y-125755759D01*
X135737241Y-125955637D01*
X135972273Y-126112680D01*
X136233426Y-126220853D01*
X136510665Y-126276000D01*
X136793335Y-126276000D01*
X137070574Y-126220853D01*
X137331727Y-126112680D01*
X137566759Y-125955637D01*
X137766637Y-125755759D01*
X137923680Y-125520727D01*
X138031853Y-125259574D01*
X138087000Y-124982335D01*
X138087000Y-124699665D01*
X138031853Y-124422426D01*
X137923680Y-124161273D01*
X137766637Y-123926241D01*
X137566759Y-123726363D01*
X137331727Y-123569320D01*
X137321135Y-123564933D01*
X137507131Y-123453385D01*
X137715519Y-123264414D01*
X137883037Y-123038420D01*
X138003246Y-122784087D01*
X138043904Y-122650039D01*
X137921915Y-122428000D01*
X136779000Y-122428000D01*
X136779000Y-122448000D01*
X136525000Y-122448000D01*
X136525000Y-122428000D01*
X135382085Y-122428000D01*
X135260096Y-122650039D01*
X135300754Y-122784087D01*
X135420963Y-123038420D01*
X135588481Y-123264414D01*
X135796869Y-123453385D01*
X135982865Y-123564933D01*
X135972273Y-123569320D01*
X135737241Y-123726363D01*
X135537363Y-123926241D01*
X135380320Y-124161273D01*
X135272147Y-124422426D01*
X135217000Y-124699665D01*
X120507578Y-124699665D01*
X120507500Y-124682250D01*
X120348750Y-124523500D01*
X119149500Y-124523500D01*
X118895500Y-124523500D01*
X118875500Y-124523500D01*
X118875500Y-124269500D01*
X118895500Y-124269500D01*
X118895500Y-122945250D01*
X119149500Y-122945250D01*
X119149500Y-124269500D01*
X120348750Y-124269500D01*
X120507500Y-124110750D01*
X120510572Y-123421500D01*
X120498312Y-123297018D01*
X120462002Y-123177320D01*
X120403037Y-123067006D01*
X120323685Y-122970315D01*
X120226994Y-122890963D01*
X120116680Y-122831998D01*
X119996982Y-122795688D01*
X119872500Y-122783428D01*
X119308250Y-122786500D01*
X119149500Y-122945250D01*
X118895500Y-122945250D01*
X118736750Y-122786500D01*
X118172500Y-122783428D01*
X118048018Y-122795688D01*
X117928320Y-122831998D01*
X117818006Y-122890963D01*
X117721315Y-122970315D01*
X117641963Y-123067006D01*
X117582998Y-123177320D01*
X117572445Y-123212108D01*
X117351514Y-123030794D01*
X117282500Y-122993905D01*
X117282500Y-122465325D01*
X117286176Y-122428000D01*
X117282500Y-122390675D01*
X117282500Y-122390667D01*
X117271503Y-122279014D01*
X117228046Y-122135753D01*
X117157474Y-122003724D01*
X117114994Y-121951961D01*
X135260096Y-121951961D01*
X135382085Y-122174000D01*
X136525000Y-122174000D01*
X136525000Y-121030376D01*
X136779000Y-121030376D01*
X136779000Y-122174000D01*
X137921915Y-122174000D01*
X138043904Y-121951961D01*
X138003246Y-121817913D01*
X137883037Y-121563580D01*
X137715519Y-121337586D01*
X137507131Y-121148615D01*
X137265881Y-121003930D01*
X137001040Y-120909091D01*
X136779000Y-121030376D01*
X136525000Y-121030376D01*
X136302960Y-120909091D01*
X136038119Y-121003930D01*
X135796869Y-121148615D01*
X135588481Y-121337586D01*
X135420963Y-121563580D01*
X135300754Y-121817913D01*
X135260096Y-121951961D01*
X117114994Y-121951961D01*
X117062501Y-121887999D01*
X117033503Y-121864201D01*
X114209373Y-119040072D01*
X115671500Y-119040072D01*
X115795982Y-119027812D01*
X115915680Y-118991502D01*
X116025994Y-118932537D01*
X116122685Y-118853185D01*
X116202037Y-118756494D01*
X116261002Y-118646180D01*
X116297312Y-118526482D01*
X116298143Y-118518039D01*
X116496741Y-118716637D01*
X116731773Y-118873680D01*
X116992926Y-118981853D01*
X117270165Y-119037000D01*
X117552835Y-119037000D01*
X117830074Y-118981853D01*
X118091227Y-118873680D01*
X118326259Y-118716637D01*
X118455896Y-118587000D01*
X139165000Y-118587000D01*
X142837000Y-122259001D01*
X142837000Y-122442335D01*
X142892147Y-122719574D01*
X143000320Y-122980727D01*
X143157363Y-123215759D01*
X143355961Y-123414357D01*
X143347518Y-123415188D01*
X143227820Y-123451498D01*
X143117506Y-123510463D01*
X143020815Y-123589815D01*
X142941463Y-123686506D01*
X142882498Y-123796820D01*
X142846188Y-123916518D01*
X142833928Y-124041000D01*
X142833928Y-125641000D01*
X142846188Y-125765482D01*
X142882498Y-125885180D01*
X142941463Y-125995494D01*
X143020815Y-126092185D01*
X143117506Y-126171537D01*
X143227820Y-126230502D01*
X143347518Y-126266812D01*
X143472000Y-126279072D01*
X145072000Y-126279072D01*
X145196482Y-126266812D01*
X145316180Y-126230502D01*
X145426494Y-126171537D01*
X145523185Y-126092185D01*
X145602537Y-125995494D01*
X145661502Y-125885180D01*
X145697812Y-125765482D01*
X145710072Y-125641000D01*
X145710072Y-124041000D01*
X145697812Y-123916518D01*
X145661502Y-123796820D01*
X145602537Y-123686506D01*
X145523185Y-123589815D01*
X145426494Y-123510463D01*
X145316180Y-123451498D01*
X145196482Y-123415188D01*
X145188039Y-123414357D01*
X145386637Y-123215759D01*
X145543680Y-122980727D01*
X145651853Y-122719574D01*
X145707000Y-122442335D01*
X145707000Y-122159665D01*
X145651853Y-121882426D01*
X145543680Y-121621273D01*
X145386637Y-121386241D01*
X145186759Y-121186363D01*
X144951727Y-121029320D01*
X144690574Y-120921147D01*
X144413335Y-120866000D01*
X144230001Y-120866000D01*
X143603001Y-120239000D01*
X146778928Y-120239000D01*
X146778928Y-122839000D01*
X146791188Y-122963482D01*
X146827498Y-123083180D01*
X146886463Y-123193494D01*
X146965815Y-123290185D01*
X147062506Y-123369537D01*
X147172820Y-123428502D01*
X147292518Y-123464812D01*
X147417000Y-123477072D01*
X150017000Y-123477072D01*
X150141482Y-123464812D01*
X150261180Y-123428502D01*
X150371494Y-123369537D01*
X150468185Y-123290185D01*
X150547537Y-123193494D01*
X150606502Y-123083180D01*
X150642812Y-122963482D01*
X150655072Y-122839000D01*
X150655072Y-120239000D01*
X150642812Y-120114518D01*
X150606502Y-119994820D01*
X150547537Y-119884506D01*
X150468185Y-119787815D01*
X150371494Y-119708463D01*
X150261180Y-119649498D01*
X150141482Y-119613188D01*
X150017000Y-119600928D01*
X147417000Y-119600928D01*
X147292518Y-119613188D01*
X147172820Y-119649498D01*
X147062506Y-119708463D01*
X146965815Y-119787815D01*
X146886463Y-119884506D01*
X146827498Y-119994820D01*
X146791188Y-120114518D01*
X146778928Y-120239000D01*
X143603001Y-120239000D01*
X140303716Y-116939716D01*
X140272870Y-116902130D01*
X140122884Y-116779040D01*
X139951767Y-116687576D01*
X139766094Y-116631253D01*
X139621380Y-116617000D01*
X139573000Y-116612235D01*
X139524620Y-116617000D01*
X136283707Y-116617000D01*
X136443756Y-116550705D01*
X136613274Y-116437437D01*
X136657211Y-116393500D01*
X157549500Y-116393500D01*
X154280696Y-119662304D01*
X153987581Y-119604000D01*
X153606419Y-119604000D01*
X153232581Y-119678361D01*
X152880434Y-119824225D01*
X152563509Y-120035987D01*
X152293987Y-120305509D01*
X152082225Y-120622434D01*
X151936361Y-120974581D01*
X151862000Y-121348419D01*
X151862000Y-121729581D01*
X151936361Y-122103419D01*
X152082225Y-122455566D01*
X152293987Y-122772491D01*
X152563509Y-123042013D01*
X152880434Y-123253775D01*
X153232581Y-123399639D01*
X153606419Y-123474000D01*
X153987581Y-123474000D01*
X154361419Y-123399639D01*
X154713566Y-123253775D01*
X154986017Y-123071729D01*
X175681000Y-123071729D01*
X175681000Y-123689271D01*
X175801476Y-124294946D01*
X176037799Y-124865479D01*
X176380886Y-125378946D01*
X176817554Y-125815614D01*
X177331021Y-126158701D01*
X177901554Y-126395024D01*
X178507229Y-126515500D01*
X179124771Y-126515500D01*
X179730446Y-126395024D01*
X180300979Y-126158701D01*
X180814446Y-125815614D01*
X181251114Y-125378946D01*
X181594201Y-124865479D01*
X181830524Y-124294946D01*
X181951000Y-123689271D01*
X181951000Y-123071729D01*
X181830524Y-122466054D01*
X181594201Y-121895521D01*
X181251114Y-121382054D01*
X180814446Y-120945386D01*
X180300979Y-120602299D01*
X179730446Y-120365976D01*
X179124771Y-120245500D01*
X178507229Y-120245500D01*
X177901554Y-120365976D01*
X177331021Y-120602299D01*
X176817554Y-120945386D01*
X176380886Y-121382054D01*
X176037799Y-121895521D01*
X175801476Y-122466054D01*
X175681000Y-123071729D01*
X154986017Y-123071729D01*
X155030491Y-123042013D01*
X155300013Y-122772491D01*
X155511775Y-122455566D01*
X155657639Y-122103419D01*
X155732000Y-121729581D01*
X155732000Y-121348419D01*
X155673696Y-121055304D01*
X172239284Y-104489716D01*
X172276870Y-104458870D01*
X172399960Y-104308884D01*
X172491424Y-104137767D01*
X172547747Y-103952094D01*
X172562000Y-103807380D01*
X172566765Y-103759001D01*
X172562000Y-103710621D01*
X172562000Y-100099500D01*
X174087315Y-100099500D01*
X174115987Y-100390611D01*
X174200901Y-100670534D01*
X174338794Y-100928514D01*
X174524366Y-101154634D01*
X174750486Y-101340206D01*
X174767874Y-101349500D01*
X174750486Y-101358794D01*
X174524366Y-101544366D01*
X174338794Y-101770486D01*
X174200901Y-102028466D01*
X174115987Y-102308389D01*
X174087315Y-102599500D01*
X174115987Y-102890611D01*
X174200901Y-103170534D01*
X174338794Y-103428514D01*
X174524366Y-103654634D01*
X174750486Y-103840206D01*
X174767874Y-103849500D01*
X174750486Y-103858794D01*
X174524366Y-104044366D01*
X174338794Y-104270486D01*
X174200901Y-104528466D01*
X174115987Y-104808389D01*
X174087315Y-105099500D01*
X174115987Y-105390611D01*
X174200901Y-105670534D01*
X174338794Y-105928514D01*
X174524366Y-106154634D01*
X174750486Y-106340206D01*
X175008466Y-106478099D01*
X175288389Y-106563013D01*
X175506550Y-106584500D01*
X175902450Y-106584500D01*
X176120611Y-106563013D01*
X176400534Y-106478099D01*
X176658514Y-106340206D01*
X176884634Y-106154634D01*
X177070206Y-105928514D01*
X177208099Y-105670534D01*
X177293013Y-105390611D01*
X177321685Y-105099500D01*
X177293013Y-104808389D01*
X177208099Y-104528466D01*
X177070206Y-104270486D01*
X176884634Y-104044366D01*
X176658514Y-103858794D01*
X176641126Y-103849500D01*
X176658514Y-103840206D01*
X176884634Y-103654634D01*
X177070206Y-103428514D01*
X177208099Y-103170534D01*
X177293013Y-102890611D01*
X177321685Y-102599500D01*
X177293013Y-102308389D01*
X177208099Y-102028466D01*
X177070206Y-101770486D01*
X176884634Y-101544366D01*
X176658514Y-101358794D01*
X176641126Y-101349500D01*
X176658514Y-101340206D01*
X176884634Y-101154634D01*
X177070206Y-100928514D01*
X177208099Y-100670534D01*
X177293013Y-100390611D01*
X177321685Y-100099500D01*
X177293013Y-99808389D01*
X177208099Y-99528466D01*
X177070206Y-99270486D01*
X176884634Y-99044366D01*
X176821163Y-98992277D01*
X176922886Y-98937905D01*
X177057462Y-98827462D01*
X177167905Y-98692886D01*
X177249972Y-98539350D01*
X177300508Y-98372754D01*
X177317572Y-98199500D01*
X177317572Y-96999500D01*
X177300508Y-96826246D01*
X177249972Y-96659650D01*
X177167905Y-96506114D01*
X177057462Y-96371538D01*
X176922886Y-96261095D01*
X176769350Y-96179028D01*
X176602754Y-96128492D01*
X176429500Y-96111428D01*
X174979500Y-96111428D01*
X174806246Y-96128492D01*
X174639650Y-96179028D01*
X174486114Y-96261095D01*
X174351538Y-96371538D01*
X174241095Y-96506114D01*
X174159028Y-96659650D01*
X174108492Y-96826246D01*
X174091428Y-96999500D01*
X174091428Y-98199500D01*
X174108492Y-98372754D01*
X174159028Y-98539350D01*
X174241095Y-98692886D01*
X174351538Y-98827462D01*
X174486114Y-98937905D01*
X174587837Y-98992277D01*
X174524366Y-99044366D01*
X174338794Y-99270486D01*
X174200901Y-99528466D01*
X174115987Y-99808389D01*
X174087315Y-100099500D01*
X172562000Y-100099500D01*
X172562000Y-84243223D01*
X178796517Y-90477741D01*
X178823446Y-90510554D01*
X178954398Y-90618024D01*
X179103800Y-90697881D01*
X179157055Y-90714035D01*
X179164794Y-90728514D01*
X179350366Y-90954634D01*
X179576486Y-91140206D01*
X179834466Y-91278099D01*
X180114389Y-91363013D01*
X180332550Y-91384500D01*
X180728450Y-91384500D01*
X180946611Y-91363013D01*
X181226534Y-91278099D01*
X181484514Y-91140206D01*
X181710634Y-90954634D01*
X181896206Y-90728514D01*
X182034099Y-90470534D01*
X182119013Y-90190611D01*
X182147685Y-89899500D01*
X182119013Y-89608389D01*
X182034099Y-89328466D01*
X181896206Y-89070486D01*
X181710634Y-88844366D01*
X181484514Y-88658794D01*
X181467126Y-88649500D01*
X181484514Y-88640206D01*
X181710634Y-88454634D01*
X181896206Y-88228514D01*
X182034099Y-87970534D01*
X182119013Y-87690611D01*
X182147685Y-87399500D01*
X182119013Y-87108389D01*
X182034099Y-86828466D01*
X181896206Y-86570486D01*
X181714892Y-86349555D01*
X181749680Y-86339002D01*
X181859994Y-86280037D01*
X181956685Y-86200685D01*
X182036037Y-86103994D01*
X182095002Y-85993680D01*
X182131312Y-85873982D01*
X182143572Y-85749500D01*
X182140500Y-85185250D01*
X181981750Y-85026500D01*
X180657500Y-85026500D01*
X180657500Y-85046500D01*
X180403500Y-85046500D01*
X180403500Y-85026500D01*
X179079250Y-85026500D01*
X178920500Y-85185250D01*
X178917428Y-85749500D01*
X178929688Y-85873982D01*
X178965998Y-85993680D01*
X179024963Y-86103994D01*
X179104315Y-86200685D01*
X179201006Y-86280037D01*
X179311320Y-86339002D01*
X179346108Y-86349555D01*
X179164794Y-86570486D01*
X179026901Y-86828466D01*
X178941987Y-87108389D01*
X178913315Y-87399500D01*
X178941987Y-87690611D01*
X179026901Y-87970534D01*
X179164794Y-88228514D01*
X179350366Y-88454634D01*
X179576486Y-88640206D01*
X179593874Y-88649500D01*
X179576486Y-88658794D01*
X179485054Y-88733830D01*
X174800724Y-84049500D01*
X178917428Y-84049500D01*
X178920500Y-84613750D01*
X179079250Y-84772500D01*
X180403500Y-84772500D01*
X180403500Y-83573250D01*
X180657500Y-83573250D01*
X180657500Y-84772500D01*
X181981750Y-84772500D01*
X182140500Y-84613750D01*
X182143572Y-84049500D01*
X182131312Y-83925018D01*
X182095002Y-83805320D01*
X182036037Y-83695006D01*
X181956685Y-83598315D01*
X181859994Y-83518963D01*
X181749680Y-83459998D01*
X181629982Y-83423688D01*
X181505500Y-83411428D01*
X180816250Y-83414500D01*
X180657500Y-83573250D01*
X180403500Y-83573250D01*
X180244750Y-83414500D01*
X179555500Y-83411428D01*
X179431018Y-83423688D01*
X179311320Y-83459998D01*
X179201006Y-83518963D01*
X179104315Y-83598315D01*
X179024963Y-83695006D01*
X178965998Y-83805320D01*
X178929688Y-83925018D01*
X178917428Y-84049500D01*
X174800724Y-84049500D01*
X173453000Y-82701777D01*
X173453000Y-71700229D01*
X175363500Y-71700229D01*
X175363500Y-72317771D01*
X175483976Y-72923446D01*
X175720299Y-73493979D01*
X176063386Y-74007446D01*
X176500054Y-74444114D01*
X177013521Y-74787201D01*
X177584054Y-75023524D01*
X178189729Y-75144000D01*
X178807271Y-75144000D01*
X179412946Y-75023524D01*
X179983479Y-74787201D01*
X180496946Y-74444114D01*
X180933614Y-74007446D01*
X181276701Y-73493979D01*
X181513024Y-72923446D01*
X181633500Y-72317771D01*
X181633500Y-71700229D01*
X181513024Y-71094554D01*
X181276701Y-70524021D01*
X180933614Y-70010554D01*
X180496946Y-69573886D01*
X179983479Y-69230799D01*
X179412946Y-68994476D01*
X178807271Y-68874000D01*
X178189729Y-68874000D01*
X177584054Y-68994476D01*
X177013521Y-69230799D01*
X176500054Y-69573886D01*
X176063386Y-70010554D01*
X175720299Y-70524021D01*
X175483976Y-71094554D01*
X175363500Y-71700229D01*
X173453000Y-71700229D01*
X173453000Y-70908238D01*
X173457160Y-70865999D01*
X173453000Y-70823760D01*
X173453000Y-70823754D01*
X173440556Y-70697411D01*
X173440556Y-70697409D01*
X173414188Y-70610486D01*
X173391381Y-70535300D01*
X173311524Y-70385898D01*
X173204054Y-70254946D01*
X173171241Y-70228017D01*
X170817988Y-67874765D01*
X170791054Y-67841946D01*
X170660102Y-67734476D01*
X170510700Y-67654619D01*
X170348589Y-67605444D01*
X170222246Y-67593000D01*
X170222239Y-67593000D01*
X170180000Y-67588840D01*
X170137761Y-67593000D01*
X165142239Y-67593000D01*
X165100000Y-67588840D01*
X165057761Y-67593000D01*
X165057754Y-67593000D01*
X164946975Y-67603911D01*
X164931410Y-67605444D01*
X164882235Y-67620361D01*
X164769300Y-67654619D01*
X164619898Y-67734476D01*
X164619896Y-67734477D01*
X164619897Y-67734477D01*
X164529849Y-67808378D01*
X164488946Y-67841946D01*
X164462016Y-67874760D01*
X163505765Y-68831012D01*
X163472946Y-68857946D01*
X163365476Y-68988899D01*
X163285619Y-69138301D01*
X163262899Y-69213200D01*
X163240685Y-69286432D01*
X163236444Y-69300412D01*
X163224000Y-69426755D01*
X163224000Y-69426761D01*
X163219840Y-69469000D01*
X163224000Y-69511239D01*
X163224000Y-69994806D01*
X163144150Y-70019028D01*
X162990614Y-70101095D01*
X162856038Y-70211538D01*
X162745595Y-70346114D01*
X162663528Y-70499650D01*
X162612992Y-70666246D01*
X162595928Y-70839500D01*
X162595928Y-72289500D01*
X162612992Y-72462754D01*
X162663528Y-72629350D01*
X162745595Y-72782886D01*
X162856038Y-72917462D01*
X162990614Y-73027905D01*
X163144150Y-73109972D01*
X163310746Y-73160508D01*
X163484000Y-73177572D01*
X164001224Y-73177572D01*
X163969998Y-73280515D01*
X163955324Y-73429500D01*
X163959001Y-73466832D01*
X163959000Y-85719789D01*
X163915063Y-85763726D01*
X163801795Y-85933244D01*
X163723774Y-86121602D01*
X163684000Y-86321561D01*
X163684000Y-86525439D01*
X163723774Y-86725398D01*
X163801795Y-86913756D01*
X163915063Y-87083274D01*
X164059226Y-87227437D01*
X164228744Y-87340705D01*
X164417102Y-87418726D01*
X164617061Y-87458500D01*
X164820939Y-87458500D01*
X165020898Y-87418726D01*
X165209256Y-87340705D01*
X165378774Y-87227437D01*
X165522937Y-87083274D01*
X165636205Y-86913756D01*
X165714226Y-86725398D01*
X165754000Y-86525439D01*
X165754000Y-86321561D01*
X165714226Y-86121602D01*
X165636205Y-85933244D01*
X165522937Y-85763726D01*
X165479000Y-85719789D01*
X165479000Y-84950512D01*
X165690273Y-85091680D01*
X165951426Y-85199853D01*
X166228665Y-85255000D01*
X166511335Y-85255000D01*
X166788574Y-85199853D01*
X167049727Y-85091680D01*
X167284759Y-84934637D01*
X167484637Y-84734759D01*
X167641680Y-84499727D01*
X167646067Y-84489135D01*
X167757615Y-84675131D01*
X167946586Y-84883519D01*
X168172580Y-85051037D01*
X168426913Y-85171246D01*
X168560961Y-85211904D01*
X168783000Y-85089915D01*
X168783000Y-83947000D01*
X169037000Y-83947000D01*
X169037000Y-85089915D01*
X169259039Y-85211904D01*
X169393087Y-85171246D01*
X169647420Y-85051037D01*
X169873414Y-84883519D01*
X170062385Y-84675131D01*
X170207070Y-84433881D01*
X170301909Y-84169040D01*
X170180624Y-83947000D01*
X169037000Y-83947000D01*
X168783000Y-83947000D01*
X168763000Y-83947000D01*
X168763000Y-83693000D01*
X168783000Y-83693000D01*
X168783000Y-82550085D01*
X169037000Y-82550085D01*
X169037000Y-83693000D01*
X170180624Y-83693000D01*
X170301909Y-83470960D01*
X170207070Y-83206119D01*
X170062385Y-82964869D01*
X169873414Y-82756481D01*
X169647420Y-82588963D01*
X169393087Y-82468754D01*
X169259039Y-82428096D01*
X169037000Y-82550085D01*
X168783000Y-82550085D01*
X168560961Y-82428096D01*
X168426913Y-82468754D01*
X168172580Y-82588963D01*
X167946586Y-82756481D01*
X167757615Y-82964869D01*
X167646067Y-83150865D01*
X167641680Y-83140273D01*
X167484637Y-82905241D01*
X167284759Y-82705363D01*
X167049727Y-82548320D01*
X166788574Y-82440147D01*
X166511335Y-82385000D01*
X166228665Y-82385000D01*
X165951426Y-82440147D01*
X165690273Y-82548320D01*
X165479000Y-82689488D01*
X165479000Y-77356003D01*
X165584561Y-77377000D01*
X165788439Y-77377000D01*
X165988398Y-77337226D01*
X166013086Y-77327000D01*
X167310500Y-77327000D01*
X170592000Y-80608500D01*
X170592001Y-103350999D01*
X167130000Y-106813000D01*
X167130000Y-92878072D01*
X167170000Y-92878072D01*
X167294482Y-92865812D01*
X167414180Y-92829502D01*
X167524494Y-92770537D01*
X167621185Y-92691185D01*
X167700537Y-92594494D01*
X167759502Y-92484180D01*
X167795812Y-92364482D01*
X167796643Y-92356039D01*
X167995241Y-92554637D01*
X168230273Y-92711680D01*
X168491426Y-92819853D01*
X168768665Y-92875000D01*
X169051335Y-92875000D01*
X169328574Y-92819853D01*
X169589727Y-92711680D01*
X169824759Y-92554637D01*
X170024637Y-92354759D01*
X170181680Y-92119727D01*
X170289853Y-91858574D01*
X170345000Y-91581335D01*
X170345000Y-91298665D01*
X170289853Y-91021426D01*
X170181680Y-90760273D01*
X170024637Y-90525241D01*
X169824759Y-90325363D01*
X169589727Y-90168320D01*
X169328574Y-90060147D01*
X169051335Y-90005000D01*
X168868000Y-90005000D01*
X166910216Y-88047216D01*
X166879370Y-88009630D01*
X166729384Y-87886540D01*
X166558267Y-87795076D01*
X166372594Y-87738753D01*
X166227880Y-87724500D01*
X166179500Y-87719735D01*
X166131120Y-87724500D01*
X152242000Y-87724500D01*
X152242000Y-83931879D01*
X152246765Y-83883499D01*
X152227747Y-83690405D01*
X152211316Y-83636239D01*
X152171424Y-83504733D01*
X152079960Y-83333616D01*
X151956870Y-83183630D01*
X151919284Y-83152784D01*
X151295000Y-82528500D01*
X151295000Y-82345165D01*
X151239853Y-82067926D01*
X151131680Y-81806773D01*
X150974637Y-81571741D01*
X150774759Y-81371863D01*
X150539727Y-81214820D01*
X150278574Y-81106647D01*
X150001335Y-81051500D01*
X149718665Y-81051500D01*
X149441426Y-81106647D01*
X149180273Y-81214820D01*
X148945241Y-81371863D01*
X148745363Y-81571741D01*
X148588320Y-81806773D01*
X148480147Y-82067926D01*
X148425000Y-82345165D01*
X148425000Y-82627835D01*
X148480147Y-82905074D01*
X148588320Y-83166227D01*
X148745363Y-83401259D01*
X148943961Y-83599857D01*
X148935518Y-83600688D01*
X148815820Y-83636998D01*
X148705506Y-83695963D01*
X148608815Y-83775315D01*
X148529463Y-83872006D01*
X148470498Y-83982320D01*
X148434188Y-84102018D01*
X148421928Y-84226500D01*
X148421928Y-85826500D01*
X148434188Y-85950982D01*
X148470498Y-86070680D01*
X148529463Y-86180994D01*
X148608815Y-86277685D01*
X148705506Y-86357037D01*
X148815820Y-86416002D01*
X148935518Y-86452312D01*
X149060000Y-86464572D01*
X149100000Y-86464572D01*
X149100000Y-90187171D01*
X148955398Y-90127274D01*
X148755439Y-90087500D01*
X148551561Y-90087500D01*
X148351602Y-90127274D01*
X148163244Y-90205295D01*
X147993726Y-90318563D01*
X147849563Y-90462726D01*
X147762500Y-90593025D01*
X147762500Y-80094301D01*
X154755599Y-73101204D01*
X154926390Y-73153013D01*
X155217500Y-73181685D01*
X155508611Y-73153013D01*
X155788534Y-73068099D01*
X156046514Y-72930206D01*
X156272634Y-72744634D01*
X156458206Y-72518514D01*
X156471962Y-72492778D01*
X156628451Y-72698929D01*
X156846307Y-72891996D01*
X157097642Y-73038852D01*
X157360610Y-73130976D01*
X157590500Y-73009655D01*
X157590500Y-71691500D01*
X157844500Y-71691500D01*
X157844500Y-73009655D01*
X158074390Y-73130976D01*
X158337358Y-73038852D01*
X158588693Y-72891996D01*
X158806549Y-72698929D01*
X158982553Y-72467070D01*
X159109942Y-72205330D01*
X159183820Y-71923767D01*
X159043665Y-71691500D01*
X157844500Y-71691500D01*
X157590500Y-71691500D01*
X157570500Y-71691500D01*
X157570500Y-71437500D01*
X157590500Y-71437500D01*
X157590500Y-70119345D01*
X157844500Y-70119345D01*
X157844500Y-71437500D01*
X159043665Y-71437500D01*
X159183820Y-71205233D01*
X159109942Y-70923670D01*
X158982553Y-70661930D01*
X158806549Y-70430071D01*
X158588693Y-70237004D01*
X158337358Y-70090148D01*
X158074390Y-69998024D01*
X157844500Y-70119345D01*
X157590500Y-70119345D01*
X157360610Y-69998024D01*
X157097642Y-70090148D01*
X156846307Y-70237004D01*
X156628451Y-70430071D01*
X156471962Y-70636222D01*
X156458206Y-70610486D01*
X156272634Y-70384366D01*
X156046513Y-70198794D01*
X155788533Y-70060901D01*
X155508610Y-69975987D01*
X155217500Y-69947315D01*
X154926389Y-69975987D01*
X154646466Y-70060901D01*
X154388486Y-70198794D01*
X154162366Y-70384366D01*
X154110277Y-70447837D01*
X154055905Y-70346114D01*
X153945462Y-70211538D01*
X153810886Y-70101095D01*
X153657350Y-70019028D01*
X153490754Y-69968492D01*
X153317500Y-69951428D01*
X152117500Y-69951428D01*
X151944246Y-69968492D01*
X151777650Y-70019028D01*
X151624114Y-70101095D01*
X151489538Y-70211538D01*
X151379095Y-70346114D01*
X151297028Y-70499650D01*
X151246492Y-70666246D01*
X151229428Y-70839500D01*
X151229428Y-72289500D01*
X151246492Y-72462754D01*
X151297028Y-72629350D01*
X151379095Y-72782886D01*
X151489538Y-72917462D01*
X151624114Y-73027905D01*
X151777650Y-73109972D01*
X151944246Y-73160508D01*
X152117500Y-73177572D01*
X152529626Y-73177572D01*
X146568500Y-79138699D01*
X146568500Y-76821333D01*
X146572177Y-76784000D01*
X146557503Y-76635014D01*
X146514046Y-76491753D01*
X146443474Y-76359724D01*
X146372299Y-76272997D01*
X146348501Y-76243999D01*
X146319503Y-76220201D01*
X144547500Y-74448199D01*
X144547500Y-72967095D01*
X144616514Y-72930206D01*
X144842634Y-72744634D01*
X145028206Y-72518514D01*
X145041962Y-72492778D01*
X145198451Y-72698929D01*
X145416307Y-72891996D01*
X145667642Y-73038852D01*
X145930610Y-73130976D01*
X146160500Y-73009655D01*
X146160500Y-71691500D01*
X146414500Y-71691500D01*
X146414500Y-73009655D01*
X146644390Y-73130976D01*
X146907358Y-73038852D01*
X147158693Y-72891996D01*
X147376549Y-72698929D01*
X147552553Y-72467070D01*
X147679942Y-72205330D01*
X147753820Y-71923767D01*
X147613665Y-71691500D01*
X146414500Y-71691500D01*
X146160500Y-71691500D01*
X146140500Y-71691500D01*
X146140500Y-71437500D01*
X146160500Y-71437500D01*
X146160500Y-70119345D01*
X146414500Y-70119345D01*
X146414500Y-71437500D01*
X147613665Y-71437500D01*
X147753820Y-71205233D01*
X147679942Y-70923670D01*
X147552553Y-70661930D01*
X147376549Y-70430071D01*
X147158693Y-70237004D01*
X146907358Y-70090148D01*
X146644390Y-69998024D01*
X146414500Y-70119345D01*
X146160500Y-70119345D01*
X145930610Y-69998024D01*
X145667642Y-70090148D01*
X145416307Y-70237004D01*
X145198451Y-70430071D01*
X145041962Y-70636222D01*
X145028206Y-70610486D01*
X144842634Y-70384366D01*
X144616513Y-70198794D01*
X144358533Y-70060901D01*
X144078610Y-69975987D01*
X143787500Y-69947315D01*
X143496389Y-69975987D01*
X143216466Y-70060901D01*
X142958486Y-70198794D01*
X142732366Y-70384366D01*
X142680277Y-70447837D01*
X142625905Y-70346114D01*
X142515462Y-70211538D01*
X142380886Y-70101095D01*
X142227350Y-70019028D01*
X142060754Y-69968492D01*
X141887500Y-69951428D01*
X140687500Y-69951428D01*
X140514246Y-69968492D01*
X140347650Y-70019028D01*
X140194114Y-70101095D01*
X140059538Y-70211538D01*
X139949095Y-70346114D01*
X139867028Y-70499650D01*
X139816492Y-70666246D01*
X139799428Y-70839500D01*
X139799428Y-72289500D01*
X139816492Y-72462754D01*
X139867028Y-72629350D01*
X139949095Y-72782886D01*
X140059538Y-72917462D01*
X140194114Y-73027905D01*
X140347650Y-73109972D01*
X140514246Y-73160508D01*
X140687500Y-73177572D01*
X141887500Y-73177572D01*
X142060754Y-73160508D01*
X142227350Y-73109972D01*
X142380886Y-73027905D01*
X142515462Y-72917462D01*
X142625905Y-72782886D01*
X142680277Y-72681163D01*
X142732366Y-72744634D01*
X142958487Y-72930206D01*
X143027501Y-72967094D01*
X143027500Y-74725677D01*
X143023824Y-74763000D01*
X143027500Y-74800322D01*
X143027500Y-74800332D01*
X143038497Y-74911985D01*
X143081954Y-75055246D01*
X143152526Y-75187276D01*
X143169124Y-75207500D01*
X143247499Y-75303001D01*
X143276503Y-75326804D01*
X145048501Y-77098803D01*
X145048500Y-91129789D01*
X145004563Y-91173726D01*
X144891295Y-91343244D01*
X144813274Y-91531602D01*
X144773500Y-91731561D01*
X144773500Y-91935439D01*
X144813274Y-92135398D01*
X144848350Y-92220079D01*
X144706602Y-92248274D01*
X144518244Y-92326295D01*
X144348726Y-92439563D01*
X144304789Y-92483500D01*
X143405802Y-92483500D01*
X133267467Y-82345165D01*
X140805000Y-82345165D01*
X140805000Y-82627835D01*
X140860147Y-82905074D01*
X140968320Y-83166227D01*
X141125363Y-83401259D01*
X141325241Y-83601137D01*
X141557759Y-83756500D01*
X141325241Y-83911863D01*
X141125363Y-84111741D01*
X140968320Y-84346773D01*
X140860147Y-84607926D01*
X140805000Y-84885165D01*
X140805000Y-85167835D01*
X140860147Y-85445074D01*
X140968320Y-85706227D01*
X141125363Y-85941259D01*
X141325241Y-86141137D01*
X141560273Y-86298180D01*
X141821426Y-86406353D01*
X142098665Y-86461500D01*
X142381335Y-86461500D01*
X142658574Y-86406353D01*
X142919727Y-86298180D01*
X143154759Y-86141137D01*
X143354637Y-85941259D01*
X143511680Y-85706227D01*
X143619853Y-85445074D01*
X143675000Y-85167835D01*
X143675000Y-84885165D01*
X143619853Y-84607926D01*
X143511680Y-84346773D01*
X143354637Y-84111741D01*
X143154759Y-83911863D01*
X142922241Y-83756500D01*
X143154759Y-83601137D01*
X143354637Y-83401259D01*
X143511680Y-83166227D01*
X143619853Y-82905074D01*
X143675000Y-82627835D01*
X143675000Y-82345165D01*
X143619853Y-82067926D01*
X143511680Y-81806773D01*
X143354637Y-81571741D01*
X143154759Y-81371863D01*
X142919727Y-81214820D01*
X142658574Y-81106647D01*
X142381335Y-81051500D01*
X142098665Y-81051500D01*
X141821426Y-81106647D01*
X141560273Y-81214820D01*
X141325241Y-81371863D01*
X141125363Y-81571741D01*
X140968320Y-81806773D01*
X140860147Y-82067926D01*
X140805000Y-82345165D01*
X133267467Y-82345165D01*
X132903500Y-81981199D01*
X132903500Y-72945714D01*
X132932514Y-72930206D01*
X133158634Y-72744634D01*
X133344206Y-72518514D01*
X133357962Y-72492778D01*
X133514451Y-72698929D01*
X133732307Y-72891996D01*
X133983642Y-73038852D01*
X134246610Y-73130976D01*
X134476500Y-73009655D01*
X134476500Y-71691500D01*
X134730500Y-71691500D01*
X134730500Y-73009655D01*
X134960390Y-73130976D01*
X135223358Y-73038852D01*
X135474693Y-72891996D01*
X135692549Y-72698929D01*
X135868553Y-72467070D01*
X135995942Y-72205330D01*
X136069820Y-71923767D01*
X135929665Y-71691500D01*
X134730500Y-71691500D01*
X134476500Y-71691500D01*
X134456500Y-71691500D01*
X134456500Y-71437500D01*
X134476500Y-71437500D01*
X134476500Y-70119345D01*
X134730500Y-70119345D01*
X134730500Y-71437500D01*
X135929665Y-71437500D01*
X136069820Y-71205233D01*
X135995942Y-70923670D01*
X135868553Y-70661930D01*
X135692549Y-70430071D01*
X135474693Y-70237004D01*
X135223358Y-70090148D01*
X134960390Y-69998024D01*
X134730500Y-70119345D01*
X134476500Y-70119345D01*
X134246610Y-69998024D01*
X133983642Y-70090148D01*
X133732307Y-70237004D01*
X133514451Y-70430071D01*
X133357962Y-70636222D01*
X133344206Y-70610486D01*
X133158634Y-70384366D01*
X132932513Y-70198794D01*
X132674533Y-70060901D01*
X132394610Y-69975987D01*
X132103500Y-69947315D01*
X131812389Y-69975987D01*
X131532466Y-70060901D01*
X131274486Y-70198794D01*
X131048366Y-70384366D01*
X130996277Y-70447837D01*
X130941905Y-70346114D01*
X130831462Y-70211538D01*
X130696886Y-70101095D01*
X130543350Y-70019028D01*
X130376754Y-69968492D01*
X130203500Y-69951428D01*
X129003500Y-69951428D01*
X128830246Y-69968492D01*
X128663650Y-70019028D01*
X128510114Y-70101095D01*
X128375538Y-70211538D01*
X128265095Y-70346114D01*
X128183028Y-70499650D01*
X128132492Y-70666246D01*
X128115428Y-70839500D01*
X128115428Y-72289500D01*
X128132492Y-72462754D01*
X128183028Y-72629350D01*
X128265095Y-72782886D01*
X128375538Y-72917462D01*
X128510114Y-73027905D01*
X128663650Y-73109972D01*
X128830246Y-73160508D01*
X129003500Y-73177572D01*
X130203500Y-73177572D01*
X130376754Y-73160508D01*
X130543350Y-73109972D01*
X130696886Y-73027905D01*
X130831462Y-72917462D01*
X130941905Y-72782886D01*
X130996277Y-72681163D01*
X131048366Y-72744634D01*
X131274487Y-72930206D01*
X131383501Y-72988475D01*
X131383500Y-82258678D01*
X131379824Y-82296000D01*
X131383500Y-82333322D01*
X131383500Y-82333332D01*
X131394497Y-82444985D01*
X131423027Y-82539037D01*
X131437954Y-82588246D01*
X131508526Y-82720276D01*
X131514291Y-82727300D01*
X131603499Y-82836001D01*
X131632503Y-82859804D01*
X142527201Y-93754503D01*
X142550999Y-93783501D01*
X142579997Y-93807299D01*
X142666723Y-93878474D01*
X142760206Y-93928442D01*
X142798753Y-93949046D01*
X142942014Y-93992503D01*
X143053667Y-94003500D01*
X143053677Y-94003500D01*
X143091000Y-94007176D01*
X143128323Y-94003500D01*
X144304789Y-94003500D01*
X144348726Y-94047437D01*
X144518244Y-94160705D01*
X144706602Y-94238726D01*
X144906561Y-94278500D01*
X145110439Y-94278500D01*
X145310398Y-94238726D01*
X145498756Y-94160705D01*
X145668274Y-94047437D01*
X145812437Y-93903274D01*
X145925705Y-93733756D01*
X146003726Y-93545398D01*
X146043500Y-93345439D01*
X146043500Y-93141561D01*
X146003726Y-92941602D01*
X145968650Y-92856921D01*
X146110398Y-92828726D01*
X146242501Y-92774007D01*
X146242501Y-92808122D01*
X146197774Y-92916102D01*
X146158000Y-93116061D01*
X146158000Y-93319939D01*
X146197774Y-93519898D01*
X146275795Y-93708256D01*
X146389063Y-93877774D01*
X146533226Y-94021937D01*
X146702744Y-94135205D01*
X146891102Y-94213226D01*
X147091061Y-94253000D01*
X147294939Y-94253000D01*
X147494898Y-94213226D01*
X147683256Y-94135205D01*
X147793500Y-94061542D01*
X147793500Y-95782776D01*
X145061299Y-98514978D01*
X144889398Y-98443774D01*
X144689439Y-98404000D01*
X144485561Y-98404000D01*
X144285602Y-98443774D01*
X144097244Y-98521795D01*
X143927726Y-98635063D01*
X143783563Y-98779226D01*
X143670295Y-98948744D01*
X143592274Y-99137102D01*
X143552500Y-99337061D01*
X143552500Y-99540939D01*
X143592274Y-99740898D01*
X143670295Y-99929256D01*
X143783563Y-100098774D01*
X143927726Y-100242937D01*
X144097244Y-100356205D01*
X144285602Y-100434226D01*
X144485561Y-100474000D01*
X144689439Y-100474000D01*
X144889398Y-100434226D01*
X145077756Y-100356205D01*
X145163370Y-100299000D01*
X145311261Y-100299000D01*
X145353500Y-100303160D01*
X145395739Y-100299000D01*
X145395746Y-100299000D01*
X145522089Y-100286556D01*
X145684200Y-100237381D01*
X145833602Y-100157524D01*
X145964554Y-100050054D01*
X145991488Y-100017235D01*
X149100001Y-96908723D01*
X149100001Y-102110697D01*
X145983503Y-105227196D01*
X145954499Y-105250999D01*
X145901974Y-105315001D01*
X145859526Y-105366724D01*
X145797554Y-105482665D01*
X145788954Y-105498754D01*
X145745497Y-105642015D01*
X145734500Y-105753668D01*
X145734500Y-105753678D01*
X145730824Y-105791000D01*
X145734500Y-105828322D01*
X145734501Y-112961288D01*
X145690563Y-113005226D01*
X145577295Y-113174744D01*
X145499274Y-113363102D01*
X145459500Y-113563061D01*
X145459500Y-113766939D01*
X145499274Y-113966898D01*
X145577295Y-114155256D01*
X145690563Y-114324774D01*
X145834726Y-114468937D01*
X146004244Y-114582205D01*
X146192602Y-114660226D01*
X146392561Y-114700000D01*
X146596439Y-114700000D01*
X146796398Y-114660226D01*
X146984756Y-114582205D01*
X147154274Y-114468937D01*
X147298437Y-114324774D01*
X147411705Y-114155256D01*
X147489726Y-113966898D01*
X147529500Y-113766939D01*
X147529500Y-113563061D01*
X147489726Y-113363102D01*
X147411705Y-113174744D01*
X147298437Y-113005226D01*
X147254500Y-112961289D01*
X147254500Y-106105801D01*
X148342499Y-105017802D01*
X148342500Y-111179109D01*
X148337734Y-111227499D01*
X148356752Y-111420592D01*
X148413075Y-111606265D01*
X148413076Y-111606266D01*
X148504540Y-111777383D01*
X148627630Y-111927369D01*
X148665210Y-111958210D01*
X150095000Y-113388000D01*
X150095000Y-113576439D01*
X150134774Y-113776398D01*
X150212795Y-113964756D01*
X150326063Y-114134274D01*
X150470226Y-114278437D01*
X150639744Y-114391705D01*
X150828102Y-114469726D01*
X151028061Y-114509500D01*
X151231939Y-114509500D01*
X151431898Y-114469726D01*
X151620256Y-114391705D01*
X151789774Y-114278437D01*
X151933937Y-114134274D01*
X152047205Y-113964756D01*
X152125226Y-113776398D01*
X152165000Y-113576439D01*
X152165000Y-113372561D01*
X152125226Y-113172602D01*
X152115000Y-113147914D01*
X152115000Y-113078379D01*
X152119765Y-113029999D01*
X152100747Y-112836905D01*
X152078329Y-112763003D01*
X152044424Y-112651233D01*
X151992743Y-112554544D01*
X153169701Y-113731503D01*
X153193499Y-113760501D01*
X153309224Y-113855474D01*
X153441253Y-113926046D01*
X153584514Y-113969503D01*
X153696167Y-113980500D01*
X153696176Y-113980500D01*
X153733499Y-113984176D01*
X153770822Y-113980500D01*
X156712789Y-113980500D01*
X156756726Y-114024437D01*
X156926244Y-114137705D01*
X157114602Y-114215726D01*
X157314561Y-114255500D01*
X157518439Y-114255500D01*
X157718398Y-114215726D01*
X157906756Y-114137705D01*
X158076274Y-114024437D01*
X158220437Y-113880274D01*
X158333705Y-113710756D01*
X158411726Y-113522398D01*
X158451500Y-113322439D01*
X158451500Y-113118561D01*
X158411726Y-112918602D01*
X158333705Y-112730244D01*
X158220437Y-112560726D01*
X158076274Y-112416563D01*
X157906756Y-112303295D01*
X157718398Y-112225274D01*
X157518439Y-112185500D01*
X157314561Y-112185500D01*
X157114602Y-112225274D01*
X156926244Y-112303295D01*
X156756726Y-112416563D01*
X156712789Y-112460500D01*
X154048302Y-112460500D01*
X152207500Y-110619699D01*
X152207500Y-108927561D01*
X155492500Y-108927561D01*
X155492500Y-109131439D01*
X155532274Y-109331398D01*
X155610295Y-109519756D01*
X155723563Y-109689274D01*
X155867726Y-109833437D01*
X156037244Y-109946705D01*
X156225602Y-110024726D01*
X156425561Y-110064500D01*
X156629439Y-110064500D01*
X156829398Y-110024726D01*
X157017756Y-109946705D01*
X157187274Y-109833437D01*
X157331437Y-109689274D01*
X157444705Y-109519756D01*
X157522726Y-109331398D01*
X157562500Y-109131439D01*
X157562500Y-109069301D01*
X158816504Y-107815298D01*
X158845501Y-107791501D01*
X158940474Y-107675776D01*
X159011046Y-107543747D01*
X159054503Y-107400486D01*
X159065500Y-107288833D01*
X159065500Y-107288825D01*
X159069176Y-107251500D01*
X159065500Y-107214175D01*
X159065500Y-105394486D01*
X159113256Y-105374705D01*
X159282774Y-105261437D01*
X159426937Y-105117274D01*
X159540205Y-104947756D01*
X159618226Y-104759398D01*
X159658000Y-104559439D01*
X159658000Y-104355561D01*
X159618226Y-104155602D01*
X159540205Y-103967244D01*
X159426937Y-103797726D01*
X159282774Y-103653563D01*
X159113256Y-103540295D01*
X158924898Y-103462274D01*
X158724939Y-103422500D01*
X158521061Y-103422500D01*
X158321102Y-103462274D01*
X158132744Y-103540295D01*
X157963226Y-103653563D01*
X157819063Y-103797726D01*
X157705795Y-103967244D01*
X157627774Y-104155602D01*
X157588000Y-104355561D01*
X157588000Y-104522163D01*
X157586088Y-104528466D01*
X157556498Y-104626014D01*
X157549358Y-104698503D01*
X157541824Y-104775000D01*
X157545501Y-104812332D01*
X157545500Y-106936698D01*
X156740277Y-107741922D01*
X156799473Y-107660629D01*
X156907238Y-107427528D01*
X156937910Y-107326400D01*
X156814224Y-107124000D01*
X155797000Y-107124000D01*
X155797000Y-108142085D01*
X155899534Y-108204309D01*
X155867726Y-108225563D01*
X155723563Y-108369726D01*
X155610295Y-108539244D01*
X155532274Y-108727602D01*
X155492500Y-108927561D01*
X152207500Y-108927561D01*
X152207500Y-105915301D01*
X152365802Y-105757000D01*
X152602291Y-105757000D01*
X152652456Y-105832077D01*
X152817379Y-105997000D01*
X152652456Y-106161923D01*
X152509093Y-106376482D01*
X152410342Y-106614887D01*
X152360000Y-106867976D01*
X152360000Y-107126024D01*
X152410342Y-107379113D01*
X152509093Y-107617518D01*
X152652456Y-107832077D01*
X152834923Y-108014544D01*
X153049482Y-108157907D01*
X153287887Y-108256658D01*
X153540976Y-108307000D01*
X153799024Y-108307000D01*
X154052113Y-108256658D01*
X154290518Y-108157907D01*
X154505077Y-108014544D01*
X154674715Y-107844906D01*
X154691697Y-107868227D01*
X154880463Y-108042344D01*
X155099570Y-108176289D01*
X155340599Y-108264915D01*
X155543000Y-108142085D01*
X155543000Y-107124000D01*
X155523000Y-107124000D01*
X155523000Y-106870000D01*
X155543000Y-106870000D01*
X155543000Y-106850000D01*
X155797000Y-106850000D01*
X155797000Y-106870000D01*
X156814224Y-106870000D01*
X156937910Y-106667600D01*
X156907238Y-106566472D01*
X156799473Y-106333371D01*
X156648303Y-106125773D01*
X156515940Y-106003681D01*
X156687544Y-105832077D01*
X156830907Y-105617518D01*
X156929658Y-105379113D01*
X156980000Y-105126024D01*
X156980000Y-104867976D01*
X156929658Y-104614887D01*
X156830907Y-104376482D01*
X156687544Y-104161923D01*
X156522621Y-103997000D01*
X156687544Y-103832077D01*
X156830907Y-103617518D01*
X156929658Y-103379113D01*
X156980000Y-103126024D01*
X156980000Y-102867976D01*
X156929658Y-102614887D01*
X156830907Y-102376482D01*
X156687544Y-102161923D01*
X156505077Y-101979456D01*
X156290518Y-101836093D01*
X156052113Y-101737342D01*
X155799024Y-101687000D01*
X155540976Y-101687000D01*
X155287887Y-101737342D01*
X155049482Y-101836093D01*
X154867487Y-101957697D01*
X154796185Y-101870815D01*
X154699494Y-101791463D01*
X154589180Y-101732498D01*
X154469482Y-101696188D01*
X154345000Y-101683928D01*
X152995000Y-101683928D01*
X152870518Y-101696188D01*
X152750820Y-101732498D01*
X152640506Y-101791463D01*
X152543815Y-101870815D01*
X152464463Y-101967506D01*
X152405498Y-102077820D01*
X152369188Y-102197518D01*
X152365299Y-102237000D01*
X152310333Y-102237000D01*
X152273000Y-102233323D01*
X152242000Y-102236376D01*
X152242000Y-99869413D01*
X152460192Y-99869413D01*
X152555956Y-100133814D01*
X152845571Y-100274704D01*
X153157108Y-100356384D01*
X153478595Y-100375718D01*
X153797675Y-100331961D01*
X154102088Y-100226795D01*
X154276044Y-100133814D01*
X154371808Y-99869413D01*
X158960192Y-99869413D01*
X159055956Y-100133814D01*
X159345571Y-100274704D01*
X159657108Y-100356384D01*
X159978595Y-100375718D01*
X160297675Y-100331961D01*
X160602088Y-100226795D01*
X160776044Y-100133814D01*
X160871808Y-99869413D01*
X159916000Y-98913605D01*
X158960192Y-99869413D01*
X154371808Y-99869413D01*
X153416000Y-98913605D01*
X152460192Y-99869413D01*
X152242000Y-99869413D01*
X152242000Y-99675832D01*
X152280587Y-99689808D01*
X153236395Y-98734000D01*
X153595605Y-98734000D01*
X154551413Y-99689808D01*
X154815814Y-99594044D01*
X154956704Y-99304429D01*
X155038384Y-98992892D01*
X155050189Y-98796595D01*
X158274282Y-98796595D01*
X158318039Y-99115675D01*
X158423205Y-99420088D01*
X158516186Y-99594044D01*
X158780587Y-99689808D01*
X159736395Y-98734000D01*
X160095605Y-98734000D01*
X161051413Y-99689808D01*
X161315814Y-99594044D01*
X161456704Y-99304429D01*
X161538384Y-98992892D01*
X161557718Y-98671405D01*
X161513961Y-98352325D01*
X161408795Y-98047912D01*
X161315814Y-97873956D01*
X161051413Y-97778192D01*
X160095605Y-98734000D01*
X159736395Y-98734000D01*
X158780587Y-97778192D01*
X158516186Y-97873956D01*
X158375296Y-98163571D01*
X158293616Y-98475108D01*
X158274282Y-98796595D01*
X155050189Y-98796595D01*
X155057718Y-98671405D01*
X155013961Y-98352325D01*
X154908795Y-98047912D01*
X154815814Y-97873956D01*
X154551413Y-97778192D01*
X153595605Y-98734000D01*
X153236395Y-98734000D01*
X152280587Y-97778192D01*
X152242000Y-97792168D01*
X152242000Y-97598587D01*
X152460192Y-97598587D01*
X153416000Y-98554395D01*
X154371808Y-97598587D01*
X158960192Y-97598587D01*
X159916000Y-98554395D01*
X160871808Y-97598587D01*
X160776044Y-97334186D01*
X160486429Y-97193296D01*
X160174892Y-97111616D01*
X159853405Y-97092282D01*
X159534325Y-97136039D01*
X159229912Y-97241205D01*
X159055956Y-97334186D01*
X158960192Y-97598587D01*
X154371808Y-97598587D01*
X154276044Y-97334186D01*
X153986429Y-97193296D01*
X153674892Y-97111616D01*
X153353405Y-97092282D01*
X153034325Y-97136039D01*
X152729912Y-97241205D01*
X152555956Y-97334186D01*
X152460192Y-97598587D01*
X152242000Y-97598587D01*
X152242000Y-95372239D01*
X152373748Y-95503987D01*
X152641537Y-95682918D01*
X152939088Y-95806168D01*
X153254967Y-95869000D01*
X153577033Y-95869000D01*
X153892912Y-95806168D01*
X154190463Y-95682918D01*
X154458252Y-95503987D01*
X154685987Y-95276252D01*
X154864918Y-95008463D01*
X154988168Y-94710912D01*
X155051000Y-94395033D01*
X155051000Y-94072967D01*
X158281000Y-94072967D01*
X158281000Y-94395033D01*
X158343832Y-94710912D01*
X158467082Y-95008463D01*
X158646013Y-95276252D01*
X158873748Y-95503987D01*
X159141537Y-95682918D01*
X159439088Y-95806168D01*
X159754967Y-95869000D01*
X160077033Y-95869000D01*
X160392912Y-95806168D01*
X160690463Y-95682918D01*
X160958252Y-95503987D01*
X161185987Y-95276252D01*
X161364918Y-95008463D01*
X161488168Y-94710912D01*
X161551000Y-94395033D01*
X161551000Y-94072967D01*
X161488168Y-93757088D01*
X161364918Y-93459537D01*
X161185987Y-93191748D01*
X160958252Y-92964013D01*
X160690463Y-92785082D01*
X160392912Y-92661832D01*
X160077033Y-92599000D01*
X159754967Y-92599000D01*
X159439088Y-92661832D01*
X159141537Y-92785082D01*
X158873748Y-92964013D01*
X158646013Y-93191748D01*
X158467082Y-93459537D01*
X158343832Y-93757088D01*
X158281000Y-94072967D01*
X155051000Y-94072967D01*
X154988168Y-93757088D01*
X154864918Y-93459537D01*
X154685987Y-93191748D01*
X154458252Y-92964013D01*
X154190463Y-92785082D01*
X153892912Y-92661832D01*
X153577033Y-92599000D01*
X153254967Y-92599000D01*
X152939088Y-92661832D01*
X152641537Y-92785082D01*
X152373748Y-92964013D01*
X152242000Y-93095761D01*
X152242000Y-89694500D01*
X165771500Y-89694500D01*
X166078928Y-90001928D01*
X165570000Y-90001928D01*
X165445518Y-90014188D01*
X165325820Y-90050498D01*
X165215506Y-90109463D01*
X165118815Y-90188815D01*
X165039463Y-90285506D01*
X164980498Y-90395820D01*
X164944188Y-90515518D01*
X164931928Y-90640000D01*
X164931928Y-92240000D01*
X164944188Y-92364482D01*
X164980498Y-92484180D01*
X165039463Y-92594494D01*
X165118815Y-92691185D01*
X165215506Y-92770537D01*
X165325820Y-92829502D01*
X165445518Y-92865812D01*
X165570000Y-92878072D01*
X165610000Y-92878072D01*
X165610001Y-106555696D01*
X157292199Y-114873500D01*
X136657211Y-114873500D01*
X136613274Y-114829563D01*
X136443756Y-114716295D01*
X136255398Y-114638274D01*
X136055439Y-114598500D01*
X135851561Y-114598500D01*
X135651602Y-114638274D01*
X135463244Y-114716295D01*
X135293726Y-114829563D01*
X135149563Y-114973726D01*
X135036295Y-115143244D01*
X134958274Y-115331602D01*
X134918500Y-115531561D01*
X134918500Y-115735439D01*
X134958274Y-115935398D01*
X135036295Y-116123756D01*
X135149563Y-116293274D01*
X135293726Y-116437437D01*
X135463244Y-116550705D01*
X135623293Y-116617000D01*
X118455896Y-116617000D01*
X118326259Y-116487363D01*
X118091227Y-116330320D01*
X117830074Y-116222147D01*
X117552835Y-116167000D01*
X117317801Y-116167000D01*
X120710802Y-112774000D01*
X140456789Y-112774000D01*
X140500726Y-112817937D01*
X140670244Y-112931205D01*
X140858602Y-113009226D01*
X141058561Y-113049000D01*
X141262439Y-113049000D01*
X141462398Y-113009226D01*
X141650756Y-112931205D01*
X141820274Y-112817937D01*
X141964437Y-112673774D01*
X142077705Y-112504256D01*
X142155726Y-112315898D01*
X142195500Y-112115939D01*
X142195500Y-111912061D01*
X142155726Y-111712102D01*
X142077705Y-111523744D01*
X141964437Y-111354226D01*
X141820274Y-111210063D01*
X141650756Y-111096795D01*
X141462398Y-111018774D01*
X141262439Y-110979000D01*
X141058561Y-110979000D01*
X140858602Y-111018774D01*
X140670244Y-111096795D01*
X140500726Y-111210063D01*
X140456789Y-111254000D01*
X120433323Y-111254000D01*
X120396000Y-111250324D01*
X120358677Y-111254000D01*
X120358667Y-111254000D01*
X120247014Y-111264997D01*
X120103753Y-111308454D01*
X119971724Y-111379026D01*
X119855999Y-111473999D01*
X119832201Y-111502997D01*
X115171271Y-116163928D01*
X114071500Y-116163928D01*
X113947018Y-116176188D01*
X113827320Y-116212498D01*
X113717006Y-116271463D01*
X113620315Y-116350815D01*
X113540963Y-116447506D01*
X113481998Y-116557820D01*
X113445688Y-116677518D01*
X113433428Y-116802000D01*
X113433428Y-118264127D01*
X112901000Y-117731699D01*
X112901000Y-109840665D01*
X113436500Y-109840665D01*
X113436500Y-110123335D01*
X113491647Y-110400574D01*
X113599820Y-110661727D01*
X113756863Y-110896759D01*
X113956741Y-111096637D01*
X114191773Y-111253680D01*
X114452926Y-111361853D01*
X114730165Y-111417000D01*
X115012835Y-111417000D01*
X115290074Y-111361853D01*
X115551227Y-111253680D01*
X115786259Y-111096637D01*
X115986137Y-110896759D01*
X116141500Y-110664241D01*
X116296863Y-110896759D01*
X116496741Y-111096637D01*
X116731773Y-111253680D01*
X116992926Y-111361853D01*
X117270165Y-111417000D01*
X117552835Y-111417000D01*
X117830074Y-111361853D01*
X118091227Y-111253680D01*
X118326259Y-111096637D01*
X118526137Y-110896759D01*
X118683180Y-110661727D01*
X118791353Y-110400574D01*
X118846500Y-110123335D01*
X118846500Y-109840665D01*
X118791353Y-109563426D01*
X118683180Y-109302273D01*
X118526137Y-109067241D01*
X118326259Y-108867363D01*
X118091227Y-108710320D01*
X117830074Y-108602147D01*
X117552835Y-108547000D01*
X117270165Y-108547000D01*
X116992926Y-108602147D01*
X116731773Y-108710320D01*
X116496741Y-108867363D01*
X116296863Y-109067241D01*
X116141500Y-109299759D01*
X115986137Y-109067241D01*
X115786259Y-108867363D01*
X115551227Y-108710320D01*
X115290074Y-108602147D01*
X115012835Y-108547000D01*
X114730165Y-108547000D01*
X114452926Y-108602147D01*
X114191773Y-108710320D01*
X113956741Y-108867363D01*
X113756863Y-109067241D01*
X113599820Y-109302273D01*
X113491647Y-109563426D01*
X113436500Y-109840665D01*
X112901000Y-109840665D01*
X112901000Y-106832061D01*
X138601500Y-106832061D01*
X138601500Y-107035939D01*
X138641274Y-107235898D01*
X138719295Y-107424256D01*
X138832563Y-107593774D01*
X138976726Y-107737937D01*
X139146244Y-107851205D01*
X139334602Y-107929226D01*
X139534561Y-107969000D01*
X139738439Y-107969000D01*
X139938398Y-107929226D01*
X139963086Y-107919000D01*
X143038500Y-107919000D01*
X143725570Y-108606071D01*
X143735795Y-108630756D01*
X143849063Y-108800274D01*
X143993226Y-108944437D01*
X144162744Y-109057705D01*
X144351102Y-109135726D01*
X144551061Y-109175500D01*
X144754939Y-109175500D01*
X144954898Y-109135726D01*
X145143256Y-109057705D01*
X145312774Y-108944437D01*
X145456937Y-108800274D01*
X145570205Y-108630756D01*
X145648226Y-108442398D01*
X145688000Y-108242439D01*
X145688000Y-108038561D01*
X145648226Y-107838602D01*
X145570205Y-107650244D01*
X145456937Y-107480726D01*
X145312774Y-107336563D01*
X145143256Y-107223295D01*
X145118571Y-107213070D01*
X144177215Y-106271715D01*
X144146370Y-106234130D01*
X143996384Y-106111040D01*
X143825267Y-106019576D01*
X143639594Y-105963253D01*
X143494880Y-105949000D01*
X143446500Y-105944235D01*
X143398120Y-105949000D01*
X139963086Y-105949000D01*
X139938398Y-105938774D01*
X139738439Y-105899000D01*
X139534561Y-105899000D01*
X139334602Y-105938774D01*
X139146244Y-106016795D01*
X138976726Y-106130063D01*
X138832563Y-106274226D01*
X138719295Y-106443744D01*
X138641274Y-106632102D01*
X138601500Y-106832061D01*
X112901000Y-106832061D01*
X112901000Y-106740801D01*
X114932302Y-104709500D01*
X132677678Y-104709500D01*
X132715000Y-104713176D01*
X132752322Y-104709500D01*
X132752333Y-104709500D01*
X132863986Y-104698503D01*
X133007247Y-104655046D01*
X133139276Y-104584474D01*
X133255001Y-104489501D01*
X133278804Y-104460497D01*
X137326803Y-100412500D01*
X137388939Y-100412500D01*
X137588898Y-100372726D01*
X137777256Y-100294705D01*
X137946774Y-100181437D01*
X138090937Y-100037274D01*
X138204205Y-99867756D01*
X138282226Y-99679398D01*
X138322000Y-99479439D01*
X138322000Y-99275561D01*
X138282226Y-99075602D01*
X138204205Y-98887244D01*
X138090937Y-98717726D01*
X137946774Y-98573563D01*
X137777256Y-98460295D01*
X137588898Y-98382274D01*
X137388939Y-98342500D01*
X137185061Y-98342500D01*
X136985102Y-98382274D01*
X136796744Y-98460295D01*
X136627226Y-98573563D01*
X136483063Y-98717726D01*
X136369795Y-98887244D01*
X136291774Y-99075602D01*
X136252000Y-99275561D01*
X136252000Y-99337697D01*
X133390469Y-102199230D01*
X133475275Y-101994489D01*
X133528500Y-101726911D01*
X133528500Y-101454089D01*
X133475275Y-101186511D01*
X133370871Y-100934457D01*
X133219299Y-100707614D01*
X133026386Y-100514701D01*
X132799543Y-100363129D01*
X132547489Y-100258725D01*
X132498135Y-100248908D01*
X132626247Y-100210046D01*
X132758276Y-100139474D01*
X132874001Y-100044501D01*
X132897804Y-100015497D01*
X135507802Y-97405500D01*
X136457789Y-97405500D01*
X136501726Y-97449437D01*
X136671244Y-97562705D01*
X136859602Y-97640726D01*
X137059561Y-97680500D01*
X137263439Y-97680500D01*
X137463398Y-97640726D01*
X137651756Y-97562705D01*
X137821274Y-97449437D01*
X137965437Y-97305274D01*
X138078705Y-97135756D01*
X138156726Y-96947398D01*
X138196500Y-96747439D01*
X138196500Y-96543561D01*
X138156726Y-96343602D01*
X138078705Y-96155244D01*
X137965437Y-95985726D01*
X137863211Y-95883500D01*
X137891437Y-95855274D01*
X138004705Y-95685756D01*
X138082726Y-95497398D01*
X138122500Y-95297439D01*
X138122500Y-95093561D01*
X138082726Y-94893602D01*
X138004705Y-94705244D01*
X137891437Y-94535726D01*
X137747274Y-94391563D01*
X137577756Y-94278295D01*
X137389398Y-94200274D01*
X137189439Y-94160500D01*
X136985561Y-94160500D01*
X136785602Y-94200274D01*
X136597244Y-94278295D01*
X136427726Y-94391563D01*
X136383789Y-94435500D01*
X109818849Y-94435500D01*
X109696706Y-94206986D01*
X109511134Y-93980866D01*
X109285014Y-93795294D01*
X109259278Y-93781538D01*
X109465429Y-93625049D01*
X109658496Y-93407193D01*
X109805352Y-93155858D01*
X109897476Y-92892890D01*
X109776155Y-92663000D01*
X108458000Y-92663000D01*
X108458000Y-92683000D01*
X108204000Y-92683000D01*
X108204000Y-92663000D01*
X106885845Y-92663000D01*
X106764524Y-92892890D01*
X106856648Y-93155858D01*
X107003504Y-93407193D01*
X107196571Y-93625049D01*
X107402722Y-93781538D01*
X107376986Y-93795294D01*
X107150866Y-93980866D01*
X106965294Y-94206986D01*
X106827401Y-94464966D01*
X106742487Y-94744889D01*
X106713815Y-95036000D01*
X106742487Y-95327111D01*
X106827401Y-95607034D01*
X106965294Y-95865014D01*
X107150866Y-96091134D01*
X107214337Y-96143223D01*
X107112614Y-96197595D01*
X106978038Y-96308038D01*
X106867595Y-96442614D01*
X106785528Y-96596150D01*
X106734992Y-96762746D01*
X106717928Y-96936000D01*
X106717928Y-98136000D01*
X106734992Y-98309254D01*
X106785528Y-98475850D01*
X106867595Y-98629386D01*
X106978038Y-98763962D01*
X107112614Y-98874405D01*
X107266150Y-98956472D01*
X107432746Y-99007008D01*
X107606000Y-99024072D01*
X109056000Y-99024072D01*
X109229254Y-99007008D01*
X109395850Y-98956472D01*
X109549386Y-98874405D01*
X109683962Y-98763962D01*
X109794405Y-98629386D01*
X109876472Y-98475850D01*
X109927008Y-98309254D01*
X109944072Y-98136000D01*
X109944072Y-96936000D01*
X109927008Y-96762746D01*
X109876472Y-96596150D01*
X109794405Y-96442614D01*
X109683962Y-96308038D01*
X109549386Y-96197595D01*
X109447663Y-96143223D01*
X109511134Y-96091134D01*
X109622446Y-95955500D01*
X130982250Y-95955500D01*
X130916129Y-96054457D01*
X130811725Y-96306511D01*
X130758500Y-96574089D01*
X130758500Y-96846911D01*
X130811725Y-97114489D01*
X130916129Y-97366543D01*
X131067701Y-97593386D01*
X131260614Y-97786299D01*
X131487457Y-97937871D01*
X131739511Y-98042275D01*
X132007089Y-98095500D01*
X132279911Y-98095500D01*
X132547489Y-98042275D01*
X132799543Y-97937871D01*
X132878757Y-97884942D01*
X132019199Y-98744500D01*
X115456822Y-98744500D01*
X115419499Y-98740824D01*
X115382176Y-98744500D01*
X115382167Y-98744500D01*
X115270514Y-98755497D01*
X115127253Y-98798954D01*
X114995224Y-98869526D01*
X114995222Y-98869527D01*
X114995223Y-98869527D01*
X114908496Y-98940701D01*
X114908492Y-98940705D01*
X114879499Y-98964499D01*
X114855705Y-98993492D01*
X109819700Y-104029498D01*
X109712656Y-104029498D01*
X109833976Y-103799610D01*
X109741852Y-103536642D01*
X109594996Y-103285307D01*
X109401929Y-103067451D01*
X109170070Y-102891447D01*
X108908330Y-102764058D01*
X108626767Y-102690180D01*
X108394500Y-102830335D01*
X108394500Y-104029500D01*
X108414500Y-104029500D01*
X108414500Y-104283500D01*
X108394500Y-104283500D01*
X108394500Y-104303500D01*
X108140500Y-104303500D01*
X108140500Y-104283500D01*
X106822345Y-104283500D01*
X106701024Y-104513390D01*
X106793148Y-104776358D01*
X106940004Y-105027693D01*
X107133071Y-105245549D01*
X107339222Y-105402038D01*
X107313486Y-105415794D01*
X107087366Y-105601366D01*
X106901794Y-105827486D01*
X106763901Y-106085466D01*
X106678987Y-106365389D01*
X106650315Y-106656500D01*
X106678987Y-106947611D01*
X106763901Y-107227534D01*
X106901794Y-107485514D01*
X107087366Y-107711634D01*
X107150837Y-107763723D01*
X107049114Y-107818095D01*
X106914538Y-107928538D01*
X106804095Y-108063114D01*
X106722028Y-108216650D01*
X106671492Y-108383246D01*
X106654428Y-108556500D01*
X106654428Y-109756500D01*
X106671492Y-109929754D01*
X106722028Y-110096350D01*
X106804095Y-110249886D01*
X106914538Y-110384462D01*
X107049114Y-110494905D01*
X107202650Y-110576972D01*
X107369246Y-110627508D01*
X107542500Y-110644572D01*
X108992500Y-110644572D01*
X109165754Y-110627508D01*
X109332350Y-110576972D01*
X109485886Y-110494905D01*
X109620462Y-110384462D01*
X109730905Y-110249886D01*
X109812972Y-110096350D01*
X109863508Y-109929754D01*
X109880572Y-109756500D01*
X109880572Y-108556500D01*
X109863508Y-108383246D01*
X109812972Y-108216650D01*
X109730905Y-108063114D01*
X109620462Y-107928538D01*
X109485886Y-107818095D01*
X109384163Y-107763723D01*
X109447634Y-107711634D01*
X109633206Y-107485514D01*
X109771099Y-107227534D01*
X109856013Y-106947611D01*
X109884685Y-106656500D01*
X109856013Y-106365389D01*
X109804204Y-106194597D01*
X115734303Y-100264500D01*
X131725569Y-100264500D01*
X131487457Y-100363129D01*
X131260614Y-100514701D01*
X131067701Y-100707614D01*
X130916129Y-100934457D01*
X130811725Y-101186511D01*
X130758500Y-101454089D01*
X130758500Y-101726911D01*
X130811725Y-101994489D01*
X130916129Y-102246543D01*
X131067701Y-102473386D01*
X131260614Y-102666299D01*
X131487457Y-102817871D01*
X131739511Y-102922275D01*
X132007089Y-102975500D01*
X132279911Y-102975500D01*
X132547489Y-102922275D01*
X132752230Y-102837469D01*
X132400199Y-103189500D01*
X114654823Y-103189500D01*
X114617500Y-103185824D01*
X114580177Y-103189500D01*
X114580167Y-103189500D01*
X114468514Y-103200497D01*
X114325253Y-103243954D01*
X114193223Y-103314526D01*
X114109583Y-103383168D01*
X114077499Y-103409499D01*
X114053701Y-103438497D01*
X111629998Y-105862201D01*
X111601000Y-105885999D01*
X111577202Y-105914997D01*
X111577201Y-105914998D01*
X111506026Y-106001724D01*
X111435454Y-106133754D01*
X111410726Y-106215276D01*
X111391998Y-106277014D01*
X111384337Y-106354799D01*
X111377324Y-106426000D01*
X111381001Y-106463332D01*
X111381000Y-114115500D01*
X110972931Y-113707431D01*
X110962705Y-113682744D01*
X110849437Y-113513226D01*
X110705274Y-113369063D01*
X110535756Y-113255795D01*
X110347398Y-113177774D01*
X110147439Y-113138000D01*
X109943561Y-113138000D01*
X109743602Y-113177774D01*
X109555244Y-113255795D01*
X109385726Y-113369063D01*
X109241563Y-113513226D01*
X109128295Y-113682744D01*
X109050274Y-113871102D01*
X109010500Y-114071061D01*
X109010500Y-114274939D01*
X109050274Y-114474898D01*
X109128295Y-114663256D01*
X109241563Y-114832774D01*
X109385726Y-114976937D01*
X109555244Y-115090205D01*
X109579931Y-115100431D01*
X110394000Y-115914500D01*
X110394001Y-121818005D01*
X110347201Y-121705021D01*
X110004114Y-121191554D01*
X109567446Y-120754886D01*
X109053979Y-120411799D01*
X108483446Y-120175476D01*
X107877771Y-120055000D01*
X107260229Y-120055000D01*
X106654554Y-120175476D01*
X106084021Y-120411799D01*
X105570554Y-120754886D01*
X105133886Y-121191554D01*
X104790799Y-121705021D01*
X104554476Y-122275554D01*
X104434000Y-122881229D01*
X104434000Y-123498771D01*
X104554476Y-124104446D01*
X104790799Y-124674979D01*
X105133886Y-125188446D01*
X105570554Y-125625114D01*
X106084021Y-125968201D01*
X106654554Y-126204524D01*
X107260229Y-126325000D01*
X107877771Y-126325000D01*
X108483446Y-126204524D01*
X109053979Y-125968201D01*
X109567446Y-125625114D01*
X110004114Y-125188446D01*
X110347201Y-124674979D01*
X110394001Y-124561995D01*
X110394001Y-125237111D01*
X110389235Y-125285500D01*
X110408253Y-125478593D01*
X110464576Y-125664266D01*
X110507152Y-125743919D01*
X110556041Y-125835384D01*
X110679131Y-125985370D01*
X110716711Y-126016211D01*
X113707500Y-129007000D01*
X108102926Y-129007000D01*
X107187207Y-128934931D01*
X106319322Y-128726570D01*
X105494720Y-128385009D01*
X104733701Y-127918655D01*
X104055006Y-127338994D01*
X103475345Y-126660299D01*
X103008989Y-125899275D01*
X102667430Y-125074678D01*
X102459068Y-124206791D01*
X102387000Y-123291074D01*
X102387000Y-103799610D01*
X106701024Y-103799610D01*
X106822345Y-104029500D01*
X108140500Y-104029500D01*
X108140500Y-102830335D01*
X107908233Y-102690180D01*
X107626670Y-102764058D01*
X107364930Y-102891447D01*
X107133071Y-103067451D01*
X106940004Y-103285307D01*
X106793148Y-103536642D01*
X106701024Y-103799610D01*
X102387000Y-103799610D01*
X102387000Y-92179110D01*
X106764524Y-92179110D01*
X106885845Y-92409000D01*
X108204000Y-92409000D01*
X108204000Y-91209835D01*
X108458000Y-91209835D01*
X108458000Y-92409000D01*
X109776155Y-92409000D01*
X109897476Y-92179110D01*
X109805352Y-91916142D01*
X109658496Y-91664807D01*
X109465429Y-91446951D01*
X109233570Y-91270947D01*
X108971830Y-91143558D01*
X108690267Y-91069680D01*
X108458000Y-91209835D01*
X108204000Y-91209835D01*
X107971733Y-91069680D01*
X107690170Y-91143558D01*
X107428430Y-91270947D01*
X107196571Y-91446951D01*
X107003504Y-91664807D01*
X106856648Y-91916142D01*
X106764524Y-92179110D01*
X102387000Y-92179110D01*
X102387000Y-87137724D01*
X110145881Y-87137724D01*
X110277817Y-87432812D01*
X110618545Y-87603659D01*
X110986057Y-87704750D01*
X111366229Y-87732201D01*
X111744451Y-87684957D01*
X112106190Y-87564833D01*
X112353183Y-87432812D01*
X112485119Y-87137724D01*
X111315500Y-85968105D01*
X110145881Y-87137724D01*
X102387000Y-87137724D01*
X102387000Y-85839229D01*
X109371799Y-85839229D01*
X109419043Y-86217451D01*
X109539167Y-86579190D01*
X109671188Y-86826183D01*
X109966276Y-86958119D01*
X111135895Y-85788500D01*
X111495105Y-85788500D01*
X112664724Y-86958119D01*
X112959812Y-86826183D01*
X113130659Y-86485455D01*
X113231750Y-86117943D01*
X113259201Y-85737771D01*
X113211957Y-85359549D01*
X113091833Y-84997810D01*
X112959812Y-84750817D01*
X112664724Y-84618881D01*
X111495105Y-85788500D01*
X111135895Y-85788500D01*
X109966276Y-84618881D01*
X109671188Y-84750817D01*
X109500341Y-85091545D01*
X109399250Y-85459057D01*
X109371799Y-85839229D01*
X102387000Y-85839229D01*
X102387000Y-84439276D01*
X110145881Y-84439276D01*
X111315500Y-85608895D01*
X112485119Y-84439276D01*
X112353183Y-84144188D01*
X112012455Y-83973341D01*
X111644943Y-83872250D01*
X111264771Y-83844799D01*
X110886549Y-83892043D01*
X110524810Y-84012167D01*
X110277817Y-84144188D01*
X110145881Y-84439276D01*
X102387000Y-84439276D01*
X102387000Y-79408500D01*
X109377428Y-79408500D01*
X109377428Y-82008500D01*
X109389688Y-82132982D01*
X109425998Y-82252680D01*
X109484963Y-82362994D01*
X109564315Y-82459685D01*
X109661006Y-82539037D01*
X109771320Y-82598002D01*
X109891018Y-82634312D01*
X110015500Y-82646572D01*
X112615500Y-82646572D01*
X112739982Y-82634312D01*
X112859680Y-82598002D01*
X112969994Y-82539037D01*
X113066685Y-82459685D01*
X113146037Y-82362994D01*
X113205002Y-82252680D01*
X113241312Y-82132982D01*
X113253572Y-82008500D01*
X113253572Y-79408500D01*
X113241312Y-79284018D01*
X113205002Y-79164320D01*
X113146037Y-79054006D01*
X113066685Y-78957315D01*
X112969994Y-78877963D01*
X112859680Y-78818998D01*
X112739982Y-78782688D01*
X112615500Y-78770428D01*
X110015500Y-78770428D01*
X109891018Y-78782688D01*
X109771320Y-78818998D01*
X109661006Y-78877963D01*
X109564315Y-78957315D01*
X109484963Y-79054006D01*
X109425998Y-79164320D01*
X109389688Y-79284018D01*
X109377428Y-79408500D01*
X102387000Y-79408500D01*
X102387000Y-72542926D01*
X102448323Y-71763729D01*
X104180000Y-71763729D01*
X104180000Y-72381271D01*
X104300476Y-72986946D01*
X104536799Y-73557479D01*
X104879886Y-74070946D01*
X105316554Y-74507614D01*
X105830021Y-74850701D01*
X106400554Y-75087024D01*
X107006229Y-75207500D01*
X107623771Y-75207500D01*
X108229446Y-75087024D01*
X108799979Y-74850701D01*
X109313446Y-74507614D01*
X109750114Y-74070946D01*
X110093201Y-73557479D01*
X110329524Y-72986946D01*
X110450000Y-72381271D01*
X110450000Y-71763729D01*
X110329524Y-71158054D01*
X110171272Y-70776000D01*
X114208928Y-70776000D01*
X114208928Y-72226000D01*
X114225992Y-72399254D01*
X114276528Y-72565850D01*
X114358595Y-72719386D01*
X114469038Y-72853962D01*
X114603614Y-72964405D01*
X114757150Y-73046472D01*
X114923746Y-73097008D01*
X115097000Y-73114072D01*
X116297000Y-73114072D01*
X116470254Y-73097008D01*
X116636850Y-73046472D01*
X116790386Y-72964405D01*
X116924962Y-72853962D01*
X117035405Y-72719386D01*
X117089777Y-72617663D01*
X117141866Y-72681134D01*
X117367987Y-72866706D01*
X117437001Y-72903595D01*
X117437000Y-78281677D01*
X117433324Y-78319000D01*
X117437000Y-78356322D01*
X117437000Y-78356332D01*
X117447997Y-78467985D01*
X117477426Y-78565001D01*
X117491454Y-78611246D01*
X117562026Y-78743276D01*
X117594371Y-78782688D01*
X117656999Y-78859001D01*
X117686003Y-78882804D01*
X131135201Y-92332003D01*
X131158999Y-92361001D01*
X131187997Y-92384799D01*
X131274724Y-92455974D01*
X131406753Y-92526546D01*
X131550014Y-92570003D01*
X131699000Y-92584677D01*
X131736333Y-92581000D01*
X136392789Y-92581000D01*
X136436726Y-92624937D01*
X136606244Y-92738205D01*
X136794602Y-92816226D01*
X136994561Y-92856000D01*
X137198439Y-92856000D01*
X137398398Y-92816226D01*
X137586756Y-92738205D01*
X137756274Y-92624937D01*
X137900437Y-92480774D01*
X138013705Y-92311256D01*
X138091726Y-92122898D01*
X138131500Y-91922939D01*
X138131500Y-91719061D01*
X138091726Y-91519102D01*
X138013705Y-91330744D01*
X137980634Y-91281250D01*
X138013705Y-91231756D01*
X138091726Y-91043398D01*
X138131500Y-90843439D01*
X138131500Y-90639561D01*
X138091726Y-90439602D01*
X138013705Y-90251244D01*
X137900437Y-90081726D01*
X137756274Y-89937563D01*
X137586756Y-89824295D01*
X137398398Y-89746274D01*
X137198439Y-89706500D01*
X136994561Y-89706500D01*
X136794602Y-89746274D01*
X136606244Y-89824295D01*
X136436726Y-89937563D01*
X136392789Y-89981500D01*
X133728302Y-89981500D01*
X121457000Y-77710199D01*
X121457000Y-72903595D01*
X121526014Y-72866706D01*
X121752134Y-72681134D01*
X121937706Y-72455014D01*
X121951462Y-72429278D01*
X122107951Y-72635429D01*
X122325807Y-72828496D01*
X122577142Y-72975352D01*
X122840110Y-73067476D01*
X123070000Y-72946155D01*
X123070000Y-71628000D01*
X123324000Y-71628000D01*
X123324000Y-72946155D01*
X123553890Y-73067476D01*
X123816858Y-72975352D01*
X124068193Y-72828496D01*
X124286049Y-72635429D01*
X124462053Y-72403570D01*
X124589442Y-72141830D01*
X124663320Y-71860267D01*
X124523165Y-71628000D01*
X123324000Y-71628000D01*
X123070000Y-71628000D01*
X123050000Y-71628000D01*
X123050000Y-71374000D01*
X123070000Y-71374000D01*
X123070000Y-70055845D01*
X123324000Y-70055845D01*
X123324000Y-71374000D01*
X124523165Y-71374000D01*
X124663320Y-71141733D01*
X124589442Y-70860170D01*
X124462053Y-70598430D01*
X124286049Y-70366571D01*
X124068193Y-70173504D01*
X123816858Y-70026648D01*
X123553890Y-69934524D01*
X123324000Y-70055845D01*
X123070000Y-70055845D01*
X122840110Y-69934524D01*
X122577142Y-70026648D01*
X122325807Y-70173504D01*
X122107951Y-70366571D01*
X121951462Y-70572722D01*
X121937706Y-70546986D01*
X121752134Y-70320866D01*
X121526013Y-70135294D01*
X121268033Y-69997401D01*
X120988110Y-69912487D01*
X120697000Y-69883815D01*
X120405889Y-69912487D01*
X120125966Y-69997401D01*
X119867986Y-70135294D01*
X119641866Y-70320866D01*
X119456294Y-70546987D01*
X119447000Y-70564374D01*
X119437706Y-70546986D01*
X119252134Y-70320866D01*
X119026013Y-70135294D01*
X118768033Y-69997401D01*
X118488110Y-69912487D01*
X118197000Y-69883815D01*
X117905889Y-69912487D01*
X117625966Y-69997401D01*
X117367986Y-70135294D01*
X117141866Y-70320866D01*
X117089777Y-70384337D01*
X117035405Y-70282614D01*
X116924962Y-70148038D01*
X116790386Y-70037595D01*
X116636850Y-69955528D01*
X116470254Y-69904992D01*
X116297000Y-69887928D01*
X115097000Y-69887928D01*
X114923746Y-69904992D01*
X114757150Y-69955528D01*
X114603614Y-70037595D01*
X114469038Y-70148038D01*
X114358595Y-70282614D01*
X114276528Y-70436150D01*
X114225992Y-70602746D01*
X114208928Y-70776000D01*
X110171272Y-70776000D01*
X110093201Y-70587521D01*
X109750114Y-70074054D01*
X109313446Y-69637386D01*
X108799979Y-69294299D01*
X108229446Y-69057976D01*
X107623771Y-68937500D01*
X107006229Y-68937500D01*
X106400554Y-69057976D01*
X105830021Y-69294299D01*
X105316554Y-69637386D01*
X104879886Y-70074054D01*
X104536799Y-70587521D01*
X104300476Y-71158054D01*
X104180000Y-71763729D01*
X102448323Y-71763729D01*
X102459068Y-71627209D01*
X102667430Y-70759322D01*
X103008989Y-69934725D01*
X103475345Y-69173701D01*
X104055006Y-68495006D01*
X104733701Y-67915345D01*
X105494720Y-67448991D01*
X106319322Y-67107430D01*
X107187207Y-66899069D01*
X108102926Y-66827000D01*
X177901074Y-66827000D01*
X178816791Y-66899068D01*
G37*
%TD.AperFunction*%
D25*
X171733001Y-71222225D02*
X171733000Y-78963500D01*
X168449216Y-75679716D01*
X168418370Y-75642130D01*
X168268384Y-75519040D01*
X168097267Y-75427576D01*
X167911594Y-75371253D01*
X167766880Y-75357000D01*
X167718500Y-75352235D01*
X167670120Y-75357000D01*
X166013086Y-75357000D01*
X165988398Y-75346774D01*
X165788439Y-75307000D01*
X165584561Y-75307000D01*
X165479000Y-75327997D01*
X165479000Y-73744301D01*
X166122098Y-73101204D01*
X166292890Y-73153013D01*
X166584000Y-73181685D01*
X166875111Y-73153013D01*
X167155034Y-73068099D01*
X167413014Y-72930206D01*
X167639134Y-72744634D01*
X167824706Y-72518514D01*
X167838462Y-72492778D01*
X167994951Y-72698929D01*
X168212807Y-72891996D01*
X168464142Y-73038852D01*
X168727110Y-73130976D01*
X168957000Y-73009655D01*
X168957000Y-71691500D01*
X169211000Y-71691500D01*
X169211000Y-73009655D01*
X169440890Y-73130976D01*
X169703858Y-73038852D01*
X169955193Y-72891996D01*
X170173049Y-72698929D01*
X170349053Y-72467070D01*
X170476442Y-72205330D01*
X170550320Y-71923767D01*
X170410165Y-71691500D01*
X169211000Y-71691500D01*
X168957000Y-71691500D01*
X168937000Y-71691500D01*
X168937000Y-71437500D01*
X168957000Y-71437500D01*
X168957000Y-70119345D01*
X169211000Y-70119345D01*
X169211000Y-71437500D01*
X170410165Y-71437500D01*
X170550320Y-71205233D01*
X170476442Y-70923670D01*
X170349053Y-70661930D01*
X170173049Y-70430071D01*
X169955193Y-70237004D01*
X169703858Y-70090148D01*
X169440890Y-69998024D01*
X169211000Y-70119345D01*
X168957000Y-70119345D01*
X168727110Y-69998024D01*
X168464142Y-70090148D01*
X168212807Y-70237004D01*
X167994951Y-70430071D01*
X167838462Y-70636222D01*
X167824706Y-70610486D01*
X167639134Y-70384366D01*
X167413013Y-70198794D01*
X167155033Y-70060901D01*
X166875110Y-69975987D01*
X166584000Y-69947315D01*
X166292889Y-69975987D01*
X166012966Y-70060901D01*
X165754986Y-70198794D01*
X165528866Y-70384366D01*
X165476777Y-70447837D01*
X165422405Y-70346114D01*
X165311962Y-70211538D01*
X165177386Y-70101095D01*
X165023850Y-70019028D01*
X164944000Y-69994806D01*
X164944000Y-69825223D01*
X165456224Y-69313000D01*
X169823777Y-69313000D01*
X171733001Y-71222225D01*
%TA.AperFunction,Conductor*%
D26*
G36*
X171733001Y-71222225D02*
G01*
X171733000Y-78963500D01*
X168449216Y-75679716D01*
X168418370Y-75642130D01*
X168268384Y-75519040D01*
X168097267Y-75427576D01*
X167911594Y-75371253D01*
X167766880Y-75357000D01*
X167718500Y-75352235D01*
X167670120Y-75357000D01*
X166013086Y-75357000D01*
X165988398Y-75346774D01*
X165788439Y-75307000D01*
X165584561Y-75307000D01*
X165479000Y-75327997D01*
X165479000Y-73744301D01*
X166122098Y-73101204D01*
X166292890Y-73153013D01*
X166584000Y-73181685D01*
X166875111Y-73153013D01*
X167155034Y-73068099D01*
X167413014Y-72930206D01*
X167639134Y-72744634D01*
X167824706Y-72518514D01*
X167838462Y-72492778D01*
X167994951Y-72698929D01*
X168212807Y-72891996D01*
X168464142Y-73038852D01*
X168727110Y-73130976D01*
X168957000Y-73009655D01*
X168957000Y-71691500D01*
X169211000Y-71691500D01*
X169211000Y-73009655D01*
X169440890Y-73130976D01*
X169703858Y-73038852D01*
X169955193Y-72891996D01*
X170173049Y-72698929D01*
X170349053Y-72467070D01*
X170476442Y-72205330D01*
X170550320Y-71923767D01*
X170410165Y-71691500D01*
X169211000Y-71691500D01*
X168957000Y-71691500D01*
X168937000Y-71691500D01*
X168937000Y-71437500D01*
X168957000Y-71437500D01*
X168957000Y-70119345D01*
X169211000Y-70119345D01*
X169211000Y-71437500D01*
X170410165Y-71437500D01*
X170550320Y-71205233D01*
X170476442Y-70923670D01*
X170349053Y-70661930D01*
X170173049Y-70430071D01*
X169955193Y-70237004D01*
X169703858Y-70090148D01*
X169440890Y-69998024D01*
X169211000Y-70119345D01*
X168957000Y-70119345D01*
X168727110Y-69998024D01*
X168464142Y-70090148D01*
X168212807Y-70237004D01*
X167994951Y-70430071D01*
X167838462Y-70636222D01*
X167824706Y-70610486D01*
X167639134Y-70384366D01*
X167413013Y-70198794D01*
X167155033Y-70060901D01*
X166875110Y-69975987D01*
X166584000Y-69947315D01*
X166292889Y-69975987D01*
X166012966Y-70060901D01*
X165754986Y-70198794D01*
X165528866Y-70384366D01*
X165476777Y-70447837D01*
X165422405Y-70346114D01*
X165311962Y-70211538D01*
X165177386Y-70101095D01*
X165023850Y-70019028D01*
X164944000Y-69994806D01*
X164944000Y-69825223D01*
X165456224Y-69313000D01*
X169823777Y-69313000D01*
X171733001Y-71222225D01*
G37*
%TD.AperFunction*%
%TD*%
M02*
