%TF.GenerationSoftware,KiCad,Pcbnew,(5.1.8)-1*%
%TF.CreationDate,2021-09-25T16:30:51+01:00*%
%TF.ProjectId,dashboard mech press,64617368-626f-4617-9264-206d65636820,rev?*%
%TF.SameCoordinates,Original*%
%TF.FileFunction,Legend,Top*%
%TF.FilePolarity,Positive*%
%FSLAX46Y46*%
G04 Gerber Fmt 4.6, Leading zero omitted, Abs format (unit mm)*
G04 Created by KiCad (PCBNEW (5.1.8)-1) date 2021-09-25 16:30:51*
%MOMM*%
%LPD*%
G01*
G04 APERTURE LIST*
%ADD10C,0.120000*%
%ADD11C,0.150000*%
%ADD12C,0.100000*%
G04 APERTURE END LIST*
D10*
%TO.C,J4*%
X112787000Y-74111000D02*
X115287000Y-74111000D01*
X112787000Y-71611000D02*
X112787000Y-74111000D01*
X124807000Y-72311000D02*
X124807000Y-73811000D01*
X125807000Y-72311000D02*
X124807000Y-72311000D01*
X114087000Y-72311000D02*
X114087000Y-73811000D01*
X113087000Y-72311000D02*
X114087000Y-72311000D01*
X125307000Y-71501000D02*
X125807000Y-71501000D01*
X125307000Y-70291000D02*
X125307000Y-71501000D01*
X113587000Y-70291000D02*
X125307000Y-70291000D01*
X113587000Y-71501000D02*
X113587000Y-70291000D01*
X113087000Y-71501000D02*
X113587000Y-71501000D01*
X125807000Y-69791000D02*
X113087000Y-69791000D01*
X125807000Y-73811000D02*
X125807000Y-69791000D01*
X113087000Y-73811000D02*
X125807000Y-73811000D01*
X113087000Y-69791000D02*
X113087000Y-73811000D01*
%TO.C,J14*%
X126693500Y-74174500D02*
X129193500Y-74174500D01*
X126693500Y-71674500D02*
X126693500Y-74174500D01*
X136213500Y-72374500D02*
X136213500Y-73874500D01*
X137213500Y-72374500D02*
X136213500Y-72374500D01*
X127993500Y-72374500D02*
X127993500Y-73874500D01*
X126993500Y-72374500D02*
X127993500Y-72374500D01*
X136713500Y-71564500D02*
X137213500Y-71564500D01*
X136713500Y-70354500D02*
X136713500Y-71564500D01*
X127493500Y-70354500D02*
X136713500Y-70354500D01*
X127493500Y-71564500D02*
X127493500Y-70354500D01*
X126993500Y-71564500D02*
X127493500Y-71564500D01*
X137213500Y-69854500D02*
X126993500Y-69854500D01*
X137213500Y-73874500D02*
X137213500Y-69854500D01*
X126993500Y-73874500D02*
X137213500Y-73874500D01*
X126993500Y-69854500D02*
X126993500Y-73874500D01*
%TO.C,J13*%
X121932500Y-121786500D02*
X119432500Y-121786500D01*
X121932500Y-124286500D02*
X121932500Y-121786500D01*
X112412500Y-123586500D02*
X112412500Y-122086500D01*
X111412500Y-123586500D02*
X112412500Y-123586500D01*
X120632500Y-123586500D02*
X120632500Y-122086500D01*
X121632500Y-123586500D02*
X120632500Y-123586500D01*
X111912500Y-124396500D02*
X111412500Y-124396500D01*
X111912500Y-125606500D02*
X111912500Y-124396500D01*
X121132500Y-125606500D02*
X111912500Y-125606500D01*
X121132500Y-124396500D02*
X121132500Y-125606500D01*
X121632500Y-124396500D02*
X121132500Y-124396500D01*
X111412500Y-126106500D02*
X121632500Y-126106500D01*
X111412500Y-122086500D02*
X111412500Y-126106500D01*
X121632500Y-122086500D02*
X111412500Y-122086500D01*
X121632500Y-126106500D02*
X121632500Y-122086500D01*
%TO.C,J12*%
X138377500Y-74174500D02*
X140877500Y-74174500D01*
X138377500Y-71674500D02*
X138377500Y-74174500D01*
X147897500Y-72374500D02*
X147897500Y-73874500D01*
X148897500Y-72374500D02*
X147897500Y-72374500D01*
X139677500Y-72374500D02*
X139677500Y-73874500D01*
X138677500Y-72374500D02*
X139677500Y-72374500D01*
X148397500Y-71564500D02*
X148897500Y-71564500D01*
X148397500Y-70354500D02*
X148397500Y-71564500D01*
X139177500Y-70354500D02*
X148397500Y-70354500D01*
X139177500Y-71564500D02*
X139177500Y-70354500D01*
X138677500Y-71564500D02*
X139177500Y-71564500D01*
X148897500Y-69854500D02*
X138677500Y-69854500D01*
X148897500Y-73874500D02*
X148897500Y-69854500D01*
X138677500Y-73874500D02*
X148897500Y-73874500D01*
X138677500Y-69854500D02*
X138677500Y-73874500D01*
%TO.C,J11*%
X110877500Y-112066500D02*
X110877500Y-109566500D01*
X108377500Y-112066500D02*
X110877500Y-112066500D01*
X109077500Y-102546500D02*
X110577500Y-102546500D01*
X109077500Y-101546500D02*
X109077500Y-102546500D01*
X109077500Y-110766500D02*
X110577500Y-110766500D01*
X109077500Y-111766500D02*
X109077500Y-110766500D01*
X108267500Y-102046500D02*
X108267500Y-101546500D01*
X107057500Y-102046500D02*
X108267500Y-102046500D01*
X107057500Y-111266500D02*
X107057500Y-102046500D01*
X108267500Y-111266500D02*
X107057500Y-111266500D01*
X108267500Y-111766500D02*
X108267500Y-111266500D01*
X106557500Y-101546500D02*
X106557500Y-111766500D01*
X110577500Y-101546500D02*
X106557500Y-101546500D01*
X110577500Y-111766500D02*
X110577500Y-101546500D01*
X106557500Y-111766500D02*
X110577500Y-111766500D01*
%TO.C,J10*%
X149807500Y-74174500D02*
X152307500Y-74174500D01*
X149807500Y-71674500D02*
X149807500Y-74174500D01*
X159327500Y-72374500D02*
X159327500Y-73874500D01*
X160327500Y-72374500D02*
X159327500Y-72374500D01*
X151107500Y-72374500D02*
X151107500Y-73874500D01*
X150107500Y-72374500D02*
X151107500Y-72374500D01*
X159827500Y-71564500D02*
X160327500Y-71564500D01*
X159827500Y-70354500D02*
X159827500Y-71564500D01*
X150607500Y-70354500D02*
X159827500Y-70354500D01*
X150607500Y-71564500D02*
X150607500Y-70354500D01*
X150107500Y-71564500D02*
X150607500Y-71564500D01*
X160327500Y-69854500D02*
X150107500Y-69854500D01*
X160327500Y-73874500D02*
X160327500Y-69854500D01*
X150107500Y-73874500D02*
X160327500Y-73874500D01*
X150107500Y-69854500D02*
X150107500Y-73874500D01*
%TO.C,J9*%
X110941000Y-100446000D02*
X110941000Y-97946000D01*
X108441000Y-100446000D02*
X110941000Y-100446000D01*
X109141000Y-90926000D02*
X110641000Y-90926000D01*
X109141000Y-89926000D02*
X109141000Y-90926000D01*
X109141000Y-99146000D02*
X110641000Y-99146000D01*
X109141000Y-100146000D02*
X109141000Y-99146000D01*
X108331000Y-90426000D02*
X108331000Y-89926000D01*
X107121000Y-90426000D02*
X108331000Y-90426000D01*
X107121000Y-99646000D02*
X107121000Y-90426000D01*
X108331000Y-99646000D02*
X107121000Y-99646000D01*
X108331000Y-100146000D02*
X108331000Y-99646000D01*
X106621000Y-89926000D02*
X106621000Y-100146000D01*
X110641000Y-89926000D02*
X106621000Y-89926000D01*
X110641000Y-100146000D02*
X110641000Y-89926000D01*
X106621000Y-100146000D02*
X110641000Y-100146000D01*
%TO.C,J8*%
X161174000Y-74174500D02*
X163674000Y-74174500D01*
X161174000Y-71674500D02*
X161174000Y-74174500D01*
X170694000Y-72374500D02*
X170694000Y-73874500D01*
X171694000Y-72374500D02*
X170694000Y-72374500D01*
X162474000Y-72374500D02*
X162474000Y-73874500D01*
X161474000Y-72374500D02*
X162474000Y-72374500D01*
X171194000Y-71564500D02*
X171694000Y-71564500D01*
X171194000Y-70354500D02*
X171194000Y-71564500D01*
X161974000Y-70354500D02*
X171194000Y-70354500D01*
X161974000Y-71564500D02*
X161974000Y-70354500D01*
X161474000Y-71564500D02*
X161974000Y-71564500D01*
X171694000Y-69854500D02*
X161474000Y-69854500D01*
X171694000Y-73874500D02*
X171694000Y-69854500D01*
X161474000Y-73874500D02*
X171694000Y-73874500D01*
X161474000Y-69854500D02*
X161474000Y-73874500D01*
%TO.C,J5*%
X177920500Y-81989500D02*
X177920500Y-84489500D01*
X180420500Y-81989500D02*
X177920500Y-81989500D01*
X179720500Y-91509500D02*
X178220500Y-91509500D01*
X179720500Y-92509500D02*
X179720500Y-91509500D01*
X179720500Y-83289500D02*
X178220500Y-83289500D01*
X179720500Y-82289500D02*
X179720500Y-83289500D01*
X180530500Y-92009500D02*
X180530500Y-92509500D01*
X181740500Y-92009500D02*
X180530500Y-92009500D01*
X181740500Y-82789500D02*
X181740500Y-92009500D01*
X180530500Y-82789500D02*
X181740500Y-82789500D01*
X180530500Y-82289500D02*
X180530500Y-82789500D01*
X182240500Y-92509500D02*
X182240500Y-82289500D01*
X178220500Y-92509500D02*
X182240500Y-92509500D01*
X178220500Y-82289500D02*
X178220500Y-92509500D01*
X182240500Y-82289500D02*
X178220500Y-82289500D01*
%TO.C,Y1*%
X129618500Y-95950500D02*
X129618500Y-102350500D01*
X134668500Y-95950500D02*
X134668500Y-102350500D01*
X129618500Y-102350500D02*
G75*
G03*
X134668500Y-102350500I2525000J0D01*
G01*
X129618500Y-95950500D02*
G75*
G02*
X134668500Y-95950500I2525000J0D01*
G01*
%TO.C,U7*%
X161342500Y-119145000D02*
X167352500Y-119145000D01*
X163592500Y-125965000D02*
X167352500Y-125965000D01*
X167352500Y-119145000D02*
X167352500Y-120405000D01*
X167352500Y-125965000D02*
X167352500Y-124705000D01*
D11*
%TO.C,U6*%
X167105000Y-108135000D02*
X161830000Y-108135000D01*
X165830000Y-102735000D02*
X161830000Y-102735000D01*
D10*
%TO.C,U5*%
X137812000Y-126171000D02*
X139462000Y-126171000D01*
X137812000Y-120971000D02*
X137812000Y-126171000D01*
X143112000Y-120971000D02*
X137812000Y-120971000D01*
X143112000Y-126171000D02*
X143112000Y-120971000D01*
X141462000Y-126171000D02*
X143112000Y-126171000D01*
X139462000Y-126171000D02*
G75*
G02*
X141462000Y-126171000I1000000J0D01*
G01*
%TO.C,U4*%
X113541500Y-111142000D02*
X113541500Y-112792000D01*
X118741500Y-111142000D02*
X113541500Y-111142000D01*
X118741500Y-116442000D02*
X118741500Y-111142000D01*
X113541500Y-116442000D02*
X118741500Y-116442000D01*
X113541500Y-114792000D02*
X113541500Y-116442000D01*
X113541500Y-112792000D02*
G75*
G02*
X113541500Y-114792000I0J-1000000D01*
G01*
%TO.C,U3*%
X165040000Y-84980000D02*
X165040000Y-86630000D01*
X170240000Y-84980000D02*
X165040000Y-84980000D01*
X170240000Y-90280000D02*
X170240000Y-84980000D01*
X165040000Y-90280000D02*
X170240000Y-90280000D01*
X165040000Y-88630000D02*
X165040000Y-90280000D01*
X165040000Y-86630000D02*
G75*
G02*
X165040000Y-88630000I0J-1000000D01*
G01*
%TO.C,U2*%
X143400000Y-86356500D02*
X145050000Y-86356500D01*
X143400000Y-81156500D02*
X143400000Y-86356500D01*
X148700000Y-81156500D02*
X143400000Y-81156500D01*
X148700000Y-86356500D02*
X148700000Y-81156500D01*
X147050000Y-86356500D02*
X148700000Y-86356500D01*
X145050000Y-86356500D02*
G75*
G02*
X147050000Y-86356500I1000000J0D01*
G01*
D11*
%TO.C,U1*%
X140983500Y-96045500D02*
X139558500Y-96045500D01*
X148233500Y-95820500D02*
X147908500Y-95820500D01*
X148233500Y-103070500D02*
X147908500Y-103070500D01*
X140983500Y-103070500D02*
X141308500Y-103070500D01*
X140983500Y-95820500D02*
X141308500Y-95820500D01*
X140983500Y-103070500D02*
X140983500Y-102745500D01*
X148233500Y-103070500D02*
X148233500Y-102745500D01*
X148233500Y-95820500D02*
X148233500Y-96145500D01*
X140983500Y-95820500D02*
X140983500Y-96045500D01*
D10*
%TO.C,SW1*%
X160166000Y-97234000D02*
X160166000Y-95734000D01*
X158916000Y-93234000D02*
X154416000Y-93234000D01*
X153166000Y-95734000D02*
X153166000Y-97234000D01*
X154416000Y-99734000D02*
X158916000Y-99734000D01*
%TO.C,R11*%
X159850500Y-121821564D02*
X159850500Y-120367436D01*
X158030500Y-121821564D02*
X158030500Y-120367436D01*
%TO.C,R10*%
X159673936Y-116734000D02*
X161128064Y-116734000D01*
X159673936Y-114914000D02*
X161128064Y-114914000D01*
%TO.C,R9*%
X163223564Y-109516500D02*
X161769436Y-109516500D01*
X163223564Y-111336500D02*
X161769436Y-111336500D01*
%TO.C,R7*%
X168619064Y-111866000D02*
X167164936Y-111866000D01*
X168619064Y-113686000D02*
X167164936Y-113686000D01*
%TO.C,R6*%
X155863936Y-111527000D02*
X157318064Y-111527000D01*
X155863936Y-109707000D02*
X157318064Y-109707000D01*
%TO.C,R5*%
X143785000Y-116487564D02*
X143785000Y-115033436D01*
X141965000Y-116487564D02*
X141965000Y-115033436D01*
%TO.C,R4*%
X139467000Y-111344064D02*
X139467000Y-109889936D01*
X137647000Y-111344064D02*
X137647000Y-109889936D01*
%TO.C,R3*%
X144941936Y-90064000D02*
X146396064Y-90064000D01*
X144941936Y-88244000D02*
X146396064Y-88244000D01*
%TO.C,R2*%
X136419000Y-111407564D02*
X136419000Y-109953436D01*
X134599000Y-111407564D02*
X134599000Y-109953436D01*
%TO.C,R1*%
X139721000Y-116487564D02*
X139721000Y-115033436D01*
X137901000Y-116487564D02*
X137901000Y-115033436D01*
%TO.C,Q5*%
X121646500Y-77904000D02*
X121646500Y-78134000D01*
X121646500Y-82624000D02*
X121646500Y-82394000D01*
X121646500Y-82624000D02*
X118926500Y-82624000D01*
X118926500Y-82624000D02*
X118926500Y-81314000D01*
X122786500Y-82394000D02*
X121646500Y-82394000D01*
X118926500Y-77904000D02*
X121646500Y-77904000D01*
X118926500Y-79214000D02*
X118926500Y-77904000D01*
%TO.C,Q4*%
X124435500Y-115223500D02*
X124435500Y-114123500D01*
X122625500Y-115223500D02*
X124435500Y-115223500D01*
X122625500Y-116723500D02*
X122625500Y-115223500D01*
X131215500Y-115223500D02*
X131215500Y-110098500D01*
X133025500Y-115223500D02*
X131215500Y-115223500D01*
X133025500Y-116723500D02*
X133025500Y-115223500D01*
%TO.C,Q3*%
X121900000Y-101396500D02*
X121900000Y-102496500D01*
X123710000Y-101396500D02*
X121900000Y-101396500D01*
X123710000Y-99896500D02*
X123710000Y-101396500D01*
X115120000Y-101396500D02*
X115120000Y-106521500D01*
X113310000Y-101396500D02*
X115120000Y-101396500D01*
X113310000Y-99896500D02*
X113310000Y-101396500D01*
%TO.C,Q2*%
X154236000Y-81039000D02*
X154236000Y-79939000D01*
X152426000Y-81039000D02*
X154236000Y-81039000D01*
X152426000Y-82539000D02*
X152426000Y-81039000D01*
X161016000Y-81039000D02*
X161016000Y-75914000D01*
X162826000Y-81039000D02*
X161016000Y-81039000D01*
X162826000Y-82539000D02*
X162826000Y-81039000D01*
%TO.C,Q1*%
X135027500Y-80131500D02*
X136127500Y-80131500D01*
X135027500Y-78321500D02*
X135027500Y-80131500D01*
X133527500Y-78321500D02*
X135027500Y-78321500D01*
X135027500Y-86911500D02*
X140152500Y-86911500D01*
X135027500Y-88721500D02*
X135027500Y-86911500D01*
X133527500Y-88721500D02*
X135027500Y-88721500D01*
%TO.C,J6*%
X173604500Y-97899500D02*
X174204500Y-97599500D01*
X173604500Y-97299500D02*
X173604500Y-97899500D01*
X174204500Y-97599500D02*
X173604500Y-97299500D01*
X177294500Y-105419500D02*
X177294500Y-105099500D01*
X180714500Y-105419500D02*
X177294500Y-105419500D01*
X180794500Y-105099500D02*
X180714500Y-105419500D01*
X180714500Y-104779500D02*
X180794500Y-105099500D01*
X177294500Y-104779500D02*
X180714500Y-104779500D01*
X177294500Y-105099500D02*
X177294500Y-104779500D01*
X176294500Y-103769500D02*
X176294500Y-103929500D01*
X177294500Y-102919500D02*
X177294500Y-102599500D01*
X180714500Y-102919500D02*
X177294500Y-102919500D01*
X180794500Y-102599500D02*
X180714500Y-102919500D01*
X180714500Y-102279500D02*
X180794500Y-102599500D01*
X177294500Y-102279500D02*
X180714500Y-102279500D01*
X177294500Y-102599500D02*
X177294500Y-102279500D01*
X176294500Y-101269500D02*
X176294500Y-101429500D01*
X177294500Y-100419500D02*
X177294500Y-100099500D01*
X180714500Y-100419500D02*
X177294500Y-100419500D01*
X180794500Y-100099500D02*
X180714500Y-100419500D01*
X180714500Y-99779500D02*
X180794500Y-100099500D01*
X177294500Y-99779500D02*
X180714500Y-99779500D01*
X177294500Y-100099500D02*
X177294500Y-99779500D01*
X176294500Y-98769500D02*
X176294500Y-98929500D01*
X177294500Y-97919500D02*
X177294500Y-97599500D01*
X180714500Y-97919500D02*
X177294500Y-97919500D01*
X180794500Y-97599500D02*
X180714500Y-97919500D01*
X180714500Y-97279500D02*
X180794500Y-97599500D01*
X177294500Y-97279500D02*
X180714500Y-97279500D01*
X177294500Y-97599500D02*
X177294500Y-97279500D01*
X177294500Y-96209500D02*
X177294500Y-106489500D01*
X176294500Y-106489500D02*
X176294500Y-107709500D01*
X181294500Y-106489500D02*
X176294500Y-106489500D01*
X181294500Y-107709500D02*
X181294500Y-106489500D01*
X176294500Y-96209500D02*
X176294500Y-94989500D01*
X181294500Y-96209500D02*
X176294500Y-96209500D01*
X181294500Y-94989500D02*
X181294500Y-96209500D01*
X174094500Y-106489500D02*
X176294500Y-106489500D01*
X174094500Y-107709500D02*
X174094500Y-106489500D01*
X182514500Y-107709500D02*
X174094500Y-107709500D01*
X182514500Y-94989500D02*
X182514500Y-107709500D01*
X174094500Y-94989500D02*
X182514500Y-94989500D01*
X174094500Y-96209500D02*
X174094500Y-94989500D01*
X176294500Y-96209500D02*
X174094500Y-96209500D01*
%TO.C,J3*%
X106415500Y-77868500D02*
X106415500Y-78368500D01*
X107155500Y-77868500D02*
X106415500Y-77868500D01*
X110292500Y-84561500D02*
X110246500Y-84514500D01*
X112590500Y-86858500D02*
X112554500Y-86823500D01*
X110076500Y-84754500D02*
X110041500Y-84719500D01*
X112384500Y-87063500D02*
X112338500Y-87016500D01*
X116576500Y-88388500D02*
X106655500Y-88388500D01*
X116576500Y-78108500D02*
X106655500Y-78108500D01*
X106655500Y-78108500D02*
X106655500Y-88388500D01*
X116576500Y-78108500D02*
X116576500Y-88388500D01*
X113616500Y-78108500D02*
X113616500Y-88388500D01*
X108715500Y-78108500D02*
X108715500Y-88388500D01*
X107215500Y-78108500D02*
X107215500Y-88388500D01*
X112995500Y-85788500D02*
G75*
G03*
X112995500Y-85788500I-1680000J0D01*
G01*
X109635247Y-80737305D02*
G75*
G02*
X109780500Y-80024500I1680253J28805D01*
G01*
X110632458Y-79173074D02*
G75*
G02*
X111999500Y-79173500I683042J-1535426D01*
G01*
X112850926Y-80025458D02*
G75*
G02*
X112850500Y-81392500I-1535426J-683042D01*
G01*
X111998542Y-82243926D02*
G75*
G02*
X110631500Y-82243500I-683042J1535426D01*
G01*
X109780744Y-81391818D02*
G75*
G02*
X109635500Y-80708500I1534756J683318D01*
G01*
%TO.C,J2*%
X145877000Y-126439000D02*
X146377000Y-126439000D01*
X145877000Y-125699000D02*
X145877000Y-126439000D01*
X152570000Y-122562000D02*
X152523000Y-122608000D01*
X154867000Y-120264000D02*
X154832000Y-120300000D01*
X152763000Y-122778000D02*
X152728000Y-122813000D01*
X155072000Y-120470000D02*
X155025000Y-120516000D01*
X156397000Y-116278000D02*
X156397000Y-126199000D01*
X146117000Y-116278000D02*
X146117000Y-126199000D01*
X146117000Y-126199000D02*
X156397000Y-126199000D01*
X146117000Y-116278000D02*
X156397000Y-116278000D01*
X146117000Y-119238000D02*
X156397000Y-119238000D01*
X146117000Y-124139000D02*
X156397000Y-124139000D01*
X146117000Y-125639000D02*
X156397000Y-125639000D01*
X155477000Y-121539000D02*
G75*
G03*
X155477000Y-121539000I-1680000J0D01*
G01*
X148745805Y-123219253D02*
G75*
G02*
X148033000Y-123074000I-28805J1680253D01*
G01*
X147181574Y-122222042D02*
G75*
G02*
X147182000Y-120855000I1535426J683042D01*
G01*
X148033958Y-120003574D02*
G75*
G02*
X149401000Y-120004000I683042J-1535426D01*
G01*
X150252426Y-120855958D02*
G75*
G02*
X150252000Y-122223000I-1535426J-683042D01*
G01*
X149400318Y-123073756D02*
G75*
G02*
X148717000Y-123219000I-683318J1534756D01*
G01*
%TO.C,J1*%
X152610000Y-101937000D02*
X153670000Y-101937000D01*
X152610000Y-102997000D02*
X152610000Y-101937000D01*
X154670000Y-101937000D02*
X156730000Y-101937000D01*
X154670000Y-103997000D02*
X154670000Y-101937000D01*
X152610000Y-103997000D02*
X154670000Y-103997000D01*
X156730000Y-101937000D02*
X156730000Y-108057000D01*
X152610000Y-103997000D02*
X152610000Y-108057000D01*
X152610000Y-108057000D02*
X156730000Y-108057000D01*
%TO.C,D7*%
X122787500Y-85218500D02*
X122787500Y-83518500D01*
X122787500Y-83518500D02*
X121687500Y-83518500D01*
X121687500Y-83518500D02*
X121687500Y-85218500D01*
%TO.C,D6*%
X126409500Y-109164000D02*
X129094500Y-109164000D01*
X126409500Y-107244000D02*
X126409500Y-109164000D01*
X129094500Y-107244000D02*
X126409500Y-107244000D01*
%TO.C,D5*%
X125976500Y-102010500D02*
X125976500Y-104695500D01*
X127896500Y-102010500D02*
X125976500Y-102010500D01*
X127896500Y-104695500D02*
X127896500Y-102010500D01*
D12*
%TO.C,D4*%
X171309500Y-109566500D02*
G75*
G03*
X171309500Y-109566500I-50000J0D01*
G01*
%TO.C,D3*%
X151526500Y-110680500D02*
G75*
G03*
X151526500Y-110680500I-50000J0D01*
G01*
D10*
%TO.C,D2*%
X146655500Y-77780000D02*
X143970500Y-77780000D01*
X146655500Y-79700000D02*
X146655500Y-77780000D01*
X143970500Y-79700000D02*
X146655500Y-79700000D01*
%TO.C,D1*%
X164939000Y-80589000D02*
X167624000Y-80589000D01*
X164939000Y-78669000D02*
X164939000Y-80589000D01*
X167624000Y-78669000D02*
X164939000Y-78669000D01*
%TO.C,C10*%
X178593500Y-115589500D02*
X179093500Y-115589500D01*
X178843500Y-115839500D02*
X178843500Y-115339500D01*
X181599063Y-115099500D02*
X182663500Y-114035063D01*
X179207937Y-115099500D02*
X178143500Y-114035063D01*
X179207937Y-115099500D02*
X179343500Y-115099500D01*
X181599063Y-115099500D02*
X181463500Y-115099500D01*
X182663500Y-114035063D02*
X182663500Y-110579500D01*
X178143500Y-114035063D02*
X178143500Y-110579500D01*
X178143500Y-110579500D02*
X179343500Y-110579500D01*
X182663500Y-110579500D02*
X181463500Y-110579500D01*
%TO.C,C9*%
X119266580Y-87564500D02*
X118985420Y-87564500D01*
X119266580Y-88584500D02*
X118985420Y-88584500D01*
%TO.C,C8*%
X163526080Y-112647000D02*
X163244920Y-112647000D01*
X163526080Y-113667000D02*
X163244920Y-113667000D01*
%TO.C,C7*%
X175800000Y-115233000D02*
X175300000Y-115233000D01*
X175550000Y-114983000D02*
X175550000Y-115483000D01*
X172794437Y-115723000D02*
X171730000Y-116787437D01*
X175185563Y-115723000D02*
X176250000Y-116787437D01*
X175185563Y-115723000D02*
X175050000Y-115723000D01*
X172794437Y-115723000D02*
X172930000Y-115723000D01*
X171730000Y-116787437D02*
X171730000Y-120243000D01*
X176250000Y-116787437D02*
X176250000Y-120243000D01*
X176250000Y-120243000D02*
X175050000Y-120243000D01*
X171730000Y-120243000D02*
X172930000Y-120243000D01*
%TO.C,C6*%
X168527000Y-116508920D02*
X168527000Y-116790080D01*
X169547000Y-116508920D02*
X169547000Y-116790080D01*
%TO.C,C5*%
X165621580Y-98804000D02*
X165340420Y-98804000D01*
X165621580Y-99824000D02*
X165340420Y-99824000D01*
%TO.C,C4*%
X171007500Y-99200580D02*
X171007500Y-98919420D01*
X169987500Y-99200580D02*
X169987500Y-98919420D01*
%TO.C,C1*%
X166245000Y-116840580D02*
X166245000Y-116559420D01*
X165225000Y-116840580D02*
X165225000Y-116559420D01*
%TO.C,J4*%
D11*
X119113666Y-68153380D02*
X119113666Y-68867666D01*
X119066047Y-69010523D01*
X118970809Y-69105761D01*
X118827952Y-69153380D01*
X118732714Y-69153380D01*
X120018428Y-68486714D02*
X120018428Y-69153380D01*
X119780333Y-68105761D02*
X119542238Y-68820047D01*
X120161285Y-68820047D01*
%TO.C,H4*%
X106807095Y-120142380D02*
X106807095Y-119142380D01*
X106807095Y-119618571D02*
X107378523Y-119618571D01*
X107378523Y-120142380D02*
X107378523Y-119142380D01*
X108283285Y-119475714D02*
X108283285Y-120142380D01*
X108045190Y-119094761D02*
X107807095Y-119809047D01*
X108426142Y-119809047D01*
%TO.C,H3*%
X106553095Y-69024880D02*
X106553095Y-68024880D01*
X106553095Y-68501071D02*
X107124523Y-68501071D01*
X107124523Y-69024880D02*
X107124523Y-68024880D01*
X107505476Y-68024880D02*
X108124523Y-68024880D01*
X107791190Y-68405833D01*
X107934047Y-68405833D01*
X108029285Y-68453452D01*
X108076904Y-68501071D01*
X108124523Y-68596309D01*
X108124523Y-68834404D01*
X108076904Y-68929642D01*
X108029285Y-68977261D01*
X107934047Y-69024880D01*
X107648333Y-69024880D01*
X107553095Y-68977261D01*
X107505476Y-68929642D01*
%TO.C,H2*%
X178054095Y-120332880D02*
X178054095Y-119332880D01*
X178054095Y-119809071D02*
X178625523Y-119809071D01*
X178625523Y-120332880D02*
X178625523Y-119332880D01*
X179054095Y-119428119D02*
X179101714Y-119380500D01*
X179196952Y-119332880D01*
X179435047Y-119332880D01*
X179530285Y-119380500D01*
X179577904Y-119428119D01*
X179625523Y-119523357D01*
X179625523Y-119618595D01*
X179577904Y-119761452D01*
X179006476Y-120332880D01*
X179625523Y-120332880D01*
%TO.C,H1*%
X177736595Y-68961380D02*
X177736595Y-67961380D01*
X177736595Y-68437571D02*
X178308023Y-68437571D01*
X178308023Y-68961380D02*
X178308023Y-67961380D01*
X179308023Y-68961380D02*
X178736595Y-68961380D01*
X179022309Y-68961380D02*
X179022309Y-67961380D01*
X178927071Y-68104238D01*
X178831833Y-68199476D01*
X178736595Y-68247095D01*
%TO.C,J14*%
X131293976Y-68216880D02*
X131293976Y-68931166D01*
X131246357Y-69074023D01*
X131151119Y-69169261D01*
X131008261Y-69216880D01*
X130913023Y-69216880D01*
X132293976Y-69216880D02*
X131722547Y-69216880D01*
X132008261Y-69216880D02*
X132008261Y-68216880D01*
X131913023Y-68359738D01*
X131817785Y-68454976D01*
X131722547Y-68502595D01*
X133151119Y-68550214D02*
X133151119Y-69216880D01*
X132913023Y-68169261D02*
X132674928Y-68883547D01*
X133293976Y-68883547D01*
%TO.C,J13*%
X115712976Y-126648880D02*
X115712976Y-127363166D01*
X115665357Y-127506023D01*
X115570119Y-127601261D01*
X115427261Y-127648880D01*
X115332023Y-127648880D01*
X116712976Y-127648880D02*
X116141547Y-127648880D01*
X116427261Y-127648880D02*
X116427261Y-126648880D01*
X116332023Y-126791738D01*
X116236785Y-126886976D01*
X116141547Y-126934595D01*
X117046309Y-126648880D02*
X117665357Y-126648880D01*
X117332023Y-127029833D01*
X117474880Y-127029833D01*
X117570119Y-127077452D01*
X117617738Y-127125071D01*
X117665357Y-127220309D01*
X117665357Y-127458404D01*
X117617738Y-127553642D01*
X117570119Y-127601261D01*
X117474880Y-127648880D01*
X117189166Y-127648880D01*
X117093928Y-127601261D01*
X117046309Y-127553642D01*
%TO.C,J12*%
X142977976Y-68216880D02*
X142977976Y-68931166D01*
X142930357Y-69074023D01*
X142835119Y-69169261D01*
X142692261Y-69216880D01*
X142597023Y-69216880D01*
X143977976Y-69216880D02*
X143406547Y-69216880D01*
X143692261Y-69216880D02*
X143692261Y-68216880D01*
X143597023Y-68359738D01*
X143501785Y-68454976D01*
X143406547Y-68502595D01*
X144358928Y-68312119D02*
X144406547Y-68264500D01*
X144501785Y-68216880D01*
X144739880Y-68216880D01*
X144835119Y-68264500D01*
X144882738Y-68312119D01*
X144930357Y-68407357D01*
X144930357Y-68502595D01*
X144882738Y-68645452D01*
X144311309Y-69216880D01*
X144930357Y-69216880D01*
%TO.C,J11*%
X104919880Y-107466023D02*
X105634166Y-107466023D01*
X105777023Y-107513642D01*
X105872261Y-107608880D01*
X105919880Y-107751738D01*
X105919880Y-107846976D01*
X105919880Y-106466023D02*
X105919880Y-107037452D01*
X105919880Y-106751738D02*
X104919880Y-106751738D01*
X105062738Y-106846976D01*
X105157976Y-106942214D01*
X105205595Y-107037452D01*
X105919880Y-105513642D02*
X105919880Y-106085071D01*
X105919880Y-105799357D02*
X104919880Y-105799357D01*
X105062738Y-105894595D01*
X105157976Y-105989833D01*
X105205595Y-106085071D01*
%TO.C,J10*%
X154407976Y-68216880D02*
X154407976Y-68931166D01*
X154360357Y-69074023D01*
X154265119Y-69169261D01*
X154122261Y-69216880D01*
X154027023Y-69216880D01*
X155407976Y-69216880D02*
X154836547Y-69216880D01*
X155122261Y-69216880D02*
X155122261Y-68216880D01*
X155027023Y-68359738D01*
X154931785Y-68454976D01*
X154836547Y-68502595D01*
X156027023Y-68216880D02*
X156122261Y-68216880D01*
X156217500Y-68264500D01*
X156265119Y-68312119D01*
X156312738Y-68407357D01*
X156360357Y-68597833D01*
X156360357Y-68835928D01*
X156312738Y-69026404D01*
X156265119Y-69121642D01*
X156217500Y-69169261D01*
X156122261Y-69216880D01*
X156027023Y-69216880D01*
X155931785Y-69169261D01*
X155884166Y-69121642D01*
X155836547Y-69026404D01*
X155788928Y-68835928D01*
X155788928Y-68597833D01*
X155836547Y-68407357D01*
X155884166Y-68312119D01*
X155931785Y-68264500D01*
X156027023Y-68216880D01*
%TO.C,J9*%
X104983380Y-95369333D02*
X105697666Y-95369333D01*
X105840523Y-95416952D01*
X105935761Y-95512190D01*
X105983380Y-95655047D01*
X105983380Y-95750285D01*
X105983380Y-94845523D02*
X105983380Y-94655047D01*
X105935761Y-94559809D01*
X105888142Y-94512190D01*
X105745285Y-94416952D01*
X105554809Y-94369333D01*
X105173857Y-94369333D01*
X105078619Y-94416952D01*
X105031000Y-94464571D01*
X104983380Y-94559809D01*
X104983380Y-94750285D01*
X105031000Y-94845523D01*
X105078619Y-94893142D01*
X105173857Y-94940761D01*
X105411952Y-94940761D01*
X105507190Y-94893142D01*
X105554809Y-94845523D01*
X105602428Y-94750285D01*
X105602428Y-94559809D01*
X105554809Y-94464571D01*
X105507190Y-94416952D01*
X105411952Y-94369333D01*
%TO.C,J8*%
X166250666Y-68216880D02*
X166250666Y-68931166D01*
X166203047Y-69074023D01*
X166107809Y-69169261D01*
X165964952Y-69216880D01*
X165869714Y-69216880D01*
X166869714Y-68645452D02*
X166774476Y-68597833D01*
X166726857Y-68550214D01*
X166679238Y-68454976D01*
X166679238Y-68407357D01*
X166726857Y-68312119D01*
X166774476Y-68264500D01*
X166869714Y-68216880D01*
X167060190Y-68216880D01*
X167155428Y-68264500D01*
X167203047Y-68312119D01*
X167250666Y-68407357D01*
X167250666Y-68454976D01*
X167203047Y-68550214D01*
X167155428Y-68597833D01*
X167060190Y-68645452D01*
X166869714Y-68645452D01*
X166774476Y-68693071D01*
X166726857Y-68740690D01*
X166679238Y-68835928D01*
X166679238Y-69026404D01*
X166726857Y-69121642D01*
X166774476Y-69169261D01*
X166869714Y-69216880D01*
X167060190Y-69216880D01*
X167155428Y-69169261D01*
X167203047Y-69121642D01*
X167250666Y-69026404D01*
X167250666Y-68835928D01*
X167203047Y-68740690D01*
X167155428Y-68693071D01*
X167060190Y-68645452D01*
%TO.C,J5*%
X182782880Y-87732833D02*
X183497166Y-87732833D01*
X183640023Y-87780452D01*
X183735261Y-87875690D01*
X183782880Y-88018547D01*
X183782880Y-88113785D01*
X182782880Y-86780452D02*
X182782880Y-87256642D01*
X183259071Y-87304261D01*
X183211452Y-87256642D01*
X183163833Y-87161404D01*
X183163833Y-86923309D01*
X183211452Y-86828071D01*
X183259071Y-86780452D01*
X183354309Y-86732833D01*
X183592404Y-86732833D01*
X183687642Y-86780452D01*
X183735261Y-86828071D01*
X183782880Y-86923309D01*
X183782880Y-87161404D01*
X183735261Y-87256642D01*
X183687642Y-87304261D01*
%TO.C,Y1*%
X135644690Y-99626690D02*
X136120880Y-99626690D01*
X135120880Y-99960023D02*
X135644690Y-99626690D01*
X135120880Y-99293357D01*
X136120880Y-98436214D02*
X136120880Y-99007642D01*
X136120880Y-98721928D02*
X135120880Y-98721928D01*
X135263738Y-98817166D01*
X135358976Y-98912404D01*
X135406595Y-99007642D01*
%TO.C,U7*%
X164680595Y-117507380D02*
X164680595Y-118316904D01*
X164728214Y-118412142D01*
X164775833Y-118459761D01*
X164871071Y-118507380D01*
X165061547Y-118507380D01*
X165156785Y-118459761D01*
X165204404Y-118412142D01*
X165252023Y-118316904D01*
X165252023Y-117507380D01*
X165632976Y-117507380D02*
X166299642Y-117507380D01*
X165871071Y-118507380D01*
%TO.C,U6*%
X163068095Y-108362380D02*
X163068095Y-109171904D01*
X163115714Y-109267142D01*
X163163333Y-109314761D01*
X163258571Y-109362380D01*
X163449047Y-109362380D01*
X163544285Y-109314761D01*
X163591904Y-109267142D01*
X163639523Y-109171904D01*
X163639523Y-108362380D01*
X164544285Y-108362380D02*
X164353809Y-108362380D01*
X164258571Y-108410000D01*
X164210952Y-108457619D01*
X164115714Y-108600476D01*
X164068095Y-108790952D01*
X164068095Y-109171904D01*
X164115714Y-109267142D01*
X164163333Y-109314761D01*
X164258571Y-109362380D01*
X164449047Y-109362380D01*
X164544285Y-109314761D01*
X164591904Y-109267142D01*
X164639523Y-109171904D01*
X164639523Y-108933809D01*
X164591904Y-108838571D01*
X164544285Y-108790952D01*
X164449047Y-108743333D01*
X164258571Y-108743333D01*
X164163333Y-108790952D01*
X164115714Y-108838571D01*
X164068095Y-108933809D01*
%TO.C,U5*%
X139700095Y-126623380D02*
X139700095Y-127432904D01*
X139747714Y-127528142D01*
X139795333Y-127575761D01*
X139890571Y-127623380D01*
X140081047Y-127623380D01*
X140176285Y-127575761D01*
X140223904Y-127528142D01*
X140271523Y-127432904D01*
X140271523Y-126623380D01*
X141223904Y-126623380D02*
X140747714Y-126623380D01*
X140700095Y-127099571D01*
X140747714Y-127051952D01*
X140842952Y-127004333D01*
X141081047Y-127004333D01*
X141176285Y-127051952D01*
X141223904Y-127099571D01*
X141271523Y-127194809D01*
X141271523Y-127432904D01*
X141223904Y-127528142D01*
X141176285Y-127575761D01*
X141081047Y-127623380D01*
X140842952Y-127623380D01*
X140747714Y-127575761D01*
X140700095Y-127528142D01*
%TO.C,U4*%
X111993880Y-114553904D02*
X112803404Y-114553904D01*
X112898642Y-114506285D01*
X112946261Y-114458666D01*
X112993880Y-114363428D01*
X112993880Y-114172952D01*
X112946261Y-114077714D01*
X112898642Y-114030095D01*
X112803404Y-113982476D01*
X111993880Y-113982476D01*
X112327214Y-113077714D02*
X112993880Y-113077714D01*
X111946261Y-113315809D02*
X112660547Y-113553904D01*
X112660547Y-112934857D01*
%TO.C,U3*%
X163492380Y-88391904D02*
X164301904Y-88391904D01*
X164397142Y-88344285D01*
X164444761Y-88296666D01*
X164492380Y-88201428D01*
X164492380Y-88010952D01*
X164444761Y-87915714D01*
X164397142Y-87868095D01*
X164301904Y-87820476D01*
X163492380Y-87820476D01*
X163492380Y-87439523D02*
X163492380Y-86820476D01*
X163873333Y-87153809D01*
X163873333Y-87010952D01*
X163920952Y-86915714D01*
X163968571Y-86868095D01*
X164063809Y-86820476D01*
X164301904Y-86820476D01*
X164397142Y-86868095D01*
X164444761Y-86915714D01*
X164492380Y-87010952D01*
X164492380Y-87296666D01*
X164444761Y-87391904D01*
X164397142Y-87439523D01*
%TO.C,U2*%
X145288095Y-86808880D02*
X145288095Y-87618404D01*
X145335714Y-87713642D01*
X145383333Y-87761261D01*
X145478571Y-87808880D01*
X145669047Y-87808880D01*
X145764285Y-87761261D01*
X145811904Y-87713642D01*
X145859523Y-87618404D01*
X145859523Y-86808880D01*
X146288095Y-86904119D02*
X146335714Y-86856500D01*
X146430952Y-86808880D01*
X146669047Y-86808880D01*
X146764285Y-86856500D01*
X146811904Y-86904119D01*
X146859523Y-86999357D01*
X146859523Y-87094595D01*
X146811904Y-87237452D01*
X146240476Y-87808880D01*
X146859523Y-87808880D01*
%TO.C,U1*%
X143846595Y-92847880D02*
X143846595Y-93657404D01*
X143894214Y-93752642D01*
X143941833Y-93800261D01*
X144037071Y-93847880D01*
X144227547Y-93847880D01*
X144322785Y-93800261D01*
X144370404Y-93752642D01*
X144418023Y-93657404D01*
X144418023Y-92847880D01*
X145418023Y-93847880D02*
X144846595Y-93847880D01*
X145132309Y-93847880D02*
X145132309Y-92847880D01*
X145037071Y-92990738D01*
X144941833Y-93085976D01*
X144846595Y-93133595D01*
%TO.C,SW1*%
X155332666Y-92638761D02*
X155475523Y-92686380D01*
X155713619Y-92686380D01*
X155808857Y-92638761D01*
X155856476Y-92591142D01*
X155904095Y-92495904D01*
X155904095Y-92400666D01*
X155856476Y-92305428D01*
X155808857Y-92257809D01*
X155713619Y-92210190D01*
X155523142Y-92162571D01*
X155427904Y-92114952D01*
X155380285Y-92067333D01*
X155332666Y-91972095D01*
X155332666Y-91876857D01*
X155380285Y-91781619D01*
X155427904Y-91734000D01*
X155523142Y-91686380D01*
X155761238Y-91686380D01*
X155904095Y-91734000D01*
X156237428Y-91686380D02*
X156475523Y-92686380D01*
X156666000Y-91972095D01*
X156856476Y-92686380D01*
X157094571Y-91686380D01*
X157999333Y-92686380D02*
X157427904Y-92686380D01*
X157713619Y-92686380D02*
X157713619Y-91686380D01*
X157618380Y-91829238D01*
X157523142Y-91924476D01*
X157427904Y-91972095D01*
%TO.C,R11*%
X157572880Y-121737357D02*
X157096690Y-122070690D01*
X157572880Y-122308785D02*
X156572880Y-122308785D01*
X156572880Y-121927833D01*
X156620500Y-121832595D01*
X156668119Y-121784976D01*
X156763357Y-121737357D01*
X156906214Y-121737357D01*
X157001452Y-121784976D01*
X157049071Y-121832595D01*
X157096690Y-121927833D01*
X157096690Y-122308785D01*
X157572880Y-120784976D02*
X157572880Y-121356404D01*
X157572880Y-121070690D02*
X156572880Y-121070690D01*
X156715738Y-121165928D01*
X156810976Y-121261166D01*
X156858595Y-121356404D01*
X157572880Y-119832595D02*
X157572880Y-120404023D01*
X157572880Y-120118309D02*
X156572880Y-120118309D01*
X156715738Y-120213547D01*
X156810976Y-120308785D01*
X156858595Y-120404023D01*
%TO.C,R10*%
X159758142Y-114456380D02*
X159424809Y-113980190D01*
X159186714Y-114456380D02*
X159186714Y-113456380D01*
X159567666Y-113456380D01*
X159662904Y-113504000D01*
X159710523Y-113551619D01*
X159758142Y-113646857D01*
X159758142Y-113789714D01*
X159710523Y-113884952D01*
X159662904Y-113932571D01*
X159567666Y-113980190D01*
X159186714Y-113980190D01*
X160710523Y-114456380D02*
X160139095Y-114456380D01*
X160424809Y-114456380D02*
X160424809Y-113456380D01*
X160329571Y-113599238D01*
X160234333Y-113694476D01*
X160139095Y-113742095D01*
X161329571Y-113456380D02*
X161424809Y-113456380D01*
X161520047Y-113504000D01*
X161567666Y-113551619D01*
X161615285Y-113646857D01*
X161662904Y-113837333D01*
X161662904Y-114075428D01*
X161615285Y-114265904D01*
X161567666Y-114361142D01*
X161520047Y-114408761D01*
X161424809Y-114456380D01*
X161329571Y-114456380D01*
X161234333Y-114408761D01*
X161186714Y-114361142D01*
X161139095Y-114265904D01*
X161091476Y-114075428D01*
X161091476Y-113837333D01*
X161139095Y-113646857D01*
X161186714Y-113551619D01*
X161234333Y-113504000D01*
X161329571Y-113456380D01*
%TO.C,R9*%
X162329833Y-112698880D02*
X161996500Y-112222690D01*
X161758404Y-112698880D02*
X161758404Y-111698880D01*
X162139357Y-111698880D01*
X162234595Y-111746500D01*
X162282214Y-111794119D01*
X162329833Y-111889357D01*
X162329833Y-112032214D01*
X162282214Y-112127452D01*
X162234595Y-112175071D01*
X162139357Y-112222690D01*
X161758404Y-112222690D01*
X162806023Y-112698880D02*
X162996500Y-112698880D01*
X163091738Y-112651261D01*
X163139357Y-112603642D01*
X163234595Y-112460785D01*
X163282214Y-112270309D01*
X163282214Y-111889357D01*
X163234595Y-111794119D01*
X163186976Y-111746500D01*
X163091738Y-111698880D01*
X162901261Y-111698880D01*
X162806023Y-111746500D01*
X162758404Y-111794119D01*
X162710785Y-111889357D01*
X162710785Y-112127452D01*
X162758404Y-112222690D01*
X162806023Y-112270309D01*
X162901261Y-112317928D01*
X163091738Y-112317928D01*
X163186976Y-112270309D01*
X163234595Y-112222690D01*
X163282214Y-112127452D01*
%TO.C,R7*%
X167725333Y-115048380D02*
X167392000Y-114572190D01*
X167153904Y-115048380D02*
X167153904Y-114048380D01*
X167534857Y-114048380D01*
X167630095Y-114096000D01*
X167677714Y-114143619D01*
X167725333Y-114238857D01*
X167725333Y-114381714D01*
X167677714Y-114476952D01*
X167630095Y-114524571D01*
X167534857Y-114572190D01*
X167153904Y-114572190D01*
X168058666Y-114048380D02*
X168725333Y-114048380D01*
X168296761Y-115048380D01*
%TO.C,R6*%
X156424333Y-109249380D02*
X156091000Y-108773190D01*
X155852904Y-109249380D02*
X155852904Y-108249380D01*
X156233857Y-108249380D01*
X156329095Y-108297000D01*
X156376714Y-108344619D01*
X156424333Y-108439857D01*
X156424333Y-108582714D01*
X156376714Y-108677952D01*
X156329095Y-108725571D01*
X156233857Y-108773190D01*
X155852904Y-108773190D01*
X157281476Y-108249380D02*
X157091000Y-108249380D01*
X156995761Y-108297000D01*
X156948142Y-108344619D01*
X156852904Y-108487476D01*
X156805285Y-108677952D01*
X156805285Y-109058904D01*
X156852904Y-109154142D01*
X156900523Y-109201761D01*
X156995761Y-109249380D01*
X157186238Y-109249380D01*
X157281476Y-109201761D01*
X157329095Y-109154142D01*
X157376714Y-109058904D01*
X157376714Y-108820809D01*
X157329095Y-108725571D01*
X157281476Y-108677952D01*
X157186238Y-108630333D01*
X156995761Y-108630333D01*
X156900523Y-108677952D01*
X156852904Y-108725571D01*
X156805285Y-108820809D01*
%TO.C,R5*%
X141507380Y-115927166D02*
X141031190Y-116260500D01*
X141507380Y-116498595D02*
X140507380Y-116498595D01*
X140507380Y-116117642D01*
X140555000Y-116022404D01*
X140602619Y-115974785D01*
X140697857Y-115927166D01*
X140840714Y-115927166D01*
X140935952Y-115974785D01*
X140983571Y-116022404D01*
X141031190Y-116117642D01*
X141031190Y-116498595D01*
X140507380Y-115022404D02*
X140507380Y-115498595D01*
X140983571Y-115546214D01*
X140935952Y-115498595D01*
X140888333Y-115403357D01*
X140888333Y-115165261D01*
X140935952Y-115070023D01*
X140983571Y-115022404D01*
X141078809Y-114974785D01*
X141316904Y-114974785D01*
X141412142Y-115022404D01*
X141459761Y-115070023D01*
X141507380Y-115165261D01*
X141507380Y-115403357D01*
X141459761Y-115498595D01*
X141412142Y-115546214D01*
%TO.C,R4*%
X137189380Y-110783666D02*
X136713190Y-111117000D01*
X137189380Y-111355095D02*
X136189380Y-111355095D01*
X136189380Y-110974142D01*
X136237000Y-110878904D01*
X136284619Y-110831285D01*
X136379857Y-110783666D01*
X136522714Y-110783666D01*
X136617952Y-110831285D01*
X136665571Y-110878904D01*
X136713190Y-110974142D01*
X136713190Y-111355095D01*
X136522714Y-109926523D02*
X137189380Y-109926523D01*
X136141761Y-110164619D02*
X136856047Y-110402714D01*
X136856047Y-109783666D01*
%TO.C,R3*%
X145502333Y-87786380D02*
X145169000Y-87310190D01*
X144930904Y-87786380D02*
X144930904Y-86786380D01*
X145311857Y-86786380D01*
X145407095Y-86834000D01*
X145454714Y-86881619D01*
X145502333Y-86976857D01*
X145502333Y-87119714D01*
X145454714Y-87214952D01*
X145407095Y-87262571D01*
X145311857Y-87310190D01*
X144930904Y-87310190D01*
X145835666Y-86786380D02*
X146454714Y-86786380D01*
X146121380Y-87167333D01*
X146264238Y-87167333D01*
X146359476Y-87214952D01*
X146407095Y-87262571D01*
X146454714Y-87357809D01*
X146454714Y-87595904D01*
X146407095Y-87691142D01*
X146359476Y-87738761D01*
X146264238Y-87786380D01*
X145978523Y-87786380D01*
X145883285Y-87738761D01*
X145835666Y-87691142D01*
%TO.C,R2*%
X134141380Y-110847166D02*
X133665190Y-111180500D01*
X134141380Y-111418595D02*
X133141380Y-111418595D01*
X133141380Y-111037642D01*
X133189000Y-110942404D01*
X133236619Y-110894785D01*
X133331857Y-110847166D01*
X133474714Y-110847166D01*
X133569952Y-110894785D01*
X133617571Y-110942404D01*
X133665190Y-111037642D01*
X133665190Y-111418595D01*
X133236619Y-110466214D02*
X133189000Y-110418595D01*
X133141380Y-110323357D01*
X133141380Y-110085261D01*
X133189000Y-109990023D01*
X133236619Y-109942404D01*
X133331857Y-109894785D01*
X133427095Y-109894785D01*
X133569952Y-109942404D01*
X134141380Y-110513833D01*
X134141380Y-109894785D01*
%TO.C,R1*%
X137443380Y-115927166D02*
X136967190Y-116260500D01*
X137443380Y-116498595D02*
X136443380Y-116498595D01*
X136443380Y-116117642D01*
X136491000Y-116022404D01*
X136538619Y-115974785D01*
X136633857Y-115927166D01*
X136776714Y-115927166D01*
X136871952Y-115974785D01*
X136919571Y-116022404D01*
X136967190Y-116117642D01*
X136967190Y-116498595D01*
X137443380Y-114974785D02*
X137443380Y-115546214D01*
X137443380Y-115260500D02*
X136443380Y-115260500D01*
X136586238Y-115355738D01*
X136681476Y-115450976D01*
X136729095Y-115546214D01*
%TO.C,Q5*%
X120191261Y-84311619D02*
X120096023Y-84264000D01*
X120000785Y-84168761D01*
X119857928Y-84025904D01*
X119762690Y-83978285D01*
X119667452Y-83978285D01*
X119715071Y-84216380D02*
X119619833Y-84168761D01*
X119524595Y-84073523D01*
X119476976Y-83883047D01*
X119476976Y-83549714D01*
X119524595Y-83359238D01*
X119619833Y-83264000D01*
X119715071Y-83216380D01*
X119905547Y-83216380D01*
X120000785Y-83264000D01*
X120096023Y-83359238D01*
X120143642Y-83549714D01*
X120143642Y-83883047D01*
X120096023Y-84073523D01*
X120000785Y-84168761D01*
X119905547Y-84216380D01*
X119715071Y-84216380D01*
X121048404Y-83216380D02*
X120572214Y-83216380D01*
X120524595Y-83692571D01*
X120572214Y-83644952D01*
X120667452Y-83597333D01*
X120905547Y-83597333D01*
X121000785Y-83644952D01*
X121048404Y-83692571D01*
X121096023Y-83787809D01*
X121096023Y-84025904D01*
X121048404Y-84121142D01*
X121000785Y-84168761D01*
X120905547Y-84216380D01*
X120667452Y-84216380D01*
X120572214Y-84168761D01*
X120524595Y-84121142D01*
%TO.C,Q4*%
X135023119Y-118268738D02*
X134975500Y-118363976D01*
X134880261Y-118459214D01*
X134737404Y-118602071D01*
X134689785Y-118697309D01*
X134689785Y-118792547D01*
X134927880Y-118744928D02*
X134880261Y-118840166D01*
X134785023Y-118935404D01*
X134594547Y-118983023D01*
X134261214Y-118983023D01*
X134070738Y-118935404D01*
X133975500Y-118840166D01*
X133927880Y-118744928D01*
X133927880Y-118554452D01*
X133975500Y-118459214D01*
X134070738Y-118363976D01*
X134261214Y-118316357D01*
X134594547Y-118316357D01*
X134785023Y-118363976D01*
X134880261Y-118459214D01*
X134927880Y-118554452D01*
X134927880Y-118744928D01*
X134261214Y-117459214D02*
X134927880Y-117459214D01*
X133880261Y-117697309D02*
X134594547Y-117935404D01*
X134594547Y-117316357D01*
%TO.C,Q3*%
X112407619Y-98541738D02*
X112360000Y-98636976D01*
X112264761Y-98732214D01*
X112121904Y-98875071D01*
X112074285Y-98970309D01*
X112074285Y-99065547D01*
X112312380Y-99017928D02*
X112264761Y-99113166D01*
X112169523Y-99208404D01*
X111979047Y-99256023D01*
X111645714Y-99256023D01*
X111455238Y-99208404D01*
X111360000Y-99113166D01*
X111312380Y-99017928D01*
X111312380Y-98827452D01*
X111360000Y-98732214D01*
X111455238Y-98636976D01*
X111645714Y-98589357D01*
X111979047Y-98589357D01*
X112169523Y-98636976D01*
X112264761Y-98732214D01*
X112312380Y-98827452D01*
X112312380Y-99017928D01*
X111312380Y-98256023D02*
X111312380Y-97636976D01*
X111693333Y-97970309D01*
X111693333Y-97827452D01*
X111740952Y-97732214D01*
X111788571Y-97684595D01*
X111883809Y-97636976D01*
X112121904Y-97636976D01*
X112217142Y-97684595D01*
X112264761Y-97732214D01*
X112312380Y-97827452D01*
X112312380Y-98113166D01*
X112264761Y-98208404D01*
X112217142Y-98256023D01*
%TO.C,Q2*%
X164823619Y-84084238D02*
X164776000Y-84179476D01*
X164680761Y-84274714D01*
X164537904Y-84417571D01*
X164490285Y-84512809D01*
X164490285Y-84608047D01*
X164728380Y-84560428D02*
X164680761Y-84655666D01*
X164585523Y-84750904D01*
X164395047Y-84798523D01*
X164061714Y-84798523D01*
X163871238Y-84750904D01*
X163776000Y-84655666D01*
X163728380Y-84560428D01*
X163728380Y-84369952D01*
X163776000Y-84274714D01*
X163871238Y-84179476D01*
X164061714Y-84131857D01*
X164395047Y-84131857D01*
X164585523Y-84179476D01*
X164680761Y-84274714D01*
X164728380Y-84369952D01*
X164728380Y-84560428D01*
X163823619Y-83750904D02*
X163776000Y-83703285D01*
X163728380Y-83608047D01*
X163728380Y-83369952D01*
X163776000Y-83274714D01*
X163823619Y-83227095D01*
X163918857Y-83179476D01*
X164014095Y-83179476D01*
X164156952Y-83227095D01*
X164728380Y-83798523D01*
X164728380Y-83179476D01*
%TO.C,Q1*%
X131982261Y-90719119D02*
X131887023Y-90671500D01*
X131791785Y-90576261D01*
X131648928Y-90433404D01*
X131553690Y-90385785D01*
X131458452Y-90385785D01*
X131506071Y-90623880D02*
X131410833Y-90576261D01*
X131315595Y-90481023D01*
X131267976Y-90290547D01*
X131267976Y-89957214D01*
X131315595Y-89766738D01*
X131410833Y-89671500D01*
X131506071Y-89623880D01*
X131696547Y-89623880D01*
X131791785Y-89671500D01*
X131887023Y-89766738D01*
X131934642Y-89957214D01*
X131934642Y-90290547D01*
X131887023Y-90481023D01*
X131791785Y-90576261D01*
X131696547Y-90623880D01*
X131506071Y-90623880D01*
X132887023Y-90623880D02*
X132315595Y-90623880D01*
X132601309Y-90623880D02*
X132601309Y-89623880D01*
X132506071Y-89766738D01*
X132410833Y-89861976D01*
X132315595Y-89909595D01*
%TO.C,J6*%
X183056880Y-101682833D02*
X183771166Y-101682833D01*
X183914023Y-101730452D01*
X184009261Y-101825690D01*
X184056880Y-101968547D01*
X184056880Y-102063785D01*
X183056880Y-100778071D02*
X183056880Y-100968547D01*
X183104500Y-101063785D01*
X183152119Y-101111404D01*
X183294976Y-101206642D01*
X183485452Y-101254261D01*
X183866404Y-101254261D01*
X183961642Y-101206642D01*
X184009261Y-101159023D01*
X184056880Y-101063785D01*
X184056880Y-100873309D01*
X184009261Y-100778071D01*
X183961642Y-100730452D01*
X183866404Y-100682833D01*
X183628309Y-100682833D01*
X183533071Y-100730452D01*
X183485452Y-100778071D01*
X183437833Y-100873309D01*
X183437833Y-101063785D01*
X183485452Y-101159023D01*
X183533071Y-101206642D01*
X183628309Y-101254261D01*
%TO.C,J3*%
X117027880Y-83581833D02*
X117742166Y-83581833D01*
X117885023Y-83629452D01*
X117980261Y-83724690D01*
X118027880Y-83867547D01*
X118027880Y-83962785D01*
X117027880Y-83200880D02*
X117027880Y-82581833D01*
X117408833Y-82915166D01*
X117408833Y-82772309D01*
X117456452Y-82677071D01*
X117504071Y-82629452D01*
X117599309Y-82581833D01*
X117837404Y-82581833D01*
X117932642Y-82629452D01*
X117980261Y-82677071D01*
X118027880Y-82772309D01*
X118027880Y-83058023D01*
X117980261Y-83153261D01*
X117932642Y-83200880D01*
%TO.C,J2*%
X150923666Y-114731380D02*
X150923666Y-115445666D01*
X150876047Y-115588523D01*
X150780809Y-115683761D01*
X150637952Y-115731380D01*
X150542714Y-115731380D01*
X151352238Y-114826619D02*
X151399857Y-114779000D01*
X151495095Y-114731380D01*
X151733190Y-114731380D01*
X151828428Y-114779000D01*
X151876047Y-114826619D01*
X151923666Y-114921857D01*
X151923666Y-115017095D01*
X151876047Y-115159952D01*
X151304619Y-115731380D01*
X151923666Y-115731380D01*
%TO.C,J1*%
X154336666Y-100389380D02*
X154336666Y-101103666D01*
X154289047Y-101246523D01*
X154193809Y-101341761D01*
X154050952Y-101389380D01*
X153955714Y-101389380D01*
X155336666Y-101389380D02*
X154765238Y-101389380D01*
X155050952Y-101389380D02*
X155050952Y-100389380D01*
X154955714Y-100532238D01*
X154860476Y-100627476D01*
X154765238Y-100675095D01*
%TO.C,D7*%
X124089880Y-85256595D02*
X123089880Y-85256595D01*
X123089880Y-85018500D01*
X123137500Y-84875642D01*
X123232738Y-84780404D01*
X123327976Y-84732785D01*
X123518452Y-84685166D01*
X123661309Y-84685166D01*
X123851785Y-84732785D01*
X123947023Y-84780404D01*
X124042261Y-84875642D01*
X124089880Y-85018500D01*
X124089880Y-85256595D01*
X123089880Y-84351833D02*
X123089880Y-83685166D01*
X124089880Y-84113738D01*
%TO.C,D6*%
X127356404Y-107006380D02*
X127356404Y-106006380D01*
X127594500Y-106006380D01*
X127737357Y-106054000D01*
X127832595Y-106149238D01*
X127880214Y-106244476D01*
X127927833Y-106434952D01*
X127927833Y-106577809D01*
X127880214Y-106768285D01*
X127832595Y-106863523D01*
X127737357Y-106958761D01*
X127594500Y-107006380D01*
X127356404Y-107006380D01*
X128784976Y-106006380D02*
X128594500Y-106006380D01*
X128499261Y-106054000D01*
X128451642Y-106101619D01*
X128356404Y-106244476D01*
X128308785Y-106434952D01*
X128308785Y-106815904D01*
X128356404Y-106911142D01*
X128404023Y-106958761D01*
X128499261Y-107006380D01*
X128689738Y-107006380D01*
X128784976Y-106958761D01*
X128832595Y-106911142D01*
X128880214Y-106815904D01*
X128880214Y-106577809D01*
X128832595Y-106482571D01*
X128784976Y-106434952D01*
X128689738Y-106387333D01*
X128499261Y-106387333D01*
X128404023Y-106434952D01*
X128356404Y-106482571D01*
X128308785Y-106577809D01*
%TO.C,D5*%
X129038880Y-104433595D02*
X128038880Y-104433595D01*
X128038880Y-104195500D01*
X128086500Y-104052642D01*
X128181738Y-103957404D01*
X128276976Y-103909785D01*
X128467452Y-103862166D01*
X128610309Y-103862166D01*
X128800785Y-103909785D01*
X128896023Y-103957404D01*
X128991261Y-104052642D01*
X129038880Y-104195500D01*
X129038880Y-104433595D01*
X128038880Y-102957404D02*
X128038880Y-103433595D01*
X128515071Y-103481214D01*
X128467452Y-103433595D01*
X128419833Y-103338357D01*
X128419833Y-103100261D01*
X128467452Y-103005023D01*
X128515071Y-102957404D01*
X128610309Y-102909785D01*
X128848404Y-102909785D01*
X128943642Y-102957404D01*
X128991261Y-103005023D01*
X129038880Y-103100261D01*
X129038880Y-103338357D01*
X128991261Y-103433595D01*
X128943642Y-103481214D01*
%TO.C,D4*%
X172541380Y-111250095D02*
X171541380Y-111250095D01*
X171541380Y-111012000D01*
X171589000Y-110869142D01*
X171684238Y-110773904D01*
X171779476Y-110726285D01*
X171969952Y-110678666D01*
X172112809Y-110678666D01*
X172303285Y-110726285D01*
X172398523Y-110773904D01*
X172493761Y-110869142D01*
X172541380Y-111012000D01*
X172541380Y-111250095D01*
X171874714Y-109821523D02*
X172541380Y-109821523D01*
X171493761Y-110059619D02*
X172208047Y-110297714D01*
X172208047Y-109678666D01*
%TO.C,D3*%
X151598404Y-110082880D02*
X151598404Y-109082880D01*
X151836500Y-109082880D01*
X151979357Y-109130500D01*
X152074595Y-109225738D01*
X152122214Y-109320976D01*
X152169833Y-109511452D01*
X152169833Y-109654309D01*
X152122214Y-109844785D01*
X152074595Y-109940023D01*
X151979357Y-110035261D01*
X151836500Y-110082880D01*
X151598404Y-110082880D01*
X152503166Y-109082880D02*
X153122214Y-109082880D01*
X152788880Y-109463833D01*
X152931738Y-109463833D01*
X153026976Y-109511452D01*
X153074595Y-109559071D01*
X153122214Y-109654309D01*
X153122214Y-109892404D01*
X153074595Y-109987642D01*
X153026976Y-110035261D01*
X152931738Y-110082880D01*
X152646023Y-110082880D01*
X152550785Y-110035261D01*
X152503166Y-109987642D01*
%TO.C,D2*%
X144232404Y-80842380D02*
X144232404Y-79842380D01*
X144470500Y-79842380D01*
X144613357Y-79890000D01*
X144708595Y-79985238D01*
X144756214Y-80080476D01*
X144803833Y-80270952D01*
X144803833Y-80413809D01*
X144756214Y-80604285D01*
X144708595Y-80699523D01*
X144613357Y-80794761D01*
X144470500Y-80842380D01*
X144232404Y-80842380D01*
X145184785Y-79937619D02*
X145232404Y-79890000D01*
X145327642Y-79842380D01*
X145565738Y-79842380D01*
X145660976Y-79890000D01*
X145708595Y-79937619D01*
X145756214Y-80032857D01*
X145756214Y-80128095D01*
X145708595Y-80270952D01*
X145137166Y-80842380D01*
X145756214Y-80842380D01*
%TO.C,D1*%
X165885904Y-78431380D02*
X165885904Y-77431380D01*
X166124000Y-77431380D01*
X166266857Y-77479000D01*
X166362095Y-77574238D01*
X166409714Y-77669476D01*
X166457333Y-77859952D01*
X166457333Y-78002809D01*
X166409714Y-78193285D01*
X166362095Y-78288523D01*
X166266857Y-78383761D01*
X166124000Y-78431380D01*
X165885904Y-78431380D01*
X167409714Y-78431380D02*
X166838285Y-78431380D01*
X167124000Y-78431380D02*
X167124000Y-77431380D01*
X167028761Y-77574238D01*
X166933523Y-77669476D01*
X166838285Y-77717095D01*
%TO.C,C10*%
X177560642Y-113482357D02*
X177608261Y-113529976D01*
X177655880Y-113672833D01*
X177655880Y-113768071D01*
X177608261Y-113910928D01*
X177513023Y-114006166D01*
X177417785Y-114053785D01*
X177227309Y-114101404D01*
X177084452Y-114101404D01*
X176893976Y-114053785D01*
X176798738Y-114006166D01*
X176703500Y-113910928D01*
X176655880Y-113768071D01*
X176655880Y-113672833D01*
X176703500Y-113529976D01*
X176751119Y-113482357D01*
X177655880Y-112529976D02*
X177655880Y-113101404D01*
X177655880Y-112815690D02*
X176655880Y-112815690D01*
X176798738Y-112910928D01*
X176893976Y-113006166D01*
X176941595Y-113101404D01*
X176655880Y-111910928D02*
X176655880Y-111815690D01*
X176703500Y-111720452D01*
X176751119Y-111672833D01*
X176846357Y-111625214D01*
X177036833Y-111577595D01*
X177274928Y-111577595D01*
X177465404Y-111625214D01*
X177560642Y-111672833D01*
X177608261Y-111720452D01*
X177655880Y-111815690D01*
X177655880Y-111910928D01*
X177608261Y-112006166D01*
X177560642Y-112053785D01*
X177465404Y-112101404D01*
X177274928Y-112149023D01*
X177036833Y-112149023D01*
X176846357Y-112101404D01*
X176751119Y-112053785D01*
X176703500Y-112006166D01*
X176655880Y-111910928D01*
%TO.C,C9*%
X118959333Y-89861642D02*
X118911714Y-89909261D01*
X118768857Y-89956880D01*
X118673619Y-89956880D01*
X118530761Y-89909261D01*
X118435523Y-89814023D01*
X118387904Y-89718785D01*
X118340285Y-89528309D01*
X118340285Y-89385452D01*
X118387904Y-89194976D01*
X118435523Y-89099738D01*
X118530761Y-89004500D01*
X118673619Y-88956880D01*
X118768857Y-88956880D01*
X118911714Y-89004500D01*
X118959333Y-89052119D01*
X119435523Y-89956880D02*
X119626000Y-89956880D01*
X119721238Y-89909261D01*
X119768857Y-89861642D01*
X119864095Y-89718785D01*
X119911714Y-89528309D01*
X119911714Y-89147357D01*
X119864095Y-89052119D01*
X119816476Y-89004500D01*
X119721238Y-88956880D01*
X119530761Y-88956880D01*
X119435523Y-89004500D01*
X119387904Y-89052119D01*
X119340285Y-89147357D01*
X119340285Y-89385452D01*
X119387904Y-89480690D01*
X119435523Y-89528309D01*
X119530761Y-89575928D01*
X119721238Y-89575928D01*
X119816476Y-89528309D01*
X119864095Y-89480690D01*
X119911714Y-89385452D01*
%TO.C,C8*%
X163218833Y-114944142D02*
X163171214Y-114991761D01*
X163028357Y-115039380D01*
X162933119Y-115039380D01*
X162790261Y-114991761D01*
X162695023Y-114896523D01*
X162647404Y-114801285D01*
X162599785Y-114610809D01*
X162599785Y-114467952D01*
X162647404Y-114277476D01*
X162695023Y-114182238D01*
X162790261Y-114087000D01*
X162933119Y-114039380D01*
X163028357Y-114039380D01*
X163171214Y-114087000D01*
X163218833Y-114134619D01*
X163790261Y-114467952D02*
X163695023Y-114420333D01*
X163647404Y-114372714D01*
X163599785Y-114277476D01*
X163599785Y-114229857D01*
X163647404Y-114134619D01*
X163695023Y-114087000D01*
X163790261Y-114039380D01*
X163980738Y-114039380D01*
X164075976Y-114087000D01*
X164123595Y-114134619D01*
X164171214Y-114229857D01*
X164171214Y-114277476D01*
X164123595Y-114372714D01*
X164075976Y-114420333D01*
X163980738Y-114467952D01*
X163790261Y-114467952D01*
X163695023Y-114515571D01*
X163647404Y-114563190D01*
X163599785Y-114658428D01*
X163599785Y-114848904D01*
X163647404Y-114944142D01*
X163695023Y-114991761D01*
X163790261Y-115039380D01*
X163980738Y-115039380D01*
X164075976Y-114991761D01*
X164123595Y-114944142D01*
X164171214Y-114848904D01*
X164171214Y-114658428D01*
X164123595Y-114563190D01*
X164075976Y-114515571D01*
X163980738Y-114467952D01*
%TO.C,C7*%
X177547142Y-118149666D02*
X177594761Y-118197285D01*
X177642380Y-118340142D01*
X177642380Y-118435380D01*
X177594761Y-118578238D01*
X177499523Y-118673476D01*
X177404285Y-118721095D01*
X177213809Y-118768714D01*
X177070952Y-118768714D01*
X176880476Y-118721095D01*
X176785238Y-118673476D01*
X176690000Y-118578238D01*
X176642380Y-118435380D01*
X176642380Y-118340142D01*
X176690000Y-118197285D01*
X176737619Y-118149666D01*
X176642380Y-117816333D02*
X176642380Y-117149666D01*
X177642380Y-117578238D01*
%TO.C,C6*%
X165838142Y-115546166D02*
X165885761Y-115593785D01*
X165933380Y-115736642D01*
X165933380Y-115831880D01*
X165885761Y-115974738D01*
X165790523Y-116069976D01*
X165695285Y-116117595D01*
X165504809Y-116165214D01*
X165361952Y-116165214D01*
X165171476Y-116117595D01*
X165076238Y-116069976D01*
X164981000Y-115974738D01*
X164933380Y-115831880D01*
X164933380Y-115736642D01*
X164981000Y-115593785D01*
X165028619Y-115546166D01*
X164933380Y-114689023D02*
X164933380Y-114879500D01*
X164981000Y-114974738D01*
X165028619Y-115022357D01*
X165171476Y-115117595D01*
X165361952Y-115165214D01*
X165742904Y-115165214D01*
X165838142Y-115117595D01*
X165885761Y-115069976D01*
X165933380Y-114974738D01*
X165933380Y-114784261D01*
X165885761Y-114689023D01*
X165838142Y-114641404D01*
X165742904Y-114593785D01*
X165504809Y-114593785D01*
X165409571Y-114641404D01*
X165361952Y-114689023D01*
X165314333Y-114784261D01*
X165314333Y-114974738D01*
X165361952Y-115069976D01*
X165409571Y-115117595D01*
X165504809Y-115165214D01*
%TO.C,C5*%
X165314333Y-101101142D02*
X165266714Y-101148761D01*
X165123857Y-101196380D01*
X165028619Y-101196380D01*
X164885761Y-101148761D01*
X164790523Y-101053523D01*
X164742904Y-100958285D01*
X164695285Y-100767809D01*
X164695285Y-100624952D01*
X164742904Y-100434476D01*
X164790523Y-100339238D01*
X164885761Y-100244000D01*
X165028619Y-100196380D01*
X165123857Y-100196380D01*
X165266714Y-100244000D01*
X165314333Y-100291619D01*
X166219095Y-100196380D02*
X165742904Y-100196380D01*
X165695285Y-100672571D01*
X165742904Y-100624952D01*
X165838142Y-100577333D01*
X166076238Y-100577333D01*
X166171476Y-100624952D01*
X166219095Y-100672571D01*
X166266714Y-100767809D01*
X166266714Y-101005904D01*
X166219095Y-101101142D01*
X166171476Y-101148761D01*
X166076238Y-101196380D01*
X165838142Y-101196380D01*
X165742904Y-101148761D01*
X165695285Y-101101142D01*
%TO.C,C4*%
X169424642Y-99226666D02*
X169472261Y-99274285D01*
X169519880Y-99417142D01*
X169519880Y-99512380D01*
X169472261Y-99655238D01*
X169377023Y-99750476D01*
X169281785Y-99798095D01*
X169091309Y-99845714D01*
X168948452Y-99845714D01*
X168757976Y-99798095D01*
X168662738Y-99750476D01*
X168567500Y-99655238D01*
X168519880Y-99512380D01*
X168519880Y-99417142D01*
X168567500Y-99274285D01*
X168615119Y-99226666D01*
X168853214Y-98369523D02*
X169519880Y-98369523D01*
X168472261Y-98607619D02*
X169186547Y-98845714D01*
X169186547Y-98226666D01*
%TO.C,C3*%
X136467142Y-104624166D02*
X136514761Y-104671785D01*
X136562380Y-104814642D01*
X136562380Y-104909880D01*
X136514761Y-105052738D01*
X136419523Y-105147976D01*
X136324285Y-105195595D01*
X136133809Y-105243214D01*
X135990952Y-105243214D01*
X135800476Y-105195595D01*
X135705238Y-105147976D01*
X135610000Y-105052738D01*
X135562380Y-104909880D01*
X135562380Y-104814642D01*
X135610000Y-104671785D01*
X135657619Y-104624166D01*
X135562380Y-104290833D02*
X135562380Y-103671785D01*
X135943333Y-104005119D01*
X135943333Y-103862261D01*
X135990952Y-103767023D01*
X136038571Y-103719404D01*
X136133809Y-103671785D01*
X136371904Y-103671785D01*
X136467142Y-103719404D01*
X136514761Y-103767023D01*
X136562380Y-103862261D01*
X136562380Y-104147976D01*
X136514761Y-104243214D01*
X136467142Y-104290833D01*
%TO.C,C2*%
X138503642Y-102147666D02*
X138551261Y-102195285D01*
X138598880Y-102338142D01*
X138598880Y-102433380D01*
X138551261Y-102576238D01*
X138456023Y-102671476D01*
X138360785Y-102719095D01*
X138170309Y-102766714D01*
X138027452Y-102766714D01*
X137836976Y-102719095D01*
X137741738Y-102671476D01*
X137646500Y-102576238D01*
X137598880Y-102433380D01*
X137598880Y-102338142D01*
X137646500Y-102195285D01*
X137694119Y-102147666D01*
X137694119Y-101766714D02*
X137646500Y-101719095D01*
X137598880Y-101623857D01*
X137598880Y-101385761D01*
X137646500Y-101290523D01*
X137694119Y-101242904D01*
X137789357Y-101195285D01*
X137884595Y-101195285D01*
X138027452Y-101242904D01*
X138598880Y-101814333D01*
X138598880Y-101195285D01*
%TO.C,C1*%
X164662142Y-116866666D02*
X164709761Y-116914285D01*
X164757380Y-117057142D01*
X164757380Y-117152380D01*
X164709761Y-117295238D01*
X164614523Y-117390476D01*
X164519285Y-117438095D01*
X164328809Y-117485714D01*
X164185952Y-117485714D01*
X163995476Y-117438095D01*
X163900238Y-117390476D01*
X163805000Y-117295238D01*
X163757380Y-117152380D01*
X163757380Y-117057142D01*
X163805000Y-116914285D01*
X163852619Y-116866666D01*
X164757380Y-115914285D02*
X164757380Y-116485714D01*
X164757380Y-116200000D02*
X163757380Y-116200000D01*
X163900238Y-116295238D01*
X163995476Y-116390476D01*
X164043095Y-116485714D01*
%TD*%
M02*
